<svg width="36" height="47" viewBox="0 0 36 47" fill="none" xmlns="http://www.w3.org/2000/svg">
<path d="M12.4972 6.36116C12.4972 5.2804 12.8179 4.22391 13.4189 3.32529C14.0199 2.42666 14.8741 1.72628 15.8735 1.31269C16.8729 0.899096 17.9727 0.790882 19.0336 1.00173C20.0946 1.21257 21.0692 1.73301 21.8341 2.49722C22.599 3.26144 23.1199 4.23511 23.3309 5.2951C23.542 6.3551 23.4337 7.45381 23.0197 8.4523C22.6057 9.4508 21.9047 10.3042 21.0053 10.9047C20.1058 11.5051 19.0483 11.8256 17.9666 11.8256C16.516 11.8256 15.1248 11.2499 14.0991 10.2251C13.0734 9.20031 12.4972 7.81042 12.4972 6.36116ZM35.043 26.8098L26.204 16.7982C25.6907 16.2168 25.0595 15.7511 24.3522 15.4321C23.645 15.1131 22.8779 14.9481 22.1019 14.9481H13.8313C13.0553 14.9481 12.2882 15.1131 11.581 15.4321C10.8737 15.7511 10.2425 16.2168 9.72923 16.7982L0.89023 26.8098C0.316281 27.3965 -0.00349611 28.1854 2.88353e-05 29.0058C0.00355378 29.8261 0.330098 30.6122 0.909066 31.194C1.48804 31.7757 2.27291 32.1065 3.09402 32.1147C3.91513 32.123 4.70649 31.808 5.29703 31.238L10.3484 27.1845L6.50031 41.798C6.16552 42.5489 6.1406 43.4014 6.43097 44.1705C6.72133 44.9397 7.30356 45.5634 8.05131 45.9063C8.79906 46.2493 9.65201 46.2838 10.4251 46.0024C11.1982 45.7211 11.829 45.1465 12.1807 44.4033L17.9666 34.4639L23.7447 44.417C24.0964 45.1601 24.7272 45.7347 25.5003 46.0161C26.2734 46.2975 27.1263 46.2629 27.8741 45.92C28.6218 45.577 29.204 44.9533 29.4944 44.1842C29.7848 43.415 29.7599 42.5625 29.4251 41.8116L25.5847 27.1845L30.644 31.238C31.2345 31.808 32.0259 32.123 32.847 32.1147C33.6681 32.1065 34.453 31.7757 35.0319 31.194C35.6109 30.6122 35.9375 29.8261 35.941 29.0058C35.9445 28.1854 35.6247 27.3965 35.0508 26.8098H35.043Z" fill="#861D4E"/>
</svg>
