<svg width="145" height="145" viewBox="0 0 145 145" fill="none" xmlns="http://www.w3.org/2000/svg">
<path d="M85.8529 20.0716C90.0231 21.749 94.0325 24.1906 97.6937 27.06C100.742 29.4644 103.949 32.337 106.547 35.5782C108.405 37.897 109.952 40.4046 110.907 43.0646C112.373 47.1483 112.641 51.6794 112.423 55.9851C112.152 61.35 110.478 62.2793 107.4 56.9044C105.022 52.8566 101.495 50.66 97.4494 49.6249C88.7924 47.6298 76.035 48.2569 68.5294 53.7962C67.1815 54.791 65.9677 55.9032 64.7303 56.9618C64.0402 57.4392 64.3983 55.541 64.4613 55.1501C64.6734 53.8333 65.2433 52.194 65.6662 51.1789C66.8319 48.657 68.1556 46.7513 69.1497 45.4936C70.4025 43.8497 71.8105 42.5975 73.397 41.7117C76.8286 39.8934 80.4514 39.8076 83.7052 40.2428C88.8257 40.9277 93.7026 42.757 98.5948 44.3162C100.976 45.059 101.931 43.9591 101.076 41.9655C100.006 39.7433 98.2555 37.8678 96.6607 36.0031C93.1849 31.9225 89.2265 29.4567 85.6144 27.207L85.606 27.2016C83.5136 25.8981 81.5377 24.667 79.8397 23.2358C77.8354 21.5438 77.8091 19.5473 80.5557 19.2264C82.3699 19.0145 84.1698 19.3947 85.8529 20.0716Z" fill="#F26E22"/>
<path d="M52.3518 72.32C50.4225 67.1603 49.7748 63.6921 49.7748 58.317C49.7748 51.9522 50.8531 48.0637 52.9245 43.6072C54.5215 40.4976 56.3604 37.9495 59.367 36.2424C61.9845 34.871 63.2247 33.4402 58.138 32.4802C52.9491 31.7555 47.5568 31.973 42.3303 32.0089C38.3214 32.0089 38.9408 30.3772 41.0327 28.7556C42.7847 27.3973 45.6978 25.9168 48.2387 25.078C54.1363 23.2142 60.3733 22.1403 66.5253 22.2641C75.9902 22.4544 84.6657 25.737 91.6716 31.3268C94.8273 33.8446 97.6443 36.8305 100.042 40.2125C101.443 42.1887 102.6 45.4391 98.7383 44.3144C94.367 43.0347 89.986 41.4172 85.501 40.5765C75.3791 38.6798 70.5262 42.0608 66.5256 49.5476C65.4877 51.3203 64.8363 53.1246 64.4741 55.3468C63.4519 61.6187 64.9506 68.2181 65.2369 74.3002C65.3235 76.1559 65.0909 78.5439 63.2634 79.5337C59.9558 81.0951 57.2259 79.6958 55.2154 77.378C53.9347 75.9018 53.0224 74.1393 52.3518 72.32Z" fill="#F21D2F"/>
<path d="M48.7735 109.096C48.7735 109.096 42.4742 102.872 43.9058 99.9019C44.6765 98.9304 46.0525 99.0531 47.9149 99.6355C51.058 100.767 54.394 102.122 57.711 103.414C72.7554 108.83 79.7424 99.2618 81.2516 86.1065C74.1055 97.5006 50.5721 96.39 40.1826 89.1002C38.448 87.8833 37.5207 86.5445 36.8899 84.5233C36.4603 83.1475 36.0308 81.7972 35.0295 81.6558C32.5291 81.3958 31.9635 87.944 32.6541 94.3854C32.8167 95.9033 33.1464 97.3264 33.662 98.7703C38.377 111.976 53.8838 122.556 59.6536 123.708C65.8097 124.937 69.2458 121.967 59.9399 117.427C53.9268 113.622 52.7452 112.643 48.7735 109.096Z" fill="#0071BB"/>
<path d="M34.8162 81.6204C33.9412 81.6522 33.3106 82.2236 32.7378 84.4869C31.6457 89.5341 32.1354 93.785 32.0222 99.4798C31.9056 105.334 28.2277 103.805 26.8894 99.4798C20.992 80.4207 21.3307 58.1347 38.6078 45.0387C43.6038 41.2519 48.1342 40.3063 44.621 49.0281C43.0452 52.9542 41.6618 57.4003 40.9671 61.5731C39.7533 67.7965 41.5409 72.5574 46.7684 75.9574C56.2374 82.1163 64.5323 80.3484 77.12 78.5987C78.9812 78.4048 80.8615 79.5982 81.4378 82.0823C81.5538 83.1683 81.4783 84.4956 81.2687 86.0427C80.2201 87.945 78.0693 89.8973 75.2589 91.4624C73.9347 92.2226 72.4708 92.8094 70.9345 93.2564C65.1585 94.8247 59.4702 94.764 55.7879 94.347C50.1982 93.5281 46.3033 92.6063 42.8308 90.7103C39.7223 89.0129 37.9736 87.4315 36.8899 84.4869L36.884 84.4708C36.3392 82.9877 35.8105 81.549 34.8162 81.6204Z" fill="#BF2A70"/>
<path d="M67.6703 20.0223C72.9685 20.0223 77.285 15.7757 77.285 10.5111C77.285 5.2466 72.9685 1 67.6703 1C62.372 1 58.0555 5.2466 58.0555 10.5111C58.0555 15.7757 62.372 20.0223 67.6703 20.0223Z" fill="#F21D2F"/>
<path d="M20.712 44.3494C26.0103 44.3494 30.3268 40.1026 30.3268 34.8382C30.3268 29.5737 26.0103 25.3272 20.712 25.3272C15.4138 25.3272 11.0974 29.5737 11.0974 34.8382C11.0974 40.1026 15.4138 44.3494 20.712 44.3494Z" fill="#F7074E"/>
<path d="M10.4036 85.3688C15.7018 85.3688 20.0182 81.122 20.0182 75.8575C20.0182 70.5931 15.7018 66.3465 10.4036 66.3465C5.10532 66.3465 0.78894 70.5931 0.78894 75.8575C0.78894 81.122 5.10532 85.3688 10.4036 85.3688Z" fill="#BF2A70"/>
<path d="M31.5924 128.933C36.8906 128.933 41.2071 124.686 41.2071 119.421C41.2071 114.157 36.8906 109.91 31.5924 109.91C26.2941 109.91 21.9777 114.157 21.9777 119.421C21.9777 124.686 26.2941 128.933 31.5924 128.933Z" fill="#0071BB"/>
<path d="M75.1155 143.926C80.4138 143.926 84.7302 139.68 84.7302 134.415C84.7302 129.151 80.4138 124.904 75.1155 124.904C69.8172 124.904 65.501 129.151 65.501 134.415C65.501 139.68 69.8172 143.926 75.1155 143.926Z" fill="#05C7F2"/>
<path d="M134.101 81.9762C139.399 81.9762 143.716 77.7297 143.716 72.4652C143.716 67.2005 139.399 62.9539 134.101 62.9539C128.803 62.9539 124.486 67.2005 124.486 72.4652C124.486 77.7297 128.803 81.9762 134.101 81.9762Z" fill="#F2E205"/>
<path d="M113.771 36.1486C119.069 36.1486 123.386 31.9021 123.386 26.6376C123.386 21.3729 119.069 17.1263 113.771 17.1263C108.473 17.1263 104.156 21.3729 104.156 26.6376C104.156 31.9021 108.473 36.1486 113.771 36.1486Z" fill="#F26E22"/>
<path d="M104.894 114.19C106.755 117.726 82.8463 126.778 67.8137 121.121C52.7811 115.463 42.0073 103.583 43.9048 100.046C45.802 96.5083 57.7919 105.703 66.8117 104.996C80.0185 103.96 83.1183 86.1923 80.768 75.8588C78.8377 67.3724 80.7101 63.8886 84.4213 63.6232C91.5159 63.1158 94.2697 74.7584 95.159 79.6779C95.8746 83.6383 95.8746 86.6085 95.7315 89.4373C95.3834 96.319 92.5131 104.148 86.4256 107.955C84.554 109.125 83.5622 109.239 83.4441 110.371C83.3263 111.503 84.7379 112.247 87.5711 112.351C89.6194 112.426 103.806 110.827 104.894 114.19Z" fill="#05C7F2"/>
<path d="M56.7897 79.818C50.2041 78.8277 43.1889 74.7259 41.6141 70.0583C40.1288 66.5271 40.43 63.7436 41.6141 58.3186C42.7117 54.0692 43.5162 51.601 45.1253 47.7103C46.7357 43.1896 45.9232 40.7302 41.1846 43.3254C40.9179 43.4717 40.6305 43.6594 40.3255 43.8838C37.1027 45.7508 31.2253 51.2893 28.8658 55.9139C28.7728 56.0963 28.6693 56.2853 28.5566 56.4797C20.0918 70.747 17.8364 65.9713 21.4204 56.7625C26.5526 45.5902 36.2129 33.7939 49.345 32.2394C53.497 31.7274 66.6203 32.3572 59.6531 36.112C48.6178 42.2107 45.7659 65.6736 56.7897 79.818Z" fill="#F7074E"/>
<path d="M105.015 81.9391C105.487 79.2271 105.573 76.3503 104.562 73.7354C101.398 66.5699 94.084 63.5338 87.1418 63.0385C79.2965 62.5718 72.0856 65.6178 68.1006 65.3232C66.6314 65.2146 65.0489 64.4549 64.5697 62.9857C64.3327 62.2593 64.1783 61.4768 64.1447 60.6784C64.0781 59.9866 64.0907 59.286 64.219 58.6011C64.7895 56.5189 66.7015 55.0974 69.0063 53.4798C72.4714 51.0772 76.6867 49.7358 80.8425 49.1032C86.4184 48.2876 92.9213 48.376 98.3615 49.912C100.19 50.4182 101.88 51.2196 103.368 52.3774C105.857 54.0792 107.143 56.5153 108.725 58.9461C111.237 62.4908 112.355 59.3698 112.426 56.3086C112.548 53.9545 112.489 51.6151 112.292 49.2658C112.047 46.6291 111.664 43.9652 112.053 41.3449C112.608 37.6112 114.464 35.4901 117.492 40.6377C118.64 42.6907 119.661 45.476 120.263 47.1439C121.915 51.724 123.224 57.2072 123.452 62.9857C123.572 65.2953 123.48 67.6162 123.193 69.9164C122.539 75.1493 120.874 80.2734 118.389 84.9093C116.531 88.3766 114.227 91.5648 111.624 94.1675C108.427 97.5416 97.8228 106.743 101.459 94.9518C102.88 90.465 104.116 87.11 105.015 81.9391Z" fill="#F2E205"/>
<path d="M64.6642 67.7963C65.9528 67.6549 67.098 66.9477 67.6708 65.3919C66.096 65.1091 65.0937 64.2603 64.3297 62.7403C64.6642 67.6549 64.3297 62.9872 64.6642 67.7963Z" fill="#F26E22"/>
<path d="M63.5192 79.9594C64.404 78.5726 64.8965 78.2683 65.2372 76.5647C67.7115 76.745 68.1019 77.1085 68.8165 79.5349C66.5345 79.8205 65.8227 79.8067 63.5192 79.9594Z" fill="#F7074E"/>
<path d="M81.1289 80.1013C79.7429 78.7952 78.4804 78.4686 77.6928 78.5455C77.7184 76.804 78.7972 76.0063 80.6993 75.9994C81.029 77.5345 81.1148 78.5414 81.1289 80.1013Z" fill="#0071BB"/>
<path d="M85.6144 27.207C89.2265 29.4567 93.1849 31.9225 96.6607 36.0031C98.2555 37.8678 100.006 39.7433 101.076 41.9655C101.931 43.9591 100.976 45.059 98.5948 44.3162C93.7026 42.757 88.8257 40.9277 83.7052 40.2428C80.4514 39.8076 76.8286 39.8934 73.397 41.7117C71.8105 42.5975 70.4025 43.8497 69.1497 45.4936C68.1556 46.7513 66.8319 48.657 65.6662 51.1789C65.2433 52.194 64.6734 53.8333 64.4613 55.1501C64.3983 55.541 64.0402 57.4392 64.7303 56.9618C65.9677 55.9032 67.1815 54.791 68.5294 53.7962C76.035 48.2569 88.7924 47.6298 97.4494 49.6249C101.495 50.66 105.022 52.8566 107.4 56.9044C110.478 62.2793 112.152 61.35 112.423 55.9851C112.641 51.6794 112.373 47.1483 110.907 43.0646C109.952 40.4046 108.405 37.897 106.547 35.5782C103.949 32.337 100.742 29.4644 97.6937 27.06C94.0325 24.1906 90.0231 21.749 85.8529 20.0716C84.1698 19.3947 82.3699 19.0145 80.5557 19.2264C77.8091 19.5473 77.8354 21.5438 79.8397 23.2358C81.5377 24.667 83.5136 25.8981 85.606 27.2016M85.6144 27.207L85.606 27.2016M85.6144 27.207C85.6116 27.2052 85.6088 27.2034 85.606 27.2016M36.8899 84.4869C37.9736 87.4315 39.7223 89.0129 42.8308 90.7103C46.3033 92.6063 50.1982 93.5281 55.7879 94.347C59.4702 94.764 65.1585 94.8247 70.9345 93.2564C72.4708 92.8094 73.9347 92.2226 75.2589 91.4624C78.0693 89.8973 80.2201 87.945 81.2687 86.0427C81.4783 84.4956 81.5538 83.1683 81.4378 82.0823C80.8615 79.5982 78.9812 78.4048 77.12 78.5987C64.5323 80.3484 56.2374 82.1163 46.7684 75.9574C41.5409 72.5574 39.7533 67.7965 40.9671 61.5731C41.6618 57.4003 43.0452 52.9542 44.621 49.0281C48.1342 40.3063 43.6038 41.2519 38.6078 45.0387C21.3307 58.1347 20.992 80.4207 26.8894 99.4798C28.2277 103.805 31.9056 105.334 32.0222 99.4798C32.1354 93.785 31.6457 89.5341 32.7378 84.4869C33.3106 82.2236 33.9412 81.6522 34.8162 81.6204C35.8105 81.549 36.3392 82.9877 36.884 84.4708M36.8899 84.4869L36.884 84.4708M36.8899 84.4869C36.8878 84.4815 36.886 84.4761 36.884 84.4708M52.3518 72.32C50.4225 67.1603 49.7748 63.6921 49.7748 58.317C49.7748 51.9522 50.8531 48.0637 52.9245 43.6072C54.5215 40.4976 56.3604 37.9495 59.367 36.2424C61.9845 34.871 63.2247 33.4402 58.138 32.4802C52.9491 31.7555 47.5568 31.973 42.3303 32.0089C38.3214 32.0089 38.9408 30.3772 41.0327 28.7556C42.7847 27.3973 45.6978 25.9168 48.2387 25.078C54.1363 23.2142 60.3733 22.1403 66.5253 22.2641C75.9902 22.4544 84.6657 25.737 91.6716 31.3268C94.8273 33.8446 97.6443 36.8305 100.042 40.2125C101.443 42.1887 102.6 45.4391 98.7383 44.3144C94.367 43.0347 89.986 41.4172 85.501 40.5765C75.3791 38.6798 70.5262 42.0608 66.5256 49.5476C65.4877 51.3203 64.8363 53.1246 64.4741 55.3468C63.4519 61.6187 64.9506 68.2181 65.2369 74.3002C65.3235 76.1559 65.0909 78.5439 63.2634 79.5337C59.9558 81.0951 57.2259 79.6958 55.2154 77.378C53.9347 75.9018 53.0224 74.1393 52.3518 72.32ZM48.7735 109.096C48.7735 109.096 42.4742 102.872 43.9058 99.9019C44.6765 98.9304 46.0525 99.0531 47.9149 99.6355C51.058 100.767 54.394 102.122 57.711 103.414C72.7554 108.83 79.7424 99.2618 81.2516 86.1065C74.1055 97.5006 50.5721 96.39 40.1826 89.1002C38.448 87.8833 37.5207 86.5445 36.8899 84.5233C36.4603 83.1475 36.0308 81.7972 35.0295 81.6558C32.5291 81.3958 31.9635 87.944 32.6541 94.3854C32.8167 95.9033 33.1464 97.3264 33.662 98.7703C38.377 111.976 53.8838 122.556 59.6536 123.708C65.8097 124.937 69.2458 121.967 59.9399 117.427C53.9268 113.622 52.7452 112.643 48.7735 109.096ZM67.6703 20.0223C72.9685 20.0223 77.285 15.7757 77.285 10.5111C77.285 5.2466 72.9685 1 67.6703 1C62.372 1 58.0555 5.2466 58.0555 10.5111C58.0555 15.7757 62.372 20.0223 67.6703 20.0223ZM20.712 44.3494C26.0103 44.3494 30.3268 40.1026 30.3268 34.8382C30.3268 29.5737 26.0103 25.3272 20.712 25.3272C15.4138 25.3272 11.0974 29.5737 11.0974 34.8382C11.0974 40.1026 15.4138 44.3494 20.712 44.3494ZM10.4036 85.3688C15.7018 85.3688 20.0182 81.122 20.0182 75.8575C20.0182 70.5931 15.7018 66.3465 10.4036 66.3465C5.10532 66.3465 0.78894 70.5931 0.78894 75.8575C0.78894 81.122 5.10532 85.3688 10.4036 85.3688ZM31.5924 128.933C36.8906 128.933 41.2071 124.686 41.2071 119.421C41.2071 114.157 36.8906 109.91 31.5924 109.91C26.2941 109.91 21.9777 114.157 21.9777 119.421C21.9777 124.686 26.2941 128.933 31.5924 128.933ZM75.1155 143.926C80.4138 143.926 84.7302 139.68 84.7302 134.415C84.7302 129.151 80.4138 124.904 75.1155 124.904C69.8172 124.904 65.501 129.151 65.501 134.415C65.501 139.68 69.8172 143.926 75.1155 143.926ZM134.101 81.9762C139.399 81.9762 143.716 77.7297 143.716 72.4652C143.716 67.2005 139.399 62.9539 134.101 62.9539C128.803 62.9539 124.486 67.2005 124.486 72.4652C124.486 77.7297 128.803 81.9762 134.101 81.9762ZM113.771 36.1486C119.069 36.1486 123.386 31.9021 123.386 26.6376C123.386 21.3729 119.069 17.1263 113.771 17.1263C108.473 17.1263 104.156 21.3729 104.156 26.6376C104.156 31.9021 108.473 36.1486 113.771 36.1486ZM104.894 114.19C106.755 117.726 82.8463 126.778 67.8137 121.121C52.7811 115.463 42.0073 103.583 43.9048 100.046C45.802 96.5083 57.7919 105.703 66.8117 104.996C80.0185 103.96 83.1183 86.1923 80.768 75.8588C78.8377 67.3724 80.7101 63.8886 84.4213 63.6232C91.5159 63.1158 94.2697 74.7584 95.159 79.6779C95.8746 83.6383 95.8746 86.6085 95.7315 89.4373C95.3834 96.319 92.5131 104.148 86.4256 107.955C84.554 109.125 83.5622 109.239 83.4441 110.371C83.3263 111.503 84.7379 112.247 87.5711 112.351C89.6194 112.426 103.806 110.827 104.894 114.19ZM56.7897 79.818C50.2041 78.8277 43.1889 74.7259 41.6141 70.0583C40.1288 66.5271 40.43 63.7436 41.6141 58.3186C42.7117 54.0692 43.5162 51.601 45.1253 47.7103C46.7357 43.1896 45.9232 40.7302 41.1846 43.3254C40.9179 43.4717 40.6305 43.6594 40.3255 43.8838C37.1027 45.7508 31.2253 51.2893 28.8658 55.9139C28.7728 56.0963 28.6693 56.2853 28.5566 56.4797C20.0918 70.747 17.8364 65.9713 21.4204 56.7625C26.5526 45.5902 36.2129 33.7939 49.345 32.2394C53.497 31.7274 66.6203 32.3572 59.6531 36.112C48.6178 42.2107 45.7659 65.6736 56.7897 79.818ZM105.015 81.9391C105.487 79.2271 105.573 76.3503 104.562 73.7354C101.398 66.5699 94.084 63.5338 87.1418 63.0385C79.2965 62.5718 72.0856 65.6178 68.1006 65.3232C66.6314 65.2146 65.0489 64.4549 64.5697 62.9857C64.3327 62.2593 64.1783 61.4768 64.1447 60.6784C64.0781 59.9866 64.0907 59.286 64.219 58.6011C64.7894 56.5189 66.7015 55.0974 69.0063 53.4798C72.4714 51.0772 76.6867 49.7358 80.8425 49.1032C86.4184 48.2876 92.9213 48.376 98.3615 49.912C100.19 50.4182 101.88 51.2196 103.368 52.3774C105.857 54.0792 107.143 56.5153 108.725 58.9461C111.237 62.4908 112.355 59.3698 112.426 56.3086C112.548 53.9545 112.489 51.6151 112.292 49.2658C112.047 46.6291 111.664 43.9652 112.053 41.3449C112.608 37.6112 114.464 35.4901 117.492 40.6377C118.64 42.6907 119.661 45.476 120.263 47.1439C121.915 51.724 123.224 57.2072 123.452 62.9857C123.572 65.2953 123.48 67.6162 123.193 69.9164C122.539 75.1493 120.874 80.2734 118.389 84.9093C116.531 88.3766 114.227 91.5648 111.624 94.1675C108.427 97.5416 97.8228 106.743 101.459 94.9518C102.88 90.465 104.116 87.11 105.015 81.9391ZM64.6642 67.7963C65.9528 67.6549 67.098 66.9477 67.6708 65.3919C66.096 65.1091 65.0937 64.2603 64.3297 62.7403C64.6642 67.6549 64.3297 62.9872 64.6642 67.7963ZM63.5192 79.9594C64.404 78.5726 64.8965 78.2683 65.2372 76.5647C67.7115 76.7451 68.1019 77.1085 68.8165 79.5349C66.5345 79.8205 65.8227 79.8067 63.5192 79.9594ZM81.1289 80.1013C79.7429 78.7952 78.4804 78.4686 77.6928 78.5455C77.7184 76.804 78.7973 76.0063 80.6993 75.9994C81.029 77.5345 81.1148 78.5414 81.1289 80.1013Z" stroke="white" stroke-width="0.8"/>
</svg>
