<svg width="32" height="35" viewBox="0 0 32 35" fill="none" xmlns="http://www.w3.org/2000/svg">
<path d="M9.87631 26.2844L22.2664 14.4236C22.6185 14.0927 22.8992 13.6932 23.091 13.2498C23.2829 12.8063 23.3818 12.3282 23.3818 11.845C23.3818 11.3619 23.2829 10.8838 23.091 10.4403C22.8992 9.99685 22.6185 9.59737 22.2664 9.26653C21.5373 8.58073 20.5741 8.19888 19.5732 8.19888C18.5723 8.19888 17.6091 8.58073 16.8801 9.26653L4.57794 21.041C3.90862 21.6696 3.37517 22.4286 3.01051 23.2712C2.64586 24.1139 2.45773 25.0223 2.45773 25.9405C2.45773 26.8587 2.64586 27.7671 3.01051 28.6098C3.37517 29.4525 3.90862 30.2115 4.57794 30.84C7.40458 33.5457 11.9869 33.5457 14.8135 30.84L27.2962 18.8928C31.4608 14.9041 31.4608 8.44052 27.2962 4.45183C23.1301 0.464706 16.376 0.464706 12.2099 4.45183L2.15332 14.0781" stroke="black" stroke-width="2.35553" stroke-linecap="round"/>
</svg>
