<svg width="58" height="57" viewBox="0 0 58 57" fill="none" xmlns="http://www.w3.org/2000/svg">
<path d="M34.2099 8.04574C35.838 8.70062 37.4033 9.65384 38.8327 10.7741C40.0228 11.7128 41.2747 12.8343 42.289 14.0997C43.0146 15.005 43.6186 15.984 43.9914 17.0225C44.5637 18.6168 44.6682 20.3858 44.5832 22.0668C44.4772 24.1613 43.8237 24.5241 42.6221 22.4257C41.6937 20.8454 40.3168 19.9878 38.7373 19.5837C35.3575 18.8048 30.3769 19.0496 27.4466 21.2122C26.9204 21.6006 26.4465 22.0348 25.9634 22.4481C25.694 22.6345 25.8338 21.8934 25.8584 21.7408C25.9412 21.2267 26.1637 20.5867 26.3288 20.1904C26.7839 19.2058 27.3007 18.4618 27.6888 17.9708C28.1779 17.329 28.7276 16.8401 29.347 16.4943C30.6867 15.7844 32.1011 15.7509 33.3714 15.9208C35.3705 16.1882 37.2745 16.9024 39.1845 17.5111C40.1141 17.8011 40.487 17.3717 40.153 16.5934C39.7356 15.7258 39.052 14.9936 38.4294 14.2656C37.0724 12.6725 35.527 11.7098 34.1168 10.8315L34.1135 10.8294C33.2966 10.3205 32.5252 9.83983 31.8623 9.28106C31.0798 8.6205 31.0695 7.84104 32.1418 7.71578C32.8501 7.63302 33.5528 7.78146 34.2099 8.04574Z" fill="#F26E22"/>
<path d="M21.1307 28.4441C20.3775 26.4297 20.1246 25.0757 20.1246 22.9772C20.1246 20.4923 20.5456 18.9742 21.3543 17.2343C21.9778 16.0203 22.6957 15.0255 23.8695 14.359C24.8914 13.8236 25.3756 13.265 23.3897 12.8902C21.3639 12.6073 19.2587 12.6922 17.2182 12.7062C15.6531 12.7062 15.8949 12.0692 16.7116 11.4361C17.3956 10.9058 18.5329 10.3278 19.5249 10.0003C21.8274 9.27265 24.2624 8.85338 26.6642 8.9017C30.3594 8.97603 33.7464 10.2576 36.4816 12.4399C37.7136 13.4229 38.8134 14.5886 39.7495 15.909C40.2965 16.6805 40.7482 17.9495 39.2405 17.5104C37.5339 17.0108 35.8235 16.3793 34.0725 16.0511C30.1208 15.3106 28.2262 16.6306 26.6643 19.5535C26.2591 20.2456 26.0048 20.95 25.8634 21.8176C25.4643 24.2662 26.0494 26.8427 26.1612 29.2172C26.195 29.9417 26.1042 30.874 25.3907 31.2604C24.0994 31.87 23.0336 31.3237 22.2487 30.4188C21.7487 29.8425 21.3925 29.1544 21.1307 28.4441Z" fill="#F21D2F"/>
<path d="M19.7337 42.8017C19.7337 42.8017 17.2744 40.372 17.8333 39.2124C18.1342 38.8331 18.6714 38.881 19.3985 39.1084C20.6256 39.5502 21.928 40.079 23.223 40.5835C29.0965 42.6981 31.8243 38.9625 32.4135 33.8265C29.6236 38.2749 20.4359 37.8413 16.3797 34.9953C15.7025 34.5202 15.3405 33.9975 15.0942 33.2084C14.9265 32.6713 14.7588 32.1441 14.3679 32.0889C13.3917 31.9874 13.1709 34.5439 13.4405 37.0587C13.504 37.6513 13.6327 38.2069 13.834 38.7706C15.6748 43.9261 21.7288 48.0568 23.9814 48.5066C26.3848 48.9865 27.7263 47.8268 24.0932 46.0544C21.7456 44.5688 21.2843 44.1868 19.7337 42.8017Z" fill="#0071BB"/>
<path d="M14.2846 32.0751C13.943 32.0875 13.6968 32.3106 13.4732 33.1942C13.0468 35.1647 13.238 36.8243 13.1938 39.0476C13.1483 41.333 11.7124 40.7362 11.1899 39.0476C8.88749 31.6067 9.01973 22.906 15.7649 17.7932C17.7154 16.3148 19.4841 15.9456 18.1125 19.3507C17.4973 20.8835 16.9572 22.6193 16.686 24.2484C16.2121 26.6781 16.91 28.5368 18.9509 29.8642C22.6477 32.2687 25.8861 31.5785 30.8005 30.8954C31.5271 30.8197 32.2612 31.2856 32.4862 32.2554C32.5315 32.6794 32.502 33.1976 32.4202 33.8016C32.0108 34.5443 31.1711 35.3065 30.0739 35.9175C29.5569 36.2143 28.9854 36.4434 28.3856 36.6179C26.1306 37.2302 23.9098 37.2065 22.4722 37.0437C20.2899 36.724 18.7693 36.3641 17.4136 35.6239C16.2 34.9612 15.5173 34.3438 15.0942 33.1942L15.0919 33.1879C14.8792 32.6089 14.6728 32.0472 14.2846 32.0751Z" fill="#BF2A70"/>
<path d="M27.1112 8.02649C29.1797 8.02649 30.8649 6.36856 30.8649 4.31323C30.8649 2.2579 29.1797 0.599976 27.1112 0.599976C25.0427 0.599976 23.3575 2.2579 23.3575 4.31323C23.3575 6.36856 25.0427 8.02649 27.1112 8.02649Z" fill="#F21D2F"/>
<path d="M8.77819 17.5241C10.8467 17.5241 12.5319 15.8661 12.5319 13.8108C12.5319 11.7555 10.8467 10.0976 8.77819 10.0976C6.70969 10.0976 5.02454 11.7555 5.02454 13.8108C5.02454 15.8661 6.70969 17.5241 8.77819 17.5241Z" fill="#F7074E"/>
<path d="M4.75366 33.5385C6.82216 33.5385 8.50732 31.8805 8.50732 29.8252C8.50732 27.7699 6.82216 26.112 4.75366 26.112C2.68516 26.112 1 27.7699 1 29.8252C1 31.8805 2.68516 33.5385 4.75366 33.5385Z" fill="#BF2A70"/>
<path d="M13.026 50.5463C15.0945 50.5463 16.7797 48.8884 16.7797 46.833C16.7797 44.7777 15.0945 43.1198 13.026 43.1198C10.9575 43.1198 9.27234 44.7777 9.27234 46.833C9.27234 48.8884 10.9575 50.5463 13.026 50.5463Z" fill="#0071BB"/>
<path d="M30.0179 56.4C32.0864 56.4 33.7716 54.7421 33.7716 52.6868C33.7716 50.6315 32.0864 48.9735 30.0179 48.9735C27.9494 48.9735 26.2643 50.6315 26.2643 52.6868C26.2643 54.7421 27.9494 56.4 30.0179 56.4Z" fill="#05C7F2"/>
<path d="M53.0465 32.214C55.115 32.214 56.8002 30.5561 56.8002 28.5008C56.8002 26.4454 55.115 24.7875 53.0465 24.7875C50.978 24.7875 49.2928 26.4454 49.2928 28.5008C49.2928 30.5561 50.978 32.214 53.0465 32.214Z" fill="#F2E205"/>
<path d="M45.1095 14.3224C47.178 14.3224 48.8632 12.6645 48.8632 10.6092C48.8632 8.55379 47.178 6.89588 45.1095 6.89588C43.041 6.89588 41.3558 8.55379 41.3558 10.6092C41.3558 12.6645 43.041 14.3224 45.1095 14.3224Z" fill="#F26E22"/>
<path d="M41.6439 44.7906C42.3705 46.1711 33.0361 49.7052 27.1672 47.4964C21.2983 45.2876 17.0921 40.6495 17.8329 39.2685C18.5736 37.8875 23.2546 41.4773 26.776 41.2012C31.9321 40.7969 33.1423 33.86 32.2247 29.8257C31.4711 26.5125 32.2021 25.1524 33.651 25.0488C36.4208 24.8507 37.4959 29.3961 37.8431 31.3167C38.1225 32.8629 38.1225 34.0225 38.0666 35.1269C37.9307 37.8136 36.8101 40.8701 34.4335 42.3564C33.7028 42.8133 33.3156 42.8578 33.2695 43.2996C33.2235 43.7414 33.7746 44.0321 34.8807 44.0727C35.6804 44.1021 41.219 43.4777 41.6439 44.7906Z" fill="#05C7F2"/>
<path d="M22.8633 31.3714C20.2922 30.9848 17.5534 29.3834 16.9386 27.5611C16.3587 26.1825 16.4763 25.0958 16.9386 22.9778C17.3671 21.3188 17.6812 20.3552 18.3094 18.8362C18.9381 17.0713 18.6209 16.1111 16.7709 17.1243C16.6668 17.1814 16.5546 17.2547 16.4355 17.3423C15.1773 18.0712 12.8827 20.2335 11.9615 22.039C11.9252 22.1102 11.8848 22.184 11.8408 22.2599C8.53605 27.83 7.65553 25.9655 9.05473 22.3703C11.0584 18.0085 14.8299 13.4031 19.9568 12.7962C21.5778 12.5963 26.7013 12.8422 23.9812 14.3081C19.6729 16.6891 18.5595 25.8493 22.8633 31.3714Z" fill="#F7074E"/>
<path d="M41.6911 32.1995C41.8753 31.1407 41.909 30.0176 41.5142 28.9967C40.2789 26.1992 37.4234 25.0139 34.7131 24.8205C31.6502 24.6383 28.835 25.8275 27.2792 25.7125C26.7056 25.6701 26.0878 25.3735 25.9007 24.7999C25.8082 24.5163 25.7479 24.2108 25.7348 23.8991C25.7088 23.629 25.7137 23.3555 25.7638 23.0881C25.9865 22.2752 26.733 21.7202 27.6328 21.0887C28.9856 20.1507 30.6313 19.627 32.2538 19.38C34.4307 19.0616 36.9695 19.0961 39.0934 19.6958C39.8072 19.8934 40.4672 20.2063 41.048 20.6583C42.0199 21.3227 42.5216 22.2738 43.1396 23.2228C44.12 24.6067 44.5567 23.3882 44.5842 22.1931C44.6318 21.274 44.6088 20.3607 44.5319 19.4435C44.4362 18.4141 44.2867 17.3741 44.4387 16.3511C44.6554 14.8934 45.3801 14.0653 46.562 16.075C47.0103 16.8765 47.4089 17.9639 47.6439 18.6151C48.289 20.4032 48.8001 22.5439 48.889 24.7999C48.936 25.7016 48.9001 26.6077 48.788 27.5057C48.5327 29.5487 47.8824 31.5492 46.9125 33.3591C46.1871 34.7128 45.2875 35.9575 44.2711 36.9736C43.0232 38.2909 38.8831 41.8834 40.3026 37.2798C40.8573 35.5281 41.3399 34.2183 41.6911 32.1995Z" fill="#F2E205"/>
<path d="M25.9376 26.678C26.4407 26.6228 26.8878 26.3467 27.1114 25.7393C26.4966 25.6289 26.1053 25.2975 25.807 24.7041C25.9376 26.6228 25.807 24.8005 25.9376 26.678Z" fill="#F26E22"/>
<path d="M25.4906 31.4266C25.836 30.8852 26.0283 30.7664 26.1613 30.1013C27.1273 30.1717 27.2797 30.3136 27.5587 31.2609C26.6678 31.3724 26.3899 31.367 25.4906 31.4266Z" fill="#F7074E"/>
<path d="M32.3656 31.482C31.8245 30.9721 31.3316 30.8446 31.0241 30.8746C31.0341 30.1947 31.4553 29.8833 32.1979 29.8806C32.3266 30.4799 32.3601 30.873 32.3656 31.482Z" fill="#0071BB"/>
<path d="M34.1168 10.8315C35.527 11.7098 37.0724 12.6725 38.4294 14.2656C39.052 14.9936 39.7356 15.7258 40.153 16.5934C40.487 17.3717 40.1141 17.8011 39.1845 17.5111C37.2745 16.9024 35.3705 16.1882 33.3714 15.9208C32.1011 15.7509 30.6867 15.7844 29.347 16.4943C28.7276 16.8401 28.1779 17.329 27.6888 17.9708C27.3007 18.4618 26.7839 19.2058 26.3288 20.1904C26.1637 20.5867 25.9412 21.2267 25.8584 21.7408C25.8338 21.8934 25.694 22.6345 25.9634 22.4481C26.4465 22.0348 26.9204 21.6006 27.4466 21.2122C30.3769 19.0496 35.3575 18.8048 38.7373 19.5837C40.3168 19.9878 41.6937 20.8454 42.6221 22.4257C43.8237 24.5241 44.4772 24.1613 44.5832 22.0668C44.6682 20.3858 44.5637 18.6168 43.9914 17.0225C43.6186 15.984 43.0146 15.005 42.289 14.0997C41.2747 12.8343 40.0228 11.7128 38.8327 10.7741C37.4033 9.65384 35.838 8.70062 34.2099 8.04574C33.5528 7.78145 32.8501 7.63302 32.1418 7.71578C31.0695 7.84105 31.0798 8.6205 31.8623 9.28106C32.5252 9.83983 33.2966 10.3205 34.1135 10.8294M34.1168 10.8315L34.1135 10.8294M34.1168 10.8315C34.1157 10.8308 34.1146 10.8301 34.1135 10.8294M15.0942 33.1942C15.5173 34.3438 16.2 34.9612 17.4136 35.6239C18.7693 36.3641 20.2899 36.724 22.4722 37.0437C23.9098 37.2065 26.1306 37.2302 28.3856 36.6179C28.9854 36.4434 29.5569 36.2143 30.0739 35.9175C31.1711 35.3065 32.0108 34.5443 32.4202 33.8016C32.502 33.1976 32.5315 32.6794 32.4862 32.2554C32.2612 31.2856 31.5271 30.8197 30.8005 30.8954C25.8861 31.5785 22.6477 32.2687 18.9509 29.8642C16.91 28.5368 16.2121 26.6781 16.686 24.2484C16.9572 22.6193 17.4973 20.8835 18.1125 19.3507C19.4841 15.9456 17.7154 16.3148 15.7649 17.7932C9.01973 22.906 8.88749 31.6067 11.1899 39.0476C11.7124 40.7362 13.1483 41.333 13.1938 39.0476C13.238 36.8243 13.0468 35.1647 13.4732 33.1942C13.6968 32.3106 13.943 32.0875 14.2846 32.0751C14.6728 32.0472 14.8792 32.6089 15.0919 33.1879M15.0942 33.1942L15.0919 33.1879M15.0942 33.1942C15.0934 33.1921 15.0927 33.19 15.0919 33.1879M21.1307 28.4441C20.3775 26.4297 20.1246 25.0757 20.1246 22.9772C20.1246 20.4923 20.5456 18.9742 21.3543 17.2343C21.9778 16.0203 22.6957 15.0255 23.8695 14.359C24.8914 13.8236 25.3756 13.265 23.3897 12.8902C21.3639 12.6073 19.2587 12.6922 17.2182 12.7062C15.6531 12.7062 15.8949 12.0692 16.7116 11.4361C17.3956 10.9058 18.5329 10.3278 19.5249 10.0003C21.8274 9.27265 24.2624 8.85338 26.6642 8.9017C30.3594 8.97603 33.7464 10.2576 36.4816 12.4399C37.7136 13.4229 38.8134 14.5886 39.7495 15.909C40.2965 16.6805 40.7482 17.9495 39.2405 17.5104C37.5339 17.0108 35.8235 16.3793 34.0725 16.0511C30.1208 15.3106 28.2262 16.6306 26.6643 19.5535C26.2591 20.2456 26.0048 20.95 25.8634 21.8176C25.4643 24.2662 26.0494 26.8427 26.1612 29.2172C26.195 29.9417 26.1042 30.874 25.3907 31.2604C24.0994 31.87 23.0336 31.3237 22.2487 30.4188C21.7487 29.8425 21.3925 29.1544 21.1307 28.4441ZM19.7337 42.8017C19.7337 42.8017 17.2744 40.372 17.8333 39.2124C18.1342 38.8331 18.6714 38.881 19.3985 39.1084C20.6256 39.5502 21.928 40.079 23.223 40.5835C29.0965 42.6981 31.8243 38.9625 32.4135 33.8265C29.6236 38.2749 20.4359 37.8413 16.3797 34.9953C15.7025 34.5202 15.3405 33.9975 15.0942 33.2084C14.9265 32.6713 14.7588 32.1441 14.3679 32.0889C13.3917 31.9874 13.1709 34.5439 13.4405 37.0587C13.504 37.6513 13.6327 38.2069 13.834 38.7706C15.6748 43.9261 21.7288 48.0568 23.9814 48.5066C26.3848 48.9865 27.7263 47.8268 24.0932 46.0544C21.7456 44.5688 21.2843 44.1868 19.7337 42.8017ZM27.1112 8.02649C29.1797 8.02649 30.8649 6.36856 30.8649 4.31323C30.8649 2.2579 29.1797 0.599976 27.1112 0.599976C25.0427 0.599976 23.3575 2.2579 23.3575 4.31323C23.3575 6.36856 25.0427 8.02649 27.1112 8.02649ZM8.77819 17.5241C10.8467 17.5241 12.5319 15.8661 12.5319 13.8108C12.5319 11.7555 10.8467 10.0976 8.77819 10.0976C6.70969 10.0976 5.02454 11.7555 5.02454 13.8108C5.02454 15.8661 6.70969 17.5241 8.77819 17.5241ZM4.75366 33.5385C6.82216 33.5385 8.50732 31.8805 8.50732 29.8252C8.50732 27.7699 6.82216 26.112 4.75366 26.112C2.68516 26.112 1 27.7699 1 29.8252C1 31.8805 2.68516 33.5385 4.75366 33.5385ZM13.026 50.5463C15.0945 50.5463 16.7797 48.8884 16.7797 46.833C16.7797 44.7777 15.0945 43.1198 13.026 43.1198C10.9575 43.1198 9.27234 44.7777 9.27234 46.833C9.27234 48.8884 10.9575 50.5463 13.026 50.5463ZM30.0179 56.4C32.0864 56.4 33.7716 54.7421 33.7716 52.6868C33.7716 50.6315 32.0864 48.9735 30.0179 48.9735C27.9494 48.9735 26.2643 50.6315 26.2643 52.6868C26.2643 54.7421 27.9494 56.4 30.0179 56.4ZM53.0465 32.214C55.115 32.214 56.8002 30.5561 56.8002 28.5008C56.8002 26.4454 55.115 24.7875 53.0465 24.7875C50.978 24.7875 49.2928 26.4454 49.2928 28.5008C49.2928 30.5561 50.978 32.214 53.0465 32.214ZM45.1095 14.3224C47.178 14.3224 48.8632 12.6645 48.8632 10.6092C48.8632 8.55379 47.178 6.89588 45.1095 6.89588C43.041 6.89588 41.3558 8.55379 41.3558 10.6092C41.3558 12.6645 43.041 14.3224 45.1095 14.3224ZM41.6439 44.7906C42.3705 46.1711 33.0361 49.7052 27.1672 47.4964C21.2983 45.2876 17.0921 40.6495 17.8329 39.2685C18.5736 37.8875 23.2546 41.4773 26.776 41.2012C31.9321 40.7969 33.1423 33.86 32.2247 29.8257C31.4711 26.5125 32.2021 25.1524 33.651 25.0488C36.4208 24.8507 37.4959 29.3961 37.8431 31.3167C38.1225 32.8629 38.1225 34.0225 38.0666 35.1269C37.9307 37.8136 36.8101 40.8701 34.4335 42.3564C33.7028 42.8133 33.3156 42.8578 33.2695 43.2996C33.2235 43.7414 33.7746 44.0321 34.8807 44.0727C35.6804 44.1021 41.219 43.4777 41.6439 44.7906ZM22.8633 31.3714C20.2922 30.9848 17.5534 29.3834 16.9386 27.5611C16.3587 26.1825 16.4763 25.0958 16.9386 22.9778C17.3671 21.3188 17.6812 20.3552 18.3094 18.8362C18.9381 17.0713 18.6209 16.1111 16.7709 17.1243C16.6668 17.1814 16.5546 17.2547 16.4355 17.3423C15.1773 18.0712 12.8827 20.2335 11.9615 22.039C11.9252 22.1102 11.8848 22.184 11.8408 22.2599C8.53605 27.83 7.65553 25.9655 9.05473 22.3703C11.0584 18.0085 14.8299 13.4031 19.9568 12.7962C21.5778 12.5963 26.7013 12.8422 23.9812 14.3081C19.6729 16.6891 18.5595 25.8493 22.8633 31.3714ZM41.6911 32.1995C41.8753 31.1407 41.909 30.0176 41.5142 28.9967C40.2789 26.1992 37.4234 25.0139 34.7131 24.8205C31.6502 24.6383 28.835 25.8275 27.2792 25.7125C26.7056 25.6701 26.0878 25.3735 25.9007 24.7999C25.8082 24.5163 25.7479 24.2108 25.7348 23.8991C25.7088 23.629 25.7137 23.3555 25.7638 23.0881C25.9865 22.2752 26.733 21.7202 27.6328 21.0887C28.9856 20.1507 30.6313 19.627 32.2538 19.38C34.4307 19.0616 36.9695 19.0961 39.0934 19.6958C39.8072 19.8934 40.4672 20.2063 41.048 20.6583C42.0199 21.3227 42.5216 22.2738 43.1396 23.2228C44.12 24.6067 44.5567 23.3882 44.5842 22.1931C44.6318 21.274 44.6088 20.3607 44.5319 19.4435C44.4362 18.4141 44.2867 17.3741 44.4387 16.3511C44.6554 14.8934 45.3801 14.0653 46.562 16.075C47.0103 16.8765 47.4089 17.9639 47.6439 18.6151C48.289 20.4032 48.8001 22.5439 48.889 24.7999C48.936 25.7016 48.9001 26.6077 48.788 27.5057C48.5327 29.5487 47.8824 31.5492 46.9125 33.3591C46.1871 34.7128 45.2875 35.9575 44.2711 36.9736C43.0232 38.2909 38.8831 41.8834 40.3026 37.2798C40.8573 35.5281 41.3399 34.2183 41.6911 32.1995ZM25.9376 26.678C26.4407 26.6228 26.8878 26.3467 27.1114 25.7393C26.4966 25.6289 26.1053 25.2975 25.807 24.7041C25.9376 26.6228 25.807 24.8005 25.9376 26.678ZM25.4906 31.4266C25.836 30.8852 26.0283 30.7664 26.1613 30.1013C27.1273 30.1717 27.2797 30.3136 27.5587 31.2609C26.6678 31.3724 26.3899 31.367 25.4906 31.4266ZM32.3656 31.482C31.8245 30.9721 31.3316 30.8446 31.0241 30.8746C31.0341 30.1947 31.4553 29.8833 32.1979 29.8806C32.3266 30.4799 32.3601 30.873 32.3656 31.482Z" stroke="white" stroke-width="0.8"/>
</svg>
