<svg width="136" height="136" viewBox="0 0 136 136" fill="none" xmlns="http://www.w3.org/2000/svg">
<path d="M80.8555 18.4792C84.7973 20.0647 88.5869 22.3725 92.0476 25.0847C94.9289 27.3573 97.9598 30.0725 100.415 33.1361C102.172 35.3279 103.635 37.6981 104.537 40.2124C105.923 44.0723 106.176 48.3551 105.97 52.4249C105.713 57.4958 104.131 58.3741 101.222 53.2938C98.9742 49.4678 95.6407 47.3915 91.8166 46.4132C83.634 44.5274 71.5757 45.1201 64.4812 50.3559C63.2073 51.2962 62.06 52.3474 60.8903 53.348C60.2381 53.7993 60.5766 52.0051 60.6361 51.6356C60.8366 50.391 61.3753 48.8415 61.775 47.882C62.8768 45.4983 64.128 43.697 65.0676 42.5083C66.2518 40.9544 67.5826 39.7708 69.0822 38.9336C72.3257 37.2149 75.75 37.1338 78.8255 37.5451C83.6654 38.1925 88.2751 39.9216 92.8993 41.3953C95.1499 42.0974 96.0527 41.0578 95.2441 39.1735C94.2336 37.073 92.5785 35.3003 91.0712 33.5378C87.7858 29.6808 84.0443 27.35 80.6302 25.2236L80.6222 25.2186C78.6444 23.9865 76.7768 22.8228 75.1719 21.47C73.2774 19.8707 73.2525 17.9836 75.8486 17.6804C77.5634 17.48 79.2647 17.8394 80.8555 18.4792Z" fill="#F26E22"/>
<path d="M49.1901 67.8647C47.3666 62.9877 46.7543 59.7096 46.7543 54.629C46.7543 48.6129 47.7736 44.9375 49.7315 40.7252C51.241 37.786 52.9791 35.3775 55.8209 33.7639C58.295 32.4677 59.4672 31.1153 54.6593 30.2079C49.7547 29.5229 44.6579 29.7285 39.7178 29.7624C35.9286 29.7624 36.514 28.2202 38.4912 26.6874C40.1472 25.4035 42.9007 24.0042 45.3024 23.2113C50.8769 21.4496 56.7721 20.4346 62.587 20.5515C71.5333 20.7315 79.7334 23.8342 86.3555 29.1177C89.3382 31.4976 92.0009 34.3198 94.2672 37.5165C95.5915 39.3844 96.6851 42.4567 93.0349 41.3936C88.9031 40.1841 84.7622 38.6552 80.5229 37.8606C70.9556 36.0678 66.3687 39.2636 62.5873 46.3401C61.6062 48.0157 60.9906 49.7211 60.6482 51.8216C59.682 57.7498 61.0986 63.9876 61.3692 69.7364C61.4511 71.4904 61.2312 73.7476 59.5038 74.6831C56.3775 76.159 53.7971 74.8363 51.8969 72.6455C50.6863 71.2503 49.824 69.5843 49.1901 67.8647Z" fill="#F21D2F"/>
<path d="M45.8079 102.625C45.8079 102.625 39.8538 96.7427 41.2069 93.9353C41.9354 93.017 43.236 93.133 44.9964 93.6835C47.9673 94.7531 51.1204 96.0334 54.2557 97.2548C68.4757 102.374 75.0799 93.3303 76.5064 80.8957C69.7519 91.6656 47.508 90.6158 37.6877 83.7255C36.0482 82.5752 35.1717 81.3097 34.5754 79.3993C34.1694 78.0989 33.7634 76.8226 32.817 76.6889C30.4536 76.4432 29.919 82.6326 30.5717 88.7211C30.7255 90.1558 31.0371 91.5009 31.5244 92.8657C35.9811 105.347 50.6382 115.348 56.0918 116.437C61.9106 117.599 65.1584 114.791 56.3625 110.5C50.6788 106.903 49.562 105.979 45.8079 102.625Z" fill="#0071BB"/>
<path d="M32.6154 76.6555C31.7883 76.6855 31.1923 77.2257 30.6509 79.3649C29.6186 84.1356 30.0815 88.1536 29.9745 93.5363C29.8643 99.0694 26.3879 97.6245 25.1229 93.5363C19.5487 75.5215 19.8688 54.4566 36.1992 42.0783C40.9215 38.499 45.2036 37.6051 41.8829 45.8491C40.3935 49.5601 39.0859 53.7625 38.4293 57.7067C37.2819 63.5891 38.9716 68.0891 43.9127 71.3028C52.8629 77.1242 60.7032 75.4532 72.6012 73.7994C74.3604 73.6161 76.1376 74.7441 76.6824 77.092C76.7921 78.1186 76.7206 79.3731 76.5226 80.8355C75.5314 82.6336 73.4985 84.4789 70.8421 85.9582C69.5904 86.6767 68.2068 87.2314 66.7546 87.6539C61.2951 89.1363 55.9185 89.0789 52.438 88.6848C47.1545 87.9107 43.473 87.0394 40.1908 85.2473C37.2526 83.6429 35.5998 82.1481 34.5754 79.3649L34.5699 79.3497C34.0549 77.9479 33.5552 76.588 32.6154 76.6555Z" fill="#BF2A70"/>
<path d="M63.6692 18.4326C68.6772 18.4326 72.7571 14.4187 72.7571 9.44261C72.7571 4.46655 68.6772 0.452637 63.6692 0.452637C58.6613 0.452637 54.5813 4.46655 54.5813 9.44261C54.5813 14.4187 58.6613 18.4326 63.6692 18.4326Z" fill="#F21D2F"/>
<path d="M19.284 41.4268C24.292 41.4268 28.372 37.4127 28.372 32.4367C28.372 27.4607 24.292 23.4468 19.284 23.4468C14.2761 23.4468 10.1963 27.4607 10.1963 32.4367C10.1963 37.4127 14.2761 41.4268 19.284 41.4268Z" fill="#F7074E"/>
<path d="M9.54045 80.1985C14.5484 80.1985 18.6283 76.1844 18.6283 71.2084C18.6283 66.2324 14.5484 62.2185 9.54045 62.2185C4.5325 62.2185 0.452637 66.2324 0.452637 71.2084C0.452637 76.1844 4.5325 80.1985 9.54045 80.1985Z" fill="#BF2A70"/>
<path d="M29.5682 121.375C34.5762 121.375 38.6561 117.361 38.6561 112.385C38.6561 107.409 34.5762 103.395 29.5682 103.395C24.5603 103.395 20.4804 107.409 20.4804 112.385C20.4804 117.361 24.5603 121.375 29.5682 121.375Z" fill="#0071BB"/>
<path d="M70.7065 135.547C75.7145 135.547 79.7944 131.534 79.7944 126.558C79.7944 121.582 75.7145 117.567 70.7065 117.567C65.6986 117.567 61.6188 121.582 61.6188 126.558C61.6188 131.534 65.6986 135.547 70.7065 135.547Z" fill="#05C7F2"/>
<path d="M126.46 76.9918C131.468 76.9918 135.548 72.9779 135.548 68.0019C135.548 63.0257 131.468 59.0118 126.46 59.0118C121.452 59.0118 117.372 63.0257 117.372 68.0019C117.372 72.9779 121.452 76.9918 126.46 76.9918Z" fill="#F2E205"/>
<path d="M107.244 33.6753C112.252 33.6753 116.332 29.6614 116.332 24.6854C116.332 19.7093 112.252 15.6953 107.244 15.6953C102.236 15.6953 98.1562 19.7093 98.1562 24.6854C98.1562 29.6614 102.236 33.6753 107.244 33.6753Z" fill="#F26E22"/>
<path d="M98.8537 107.44C100.613 110.783 78.0137 119.339 63.8048 113.991C49.5959 108.644 39.4125 97.4146 41.206 94.0711C42.9992 90.7276 54.3322 99.4187 62.8577 98.7503C75.3409 97.7714 78.2708 80.9768 76.0493 71.2096C74.2248 63.1882 75.9946 59.8953 79.5024 59.6445C86.2083 59.1649 88.8111 70.1695 89.6517 74.8194C90.3282 78.5628 90.3282 81.3703 90.1928 84.0441C89.8638 90.5487 87.1508 97.9487 81.3969 101.547C79.6278 102.653 78.6904 102.761 78.5788 103.831C78.4674 104.9 79.8017 105.604 82.4796 105.702C84.4157 105.774 97.825 104.262 98.8537 107.44Z" fill="#05C7F2"/>
<path d="M53.3848 74.9518C47.1601 74.0158 40.5293 70.1388 39.0408 65.7269C37.6369 62.3892 37.9216 59.7583 39.0408 54.6305C40.0783 50.6139 40.8387 48.281 42.3596 44.6034C43.8817 40.3305 43.1138 38.0058 38.6348 40.4588C38.3828 40.5971 38.1111 40.7745 37.8228 40.9866C34.7766 42.7513 29.2213 47.9864 26.991 52.3576C26.9031 52.53 26.8053 52.7086 26.6988 52.8924C18.6978 66.3779 16.566 61.8638 19.9536 53.1597C24.8046 42.5995 33.9356 31.4496 46.348 29.9803C50.2726 29.4963 62.6768 30.0916 56.0913 33.6407C45.6607 39.4052 42.9651 61.5825 53.3848 74.9518Z" fill="#F7074E"/>
<path d="M98.9679 76.9567C99.4139 74.3933 99.4955 71.6742 98.5396 69.2025C95.5489 62.4296 88.6356 59.56 82.0738 59.0917C74.6584 58.6506 67.8426 61.5297 64.076 61.2513C62.6872 61.1487 61.1915 60.4306 60.7385 59.0419C60.5146 58.3553 60.3686 57.6156 60.3369 56.861C60.2739 56.2071 60.2858 55.5449 60.4071 54.8975C60.9463 52.9294 62.7536 51.5858 64.932 50.0569C68.2072 47.7859 72.1916 46.518 76.1197 45.92C81.3901 45.1491 87.5367 45.2327 92.6788 46.6846C94.4069 47.163 96.0048 47.9205 97.4109 49.0148C99.764 50.6234 100.979 52.926 102.475 55.2236C104.848 58.5741 105.906 55.6241 105.972 52.7307C106.088 50.5055 106.032 48.2943 105.846 46.0737C105.614 43.5815 105.252 41.0636 105.62 38.5869C106.145 35.0577 107.899 33.0528 110.761 37.9184C111.846 39.8589 112.811 42.4916 113.38 44.0681C114.942 48.3972 116.179 53.58 116.394 59.0419C116.508 61.2249 116.421 63.4186 116.15 65.5928C115.532 70.539 113.957 75.3823 111.609 79.7641C109.853 83.0415 107.675 86.055 105.214 88.515C102.193 91.7043 92.1696 100.402 95.6063 89.2564C96.9493 85.0154 98.1177 81.8443 98.9679 76.9567Z" fill="#F2E205"/>
<path d="M60.8279 63.5888C62.0459 63.4552 63.1284 62.7868 63.6697 61.3162C62.1812 61.0489 61.2339 60.2466 60.5117 58.8099C60.8279 63.4552 60.5117 59.0433 60.8279 63.5888Z" fill="#F26E22"/>
<path d="M59.7457 75.0855C60.5819 73.7747 61.0475 73.4871 61.3695 71.8768C63.7082 72.0473 64.0772 72.3908 64.7526 74.6843C62.5957 74.9542 61.9229 74.9412 59.7457 75.0855Z" fill="#F7074E"/>
<path d="M76.3904 75.2196C75.0804 73.9851 73.887 73.6764 73.1426 73.749C73.1668 72.103 74.1865 71.3491 75.9844 71.3425C76.296 72.7934 76.3771 73.7452 76.3904 75.2196Z" fill="#0071BB"/>
<path d="M80.6302 25.2236C84.0443 27.35 87.7858 29.6808 91.0712 33.5378C92.5785 35.3003 94.2336 37.073 95.2441 39.1735C96.0527 41.0578 95.1499 42.0974 92.8993 41.3953C88.2751 39.9216 83.6654 38.1925 78.8255 37.5451C75.75 37.1338 72.3257 37.2149 69.0822 38.9336C67.5826 39.7708 66.2518 40.9544 65.0676 42.5083C64.128 43.697 62.8768 45.4983 61.775 47.882C61.3753 48.8415 60.8366 50.391 60.6361 51.6356C60.5766 52.0051 60.2381 53.7993 60.8903 53.348C62.06 52.3474 63.2073 51.2962 64.4812 50.3559C71.5757 45.1201 83.634 44.5274 91.8166 46.4132C95.6407 47.3915 98.9742 49.4678 101.222 53.2938C104.131 58.3741 105.713 57.4958 105.97 52.4249C106.176 48.3551 105.923 44.0723 104.537 40.2124C103.635 37.6981 102.172 35.3279 100.415 33.1361C97.9598 30.0725 94.9289 27.3573 92.0476 25.0847C88.5869 22.3725 84.7973 20.0647 80.8555 18.4792C79.2647 17.8394 77.5634 17.48 75.8486 17.6804C73.2525 17.9836 73.2774 19.8707 75.1719 21.47C76.7768 22.8228 78.6444 23.9865 80.6222 25.2186M80.6302 25.2236L80.6222 25.2186M80.6302 25.2236C80.6275 25.2219 80.6248 25.2202 80.6222 25.2186M34.5754 79.3649C35.5998 82.1481 37.2526 83.6429 40.1908 85.2473C43.473 87.0394 47.1545 87.9107 52.438 88.6848C55.9185 89.0789 61.2951 89.1363 66.7546 87.6539C68.2068 87.2314 69.5904 86.6767 70.8421 85.9582C73.4985 84.4789 75.5314 82.6336 76.5226 80.8355C76.7206 79.3731 76.7921 78.1186 76.6824 77.092C76.1377 74.7441 74.3604 73.6161 72.6012 73.7994C60.7032 75.4532 52.8629 77.1242 43.9127 71.3028C38.9716 68.0891 37.2819 63.5891 38.4293 57.7067C39.0859 53.7625 40.3935 49.5601 41.8829 45.8491C45.2036 37.6051 40.9215 38.499 36.1992 42.0783C19.8688 54.4566 19.5487 75.5215 25.1229 93.5363C26.3879 97.6245 29.8643 99.0694 29.9745 93.5363C30.0815 88.1536 29.6186 84.1356 30.6509 79.3649C31.1923 77.2257 31.7883 76.6855 32.6154 76.6555C33.5552 76.588 34.0549 77.9479 34.5699 79.3497M34.5754 79.3649L34.5699 79.3497M34.5754 79.3649C34.5735 79.3598 34.5718 79.3547 34.5699 79.3497M49.1901 67.8647C47.3666 62.9877 46.7543 59.7096 46.7543 54.629C46.7543 48.6129 47.7736 44.9375 49.7315 40.7252C51.241 37.786 52.9791 35.3775 55.8209 33.7639C58.295 32.4677 59.4672 31.1153 54.6593 30.2079C49.7547 29.5229 44.6579 29.7285 39.7178 29.7624C35.9286 29.7624 36.514 28.2202 38.4912 26.6874C40.1472 25.4035 42.9007 24.0042 45.3024 23.2113C50.8769 21.4496 56.7721 20.4346 62.587 20.5515C71.5333 20.7315 79.7334 23.8342 86.3555 29.1177C89.3382 31.4976 92.0009 34.3198 94.2672 37.5165C95.5915 39.3844 96.6851 42.4567 93.0349 41.3936C88.9031 40.1841 84.7622 38.6552 80.5229 37.8606C70.9556 36.0678 66.3687 39.2636 62.5873 46.3401C61.6062 48.0157 60.9906 49.7211 60.6482 51.8216C59.682 57.7498 61.0986 63.9876 61.3692 69.7364C61.4511 71.4904 61.2312 73.7476 59.5038 74.6831C56.3775 76.159 53.7971 74.8363 51.8969 72.6455C50.6863 71.2503 49.824 69.5843 49.1901 67.8647ZM45.8079 102.625C45.8079 102.625 39.8538 96.7427 41.2069 93.9353C41.9354 93.017 43.236 93.133 44.9964 93.6835C47.9672 94.7531 51.1204 96.0334 54.2557 97.2548C68.4757 102.374 75.0799 93.3303 76.5064 80.8957C69.7519 91.6656 47.508 90.6158 37.6877 83.7255C36.0482 82.5752 35.1717 81.3097 34.5754 79.3993C34.1694 78.0989 33.7634 76.8226 32.817 76.6889C30.4536 76.4432 29.919 82.6326 30.5717 88.7211C30.7255 90.1558 31.0371 91.5009 31.5244 92.8657C35.9811 105.347 50.6382 115.348 56.0918 116.437C61.9106 117.599 65.1584 114.791 56.3625 110.5C50.6788 106.903 49.562 105.979 45.8079 102.625ZM63.6692 18.4326C68.6772 18.4326 72.7571 14.4187 72.7571 9.44261C72.7571 4.46655 68.6772 0.452637 63.6692 0.452637C58.6613 0.452637 54.5813 4.46655 54.5813 9.44261C54.5813 14.4187 58.6613 18.4326 63.6692 18.4326ZM19.284 41.4268C24.292 41.4268 28.372 37.4127 28.372 32.4367C28.372 27.4607 24.292 23.4468 19.284 23.4468C14.2761 23.4468 10.1963 27.4607 10.1963 32.4367C10.1963 37.4127 14.2761 41.4268 19.284 41.4268ZM9.54045 80.1985C14.5484 80.1985 18.6283 76.1844 18.6283 71.2084C18.6283 66.2324 14.5484 62.2185 9.54045 62.2185C4.5325 62.2185 0.452637 66.2324 0.452637 71.2084C0.452637 76.1844 4.5325 80.1985 9.54045 80.1985ZM29.5682 121.375C34.5762 121.375 38.6561 117.361 38.6561 112.385C38.6561 107.409 34.5762 103.395 29.5682 103.395C24.5603 103.395 20.4804 107.409 20.4804 112.385C20.4804 117.361 24.5603 121.375 29.5682 121.375ZM70.7065 135.547C75.7145 135.547 79.7944 131.534 79.7944 126.558C79.7944 121.582 75.7145 117.567 70.7065 117.567C65.6986 117.567 61.6188 121.582 61.6188 126.558C61.6188 131.534 65.6986 135.547 70.7065 135.547ZM126.46 76.9918C131.468 76.9918 135.548 72.9779 135.548 68.0019C135.548 63.0257 131.468 59.0118 126.46 59.0118C121.452 59.0118 117.372 63.0257 117.372 68.0019C117.372 72.9779 121.452 76.9918 126.46 76.9918ZM107.244 33.6753C112.252 33.6753 116.332 29.6614 116.332 24.6854C116.332 19.7093 112.252 15.6953 107.244 15.6953C102.236 15.6953 98.1562 19.7093 98.1562 24.6854C98.1562 29.6614 102.236 33.6753 107.244 33.6753ZM98.8537 107.44C100.613 110.783 78.0137 119.339 63.8048 113.991C49.5959 108.644 39.4125 97.4146 41.206 94.0711C42.9992 90.7276 54.3322 99.4187 62.8577 98.7503C75.3409 97.7714 78.2708 80.9768 76.0493 71.2096C74.2248 63.1882 75.9946 59.8953 79.5024 59.6445C86.2082 59.1649 88.8111 70.1695 89.6517 74.8194C90.3282 78.5628 90.3282 81.3703 90.1928 84.0441C89.8638 90.5487 87.1508 97.9487 81.3969 101.547C79.6278 102.653 78.6904 102.761 78.5788 103.831C78.4674 104.9 79.8017 105.604 82.4796 105.702C84.4157 105.774 97.8249 104.262 98.8537 107.44ZM53.3848 74.9518C47.1601 74.0158 40.5293 70.1388 39.0408 65.7269C37.6369 62.3892 37.9216 59.7583 39.0408 54.6305C40.0782 50.6139 40.8387 48.281 42.3596 44.6034C43.8817 40.3305 43.1138 38.0058 38.6348 40.4588C38.3828 40.5971 38.1111 40.7745 37.8228 40.9866C34.7766 42.7513 29.2213 47.9864 26.991 52.3576C26.9031 52.53 26.8053 52.7086 26.6988 52.8924C18.6978 66.3779 16.566 61.8638 19.9536 53.1597C24.8046 42.5995 33.9356 31.4496 46.348 29.9803C50.2726 29.4963 62.6768 30.0916 56.0913 33.6407C45.6607 39.4052 42.9651 61.5825 53.3848 74.9518ZM98.9679 76.9567C99.4139 74.3933 99.4955 71.6742 98.5396 69.2025C95.5489 62.4297 88.6356 59.56 82.0738 59.0917C74.6584 58.6506 67.8426 61.5297 64.076 61.2513C62.6872 61.1487 61.1915 60.4306 60.7385 59.0419C60.5146 58.3553 60.3686 57.6156 60.3369 56.861C60.2739 56.2071 60.2858 55.5449 60.4071 54.8975C60.9463 52.9294 62.7536 51.5857 64.932 50.0569C68.2072 47.7859 72.1916 46.518 76.1197 45.92C81.3901 45.1491 87.5367 45.2327 92.6788 46.6846C94.4069 47.163 96.0048 47.9205 97.4109 49.0148C99.764 50.6234 100.979 52.926 102.475 55.2236C104.848 58.5741 105.906 55.6241 105.972 52.7307C106.088 50.5055 106.032 48.2943 105.846 46.0737C105.614 43.5815 105.252 41.0636 105.62 38.5869C106.145 35.0577 107.899 33.0528 110.761 37.9184C111.846 39.8589 112.811 42.4916 113.38 44.0681C114.942 48.3972 116.179 53.58 116.394 59.0419C116.508 61.2249 116.421 63.4186 116.15 65.5928C115.532 70.539 113.957 75.3823 111.609 79.7641C109.853 83.0415 107.675 86.055 105.214 88.515C102.193 91.7043 92.1696 100.402 95.6063 89.2564C96.9493 85.0154 98.1177 81.8443 98.9679 76.9567ZM60.8279 63.5888C62.0459 63.4552 63.1284 62.7868 63.6697 61.3162C62.1812 61.0489 61.2339 60.2466 60.5117 58.8099C60.8279 63.4552 60.5117 59.0433 60.8279 63.5888ZM59.7457 75.0855C60.5819 73.7747 61.0475 73.4871 61.3695 71.8768C63.7082 72.0473 64.0772 72.3908 64.7526 74.6843C62.5957 74.9542 61.9229 74.9412 59.7457 75.0855ZM76.3904 75.2196C75.0804 73.9851 73.887 73.6764 73.1426 73.749C73.1668 72.103 74.1865 71.3491 75.9844 71.3425C76.296 72.7935 76.3771 73.7452 76.3904 75.2196Z" stroke="white" stroke-width="0.8"/>
</svg>
