<svg width="36" height="47" viewBox="0 0 36 47" fill="none" xmlns="http://www.w3.org/2000/svg">
<path d="M12.4972 6.41243C12.4972 5.33167 12.8179 4.27518 13.4189 3.37655C14.0199 2.47793 14.8741 1.77754 15.8735 1.36396C16.8729 0.950366 17.9727 0.842152 19.0336 1.053C20.0946 1.26384 21.0692 1.78428 21.8341 2.54849C22.599 3.31271 23.1199 4.28638 23.3309 5.34637C23.542 6.40637 23.4337 7.50508 23.0197 8.50357C22.6057 9.50207 21.9047 10.3555 21.0053 10.9559C20.1058 11.5564 19.0483 11.8769 17.9666 11.8769C16.516 11.8769 15.1248 11.3011 14.0991 10.2764C13.0734 9.25158 12.4972 7.86168 12.4972 6.41243ZM35.043 26.8611L26.204 16.8495C25.6907 16.268 25.0595 15.8023 24.3522 15.4834C23.645 15.1644 22.8779 14.9994 22.1019 14.9994H13.8313C13.0553 14.9994 12.2882 15.1644 11.581 15.4834C10.8737 15.8023 10.2425 16.268 9.72923 16.8495L0.89023 26.8611C0.316281 27.4478 -0.00349611 28.2366 2.88353e-05 29.057C0.00355378 29.8774 0.330098 30.6635 0.909066 31.2452C1.48804 31.827 2.27291 32.1578 3.09402 32.166C3.91513 32.1742 4.70649 31.8593 5.29703 31.2892L10.3484 27.2358L6.50031 41.8492C6.16552 42.6001 6.1406 43.4526 6.43097 44.2218C6.72133 44.9909 7.30356 45.6146 8.05131 45.9576C8.79906 46.3006 9.65201 46.3351 10.4251 46.0537C11.1982 45.7723 11.829 45.1977 12.1807 44.4546L17.9666 34.5152L23.7447 44.4683C24.0964 45.2114 24.7272 45.786 25.5003 46.0674C26.2734 46.3488 27.1263 46.3142 27.8741 45.9713C28.6218 45.6283 29.204 45.0046 29.4944 44.2354C29.7848 43.4663 29.7599 42.6138 29.4251 41.8629L25.5847 27.2358L30.644 31.2892C31.2345 31.8593 32.0259 32.1742 32.847 32.166C33.6681 32.1578 34.453 31.827 35.0319 31.2452C35.6109 30.6635 35.9375 29.8774 35.941 29.057C35.9445 28.2366 35.6247 27.4478 35.0508 26.8611H35.043Z" fill="#0071BB"/>
</svg>
