<svg width="36" height="47" viewBox="0 0 36 47" fill="none" xmlns="http://www.w3.org/2000/svg">
<path d="M12.4972 6.31062C12.4972 5.22986 12.8179 4.17337 13.4189 3.27475C14.0199 2.37613 14.8741 1.67574 15.8735 1.26215C16.8729 0.848559 17.9727 0.740345 19.0336 0.951191C20.0946 1.16204 21.0692 1.68247 21.8341 2.44669C22.599 3.2109 23.1199 4.18457 23.3309 5.24456C23.542 6.30456 23.4337 7.40327 23.0197 8.40177C22.6057 9.40026 21.9047 10.2537 21.0053 10.8541C20.1058 11.4546 19.0483 11.775 17.9666 11.775C16.516 11.775 15.1248 11.1993 14.0991 10.1746C13.0734 9.14978 12.4972 7.75988 12.4972 6.31062ZM35.043 26.7593L26.204 16.7477C25.6907 16.1662 25.0595 15.7005 24.3522 15.3815C23.645 15.0626 22.8779 14.8976 22.1019 14.8976H13.8313C13.0553 14.8976 12.2882 15.0626 11.581 15.3815C10.8737 15.7005 10.2425 16.1662 9.72923 16.7477L0.89023 26.7593C0.316281 27.346 -0.00349611 28.1348 2.88353e-05 28.9552C0.00355378 29.7756 0.330098 30.5616 0.909066 31.1434C1.48804 31.7252 2.27291 32.0559 3.09402 32.0642C3.91513 32.0724 4.70649 31.7575 5.29703 31.1874L10.3484 27.134L6.50031 41.7474C6.16552 42.4983 6.1406 43.3508 6.43097 44.12C6.72133 44.8891 7.30356 45.5128 8.05131 45.8558C8.79906 46.1987 9.65201 46.2333 10.4251 45.9519C11.1982 45.6705 11.829 45.0959 12.1807 44.3528L17.9666 34.4134L23.7447 44.3665C24.0964 45.1096 24.7272 45.6842 25.5003 45.9656C26.2734 46.2469 27.1263 46.2124 27.8741 45.8694C28.6218 45.5265 29.204 44.9028 29.4944 44.1336C29.7848 43.3645 29.7599 42.512 29.4251 41.7611L25.5847 27.134L30.644 31.1874C31.2345 31.7575 32.0259 32.0724 32.847 32.0642C33.6681 32.0559 34.453 31.7252 35.0319 31.1434C35.6109 30.5616 35.9375 29.7756 35.941 28.9552C35.9445 28.1348 35.6247 27.346 35.0508 26.7593H35.043Z" fill="#A91421"/>
</svg>
