<svg width="29" height="45" viewBox="0 0 29 45" fill="none" xmlns="http://www.w3.org/2000/svg">
<path d="M11.575 43.9496V27.1891C11.575 25.7885 12.6903 24.6514 14.0665 24.6514C15.4427 24.6514 16.558 25.7884 16.558 27.1891V43.9496C16.558 45.3501 11.575 45.3501 11.575 43.9496Z" fill="#8E6049"/>
<path d="M27.464 38.01C24.8632 40.9156 20.0811 41.9219 14.0664 41.9219C8.23582 41.9219 4.05057 41.6551 0.770529 38.2055C0.74188 38.1759 0.710788 38.149 0.6776 38.1249C-0.0440898 37.5906 -0.289185 36.3078 0.440299 35.4925C2.04494 33.699 3.74043 31.2665 5.38768 28.6116C5.69704 28.1131 5.2828 27.4726 4.71129 27.5681C4.43369 27.6144 4.15529 27.6556 3.87623 27.6917C2.7675 27.8352 2.11838 26.2198 2.93361 25.3087C4.73251 23.2981 6.66885 20.3205 8.45865 17.2273C8.75935 16.7077 8.30112 16.0754 7.72406 16.2113C7.1328 16.3507 6.55176 16.4508 6.00198 16.5219C5.12604 16.6352 4.61316 15.359 5.25725 14.6392C8.01402 11.558 11.1785 5.60417 13.1149 1.68329C13.128 1.65598 13.1394 1.62785 13.1491 1.59908C13.2466 1.31759 13.4368 1.11582 13.6587 1.01247C13.7659 0.960278 13.8834 0.933506 14.0023 0.93416C14.1212 0.933518 14.2387 0.96029 14.346 1.01247C14.5679 1.11582 14.758 1.31759 14.8556 1.59908C14.8652 1.62785 14.8766 1.65598 14.8898 1.68329C16.8261 5.60417 19.9906 11.5581 22.7474 14.6392C23.3915 15.359 22.8786 16.6353 22.0027 16.5219C21.453 16.4508 20.8719 16.3507 20.2806 16.2113C19.7035 16.0754 19.2454 16.7077 19.546 17.2273C21.3358 20.3205 23.2721 23.2981 25.071 25.3087C25.8863 26.2199 25.2371 27.8352 24.1284 27.6917C23.8556 27.6564 23.5767 27.6154 23.2934 27.5681C22.7218 27.4726 22.3076 28.1131 22.617 28.6116C24.2642 31.2664 25.9597 33.699 27.5643 35.4925C28.045 36.0298 28.102 36.77 27.8791 37.3655C27.8464 37.5055 27.7706 37.6506 27.6462 37.8011C27.5917 37.8761 27.5307 37.946 27.464 38.01Z" fill="#149314"/>
<path d="M14.2151 0.134659L15.1978 2.16194C15.2148 2.19706 15.2399 2.22743 15.2711 2.25044C15.3022 2.27346 15.3383 2.28842 15.3764 2.29404L17.5736 2.61918C17.7681 2.64793 17.8458 2.89141 17.705 3.03118L16.1151 4.60925C16.0876 4.63658 16.067 4.67032 16.0551 4.70756C16.0432 4.7448 16.0404 4.78442 16.0469 4.82301L16.4222 7.05127C16.4555 7.24854 16.252 7.39907 16.078 7.30586L14.1128 6.25382C14.0787 6.23562 14.0409 6.22611 14.0024 6.22611C13.9639 6.22611 13.9261 6.23562 13.892 6.25382L11.9267 7.30586C11.7528 7.39899 11.5493 7.24854 11.5826 7.05127L11.9579 4.82301C11.9644 4.78442 11.9616 4.7448 11.9497 4.70756C11.9378 4.67032 11.9172 4.63658 11.8897 4.60925L10.2998 3.03118C10.1589 2.89141 10.2366 2.64802 10.4312 2.61918L12.6284 2.29404C12.6665 2.28841 12.7026 2.27344 12.7337 2.25042C12.7648 2.22741 12.79 2.19705 12.807 2.16194L13.7896 0.134659C13.8768 -0.0448862 14.1281 -0.0448862 14.2151 0.134659Z" fill="#FFB636"/>
<path d="M13.6094 19.0994C13.6094 19.6715 13.154 20.1351 12.5922 20.1351C12.0304 20.1351 11.575 19.6715 11.575 19.0994C11.575 18.5274 12.0304 18.0637 12.5922 18.0637C13.154 18.0637 13.6094 18.5274 13.6094 19.0994ZM20.3026 31.4854C19.1467 31.4854 18.2097 32.4394 18.2097 33.6164C18.2097 34.7933 19.1467 35.7475 20.3026 35.7475C21.4584 35.7475 22.3955 34.7934 22.3955 33.6164C22.3955 32.4394 21.4584 31.4854 20.3026 31.4854Z" fill="#FFD469"/>
<path d="M21.1368 23.1605C21.1368 24.4388 20.1192 25.475 18.8639 25.475C17.6085 25.475 16.5909 24.4388 16.5909 23.1605C16.5909 21.8823 17.6085 20.8461 18.8639 20.8461C20.1192 20.8462 21.1368 21.8824 21.1368 23.1605ZM9.79541 11.8258C9.21714 11.8258 8.74843 12.3031 8.74843 12.8918C8.74843 13.4806 9.21722 13.9579 9.79541 13.9579C10.3736 13.9579 10.8424 13.4806 10.8424 12.8918C10.8424 12.3031 10.3737 11.8258 9.79541 11.8258ZM8.0399 33.5974C7.11079 33.5974 6.35757 34.3644 6.35757 35.3104C6.35757 36.2565 7.11079 37.0234 8.0399 37.0234C8.96901 37.0234 9.72223 36.2565 9.72223 35.3104C9.72223 34.3643 8.96901 33.5974 8.0399 33.5974Z" fill="#FF473E"/>
<path d="M16.5909 8.85078L17.1968 9.50414L18.079 9.47839L18.0537 10.3766L18.6953 10.9936L18.0537 11.6105L18.079 12.5088L17.1968 12.483L16.5909 13.1364L15.985 12.483L15.1028 12.5088L15.1281 11.6105L14.4865 10.9936L15.1281 10.3766L15.1028 9.47839L15.985 9.50414L16.5909 8.85078ZM9.18944 26.1283L8.30727 26.1026L8.33256 27.0008L7.6909 27.6178L8.33256 28.2347L8.30727 29.133L9.18944 29.1072L9.79534 29.7606L10.4012 29.1072L11.2834 29.133L11.2581 28.2347L11.8998 27.6178L11.2581 27.0008L11.2834 26.1026L10.4012 26.1283L9.79534 25.475L9.18944 26.1283Z" fill="#76DFFF"/>
</svg>
