<svg width="38" height="45" viewBox="0 0 38 45" fill="none" xmlns="http://www.w3.org/2000/svg">
<path d="M37.4469 35.5101C36.4644 33.6425 34.6138 33.1887 32.5896 33.6125C32.5527 33.62 32.5084 33.6312 32.464 33.6462C33.044 32.5849 33.4909 31.5462 33.5611 29.6298C33.7273 24.9122 31.8102 22.5946 29.823 20.8808C25.7045 17.3294 13.7995 18.4995 13.6149 18.507C12.0856 18.5707 9.95436 19.5195 8.79821 20.5545C6.24953 22.8084 4.28446 25.9847 4.1404 29.4873C4.06283 30.7549 4.28076 32.2587 4.87546 33.4737C3.27607 33.2712 1.58433 33.83 0.527919 35.7426C-0.32903 37.2914 -0.0852427 39.1889 0.845581 40.9365C2.10515 43.3066 4.9678 45.5454 7.8009 44.8816C10.6746 44.2104 13.1679 41.319 15.7055 39.7927C15.8865 39.6839 16.1007 39.6464 16.3113 39.6689C17.8922 39.8527 20.1158 39.8527 21.5121 39.6989C21.8039 39.6689 22.092 39.7664 22.2989 39.9727C22.5611 40.2352 22.8234 40.4827 22.9194 40.5727C24.5114 42.0615 26.3324 43.6703 28.3566 44.4916C31.7844 45.8792 35.1863 44.3266 37.0295 41.004C37.9973 39.2564 38.422 37.3589 37.4469 35.5101Z" fill="#A65F3E"/>
<path d="M26.7018 37.9401C26.5393 37.9401 26.3731 37.9251 26.2068 37.8951C24.7109 37.6139 23.8207 36.1026 23.7136 34.7525C23.6064 33.3875 24.1236 32.0937 24.6407 31.0099C24.733 30.8149 25.6934 29.0261 25.952 27.811C26.3398 25.9772 26.0148 24.3047 25.9003 23.5584C25.7857 22.8084 26.3472 22.9359 26.591 23.4721C27.1894 24.7884 27.2965 26.6297 27.0268 28.036C26.7794 29.3223 25.7193 31.3024 25.6269 31.4974C25.1726 32.4499 24.7183 33.5675 24.8032 34.6663C24.8734 35.57 25.457 36.6238 26.4026 36.8001C27.4258 36.9913 28.2458 36.6163 29.1101 35.8138L30.0409 36.1738C29.3576 36.8113 28.135 37.9401 26.7018 37.9401ZM12.3294 29.0448C12.1078 27.826 11.9527 26.2847 12.7062 25.1934L12.1558 24.1171C10.7596 25.5534 10.9886 27.811 11.2509 29.2436C11.2841 29.4348 11.8271 32.2549 11.5279 33.365C11.1844 34.64 10.0689 35.6638 8.79821 35.9263C8.11118 34.8125 7.08062 34.0137 5.94295 33.5487C4.83483 33.095 3.24282 33.2187 2.33785 33.89C3.313 33.6162 4.45068 33.68 5.40366 34.1413C6.72972 34.7788 7.54973 35.6526 8.29956 37.5089C8.54704 38.1201 8.74281 39.0952 9.31534 38.9264C9.64408 38.8327 9.90264 38.4952 9.77706 37.9589C9.64408 37.3926 9.44462 37.0064 9.44462 37.0064C9.44462 37.0064 11.4688 36.6538 12.588 33.6575C13.1605 32.1199 12.3664 29.2323 12.3294 29.0448Z" fill="#703B26"/>
<path d="M29.1323 38.8327C29.0252 39.0352 28.8737 39.1927 28.6558 39.1889C28.3197 39.1852 28.1054 38.7839 28.1017 38.4389C28.087 35.7238 31.0161 33.245 33.7125 33.4662C31.6034 33.9237 30.0446 35.6713 29.2911 38.4352C29.2542 38.5664 29.1988 38.7052 29.1323 38.8327ZM15.3103 28.6248L14.4977 27.7285C15.8274 26.4422 17.641 24.6722 17.955 23.0746L19.0299 23.2921C18.679 25.0847 17.1756 27.2485 15.8274 28.6361C15.6834 28.7861 15.447 28.7786 15.3103 28.6248Z" fill="#703B26"/>
<path d="M21.7263 22.9284C23.961 22.4333 25.5937 21.042 25.6971 19.3057L13.5373 18.5595C13.4597 19.8833 14.2871 21.117 15.6427 21.9646C13.9547 22.2571 12.8022 22.6958 12.311 22.9059C12.0413 23.0221 11.864 23.2884 11.864 23.5884C11.8677 25.0097 13.3637 27.9123 14.4386 28.0885C15.5024 28.2648 17.8996 25.1297 18.7824 23.7796C18.7824 25.8797 19.0927 29.5923 19.7132 29.8849C20.9728 30.4736 24.962 28.2835 25.0802 27.1398C25.1726 26.2435 23.4033 24.4884 21.7263 22.9284Z" fill="#FFCA28"/>
<path d="M32.3643 5.81276C32.272 4.2077 31.2192 2.77515 29.7307 2.23138C28.5228 1.79262 27.315 1.94637 26.3435 2.50139C25.9003 2.75265 25.3684 2.7939 24.9103 2.56139C24.2011 2.20138 22.9711 1.71386 21.2203 1.48886C19.4768 1.26385 18.1286 1.45885 17.3197 1.65386C16.7952 1.78137 16.2559 1.59386 15.8754 1.20385C15.496 0.819619 15.0454 0.515435 14.5497 0.308829C14.0539 0.102224 13.5228 -0.00271815 12.9869 5.35023e-05C11.092 5.35023e-05 9.41138 1.4026 9.03461 3.28892C8.79821 4.46271 9.07525 5.60275 9.6958 6.48778C10.2351 7.26406 10.3422 8.28034 9.99499 9.16538C9.64408 10.0579 8.97551 12.0192 8.99029 13.1068C9.0457 17.8507 13.2972 20.3108 18.9191 21.0345C24.541 21.7583 29.5681 19.977 30.5137 15.0681C30.728 13.958 30.6689 12.5067 30.4805 11.4192C30.3254 10.5229 30.6172 9.59664 31.2414 8.94037C31.9875 8.15284 32.4382 7.05405 32.3643 5.81276Z" fill="#A65F3E"/>
<path d="M10.6303 4.38021C10.7818 3.18392 11.8049 2.33264 12.9241 2.47514C13.3489 2.53139 14.6233 3.03766 14.1874 3.71268C14.1061 3.83644 13.9842 3.92269 13.866 4.00894C13.0642 4.59929 12.3565 5.3114 11.768 6.12027C11.6609 6.27027 11.4983 6.43903 11.3395 6.36778C10.7781 6.12402 10.5638 4.92773 10.6303 4.38021ZM30.5544 6.94905C30.7058 5.75276 29.9191 4.66522 28.8035 4.52271C28.3788 4.46646 27.0195 4.63522 27.278 5.40024C27.326 5.54275 27.4221 5.65525 27.5144 5.77151C28.1387 6.53653 28.6521 7.41031 29.0252 8.3516C29.0917 8.5241 29.2062 8.73036 29.3798 8.70036C29.9818 8.60286 30.4842 7.50032 30.5544 6.94905Z" fill="#874D36"/>
<path d="M18.2394 10.9392C17.1498 12.2105 16.3298 12.9305 15.5578 14.0518C14.2465 15.9569 15.1588 19.2682 18.8748 19.7595C21.4641 20.1008 23.6951 18.8557 23.7394 16.3394C23.769 14.7456 22.3838 12.6192 21.6672 11.2467C20.7733 9.54414 19.3734 9.61539 18.2394 10.9392Z" fill="#F29657"/>
<path d="M16.4159 10.5232C16.5533 9.54305 15.9999 8.65245 15.1799 8.53397C14.36 8.41549 13.5839 9.11399 13.4465 10.0941C13.3091 11.0742 13.8624 11.9648 14.6824 12.0833C15.5024 12.2018 16.2785 11.5033 16.4159 10.5232Z" fill="black"/>
<path d="M26.6047 11.8382C26.7421 10.8581 26.1887 9.96746 25.3687 9.84898C24.5488 9.73049 23.7727 10.429 23.6353 11.4091C23.4979 12.3893 24.0512 13.2799 24.8712 13.3983C25.6912 13.5168 26.4673 12.8183 26.6047 11.8382Z" fill="black"/>
<path d="M20.3929 16.4369C19.5027 16.6356 18.5977 16.4781 18.003 15.7206C17.5561 15.1543 17.0944 14.2056 17.7297 13.5343C18.631 12.5967 20.8731 12.878 21.6857 13.808C22.1474 14.5993 21.2351 16.2569 20.3929 16.4369Z" fill="black"/>
<path d="M1.34054 38.4577C1.35162 37.7714 1.86136 36.7738 2.49669 36.5338C4.01112 35.9526 5.65853 36.6538 6.57089 38.7577C7.32441 40.4977 7.39828 42.324 7.07693 42.8153C6.60044 43.5391 5.90601 43.4228 5.42583 43.3366C4.55041 43.1791 3.7895 42.6428 3.10246 42.0653C2.40434 41.4765 1.31099 40.284 1.34054 38.4577ZM36.638 38.4277C36.6158 37.7414 36.0913 36.7551 35.456 36.5188C33.9341 35.9601 32.2941 36.6838 31.415 38.8027C30.6873 40.554 30.7686 42.1628 30.8683 42.504C31.1786 43.5578 32.1501 43.4566 32.6266 43.3628C33.4983 43.1903 34.2518 42.6428 34.9315 42.0578C35.6222 41.4653 36.6934 40.2577 36.638 38.4277Z" fill="#F29657"/>
</svg>
