<svg width="36" height="46" viewBox="0 0 36 46" fill="none" xmlns="http://www.w3.org/2000/svg">
<path d="M12.4972 5.46443C12.4972 4.38367 12.8179 3.32718 13.4189 2.42856C14.0199 1.52994 14.8741 0.829547 15.8735 0.415957C16.8729 0.00236765 17.9727 -0.105846 19.0336 0.105C20.0946 0.315846 21.0692 0.836282 21.8341 1.6005C22.599 2.36471 23.1199 3.33838 23.3309 4.39837C23.542 5.45837 23.4337 6.55708 23.0197 7.55558C22.6057 8.55407 21.9047 9.4075 21.0053 10.0079C20.1058 10.6084 19.0483 10.9289 17.9666 10.9289C16.516 10.9289 15.1248 10.3531 14.0991 9.32836C13.0734 8.30359 12.4972 6.91369 12.4972 5.46443ZM35.043 25.9131L26.204 15.9015C25.6907 15.32 25.0595 14.8543 24.3522 14.5354C23.645 14.2164 22.8779 14.0514 22.1019 14.0514H13.8313C13.0553 14.0514 12.2882 14.2164 11.581 14.5354C10.8737 14.8543 10.2425 15.32 9.72923 15.9015L0.89023 25.9131C0.316281 26.4998 -0.00349611 27.2886 2.88353e-05 28.109C0.00355378 28.9294 0.330098 29.7155 0.909066 30.2972C1.48804 30.879 2.27291 31.2098 3.09402 31.218C3.91513 31.2262 4.70649 30.9113 5.29703 30.3412L10.3484 26.2878L6.50031 40.9012C6.16552 41.6521 6.1406 42.5047 6.43097 43.2738C6.72133 44.0429 7.30356 44.6666 8.05131 45.0096C8.79906 45.3526 9.65201 45.3871 10.4251 45.1057C11.1982 44.8243 11.829 44.2497 12.1807 43.5066L17.9666 33.5672L23.7447 43.5203C24.0964 44.2634 24.7272 44.838 25.5003 45.1194C26.2734 45.4008 27.1263 45.3662 27.8741 45.0233C28.6218 44.6803 29.204 44.0566 29.4944 43.2874C29.7848 42.5183 29.7599 41.6658 29.4251 40.9149L25.5847 26.2878L30.644 30.3412C31.2345 30.9113 32.0259 31.2262 32.847 31.218C33.6681 31.2098 34.453 30.879 35.0319 30.2972C35.6109 29.7155 35.9375 28.9294 35.941 28.109C35.9445 27.2886 35.6247 26.4998 35.0508 25.9131H35.043Z" fill="#00ADF1"/>
</svg>
