<svg width="31" height="30" viewBox="0 0 31 30" fill="none" xmlns="http://www.w3.org/2000/svg">
<path d="M16.5429 0.00184559C17.6375 -0.00235474 18.7321 0.00864643 19.8264 0.0348457L20.1174 0.0453457C20.4534 0.0573457 20.7849 0.0723456 21.1854 0.0903456C22.7814 0.165346 23.8704 0.417346 24.8259 0.787846C25.8159 1.16885 26.6499 1.68485 27.4839 2.51885C28.2464 3.26825 28.8366 4.17477 29.2134 5.17535C29.5839 6.13085 29.8359 7.22134 29.9109 8.81734C29.9289 9.21634 29.9439 9.54935 29.9559 9.88535L29.9649 10.1763C29.9915 11.2701 30.003 12.3642 29.9994 13.4583L30.0009 14.5773V16.5423C30.0046 17.637 29.9931 18.7316 29.9664 19.8258L29.9574 20.1168C29.9454 20.4528 29.9304 20.7843 29.9124 21.1848C29.8374 22.7808 29.5824 23.8698 29.2134 24.8253C28.8378 25.827 28.2475 26.7342 27.4839 27.4833C26.7338 28.2458 25.8268 28.836 24.8259 29.2128C23.8704 29.5833 22.7814 29.8353 21.1854 29.9103C20.7849 29.9283 20.4534 29.9433 20.1174 29.9553L19.8264 29.9643C18.7321 29.991 17.6375 30.0025 16.5429 29.9988L15.4239 30.0003H13.4604C12.3658 30.004 11.2712 29.9925 10.1769 29.9658L9.88587 29.9568C9.52978 29.9439 9.17377 29.9289 8.81787 29.9118C7.22187 29.8368 6.13286 29.5818 5.17587 29.2128C4.17489 28.8369 3.26822 28.2466 2.51937 27.4833C1.75593 26.7338 1.1652 25.8267 0.788366 24.8253C0.417866 23.8698 0.165865 22.7808 0.0908654 21.1848C0.0741598 20.8289 0.0591597 20.4729 0.0458655 20.1168L0.0383656 19.8258C0.010711 18.7316 -0.00179032 17.637 0.000865501 16.5423V13.4583C-0.00332095 12.3642 0.00768022 11.2701 0.0338656 10.1763L0.0443656 9.88535C0.0563656 9.54935 0.0713655 9.21634 0.0893655 8.81734C0.164366 7.21984 0.416365 6.13235 0.786865 5.17535C1.16392 4.17428 1.75581 3.26801 2.52087 2.52035C3.26921 1.75647 4.17531 1.1652 5.17587 0.787846C6.13286 0.417346 7.22037 0.165346 8.81787 0.0903456L9.88587 0.0453457L10.1769 0.0378458C11.2706 0.0102051 12.3647 -0.00229628 13.4589 0.000345702L16.5429 0.00184559ZM15.0009 7.50185C14.0071 7.48779 13.0205 7.67138 12.0983 8.04195C11.1762 8.41251 10.3368 8.96266 9.62913 9.66043C8.92143 10.3582 8.35947 11.1897 7.9759 12.1065C7.59233 13.0233 7.3948 14.0073 7.3948 15.0011C7.3948 15.9949 7.59233 16.9789 7.9759 17.8957C8.35947 18.8125 8.92143 19.644 9.62913 20.3418C10.3368 21.0395 11.1762 21.5897 12.0983 21.9602C13.0205 22.3308 14.0071 22.5144 15.0009 22.5003C16.99 22.5003 18.8976 21.7102 20.3042 20.3036C21.7107 18.8971 22.5009 16.9895 22.5009 15.0003C22.5009 13.0112 21.7107 11.1036 20.3042 9.69704C18.8976 8.29052 16.99 7.50185 15.0009 7.50185ZM15.0009 10.5018C15.5986 10.4908 16.1926 10.599 16.7481 10.8202C17.3035 11.0413 17.8094 11.3709 18.236 11.7897C18.6627 12.2085 19.0016 12.7081 19.233 13.2594C19.4644 13.8106 19.5837 14.4025 19.5838 15.0003C19.5839 15.5982 19.4648 16.1901 19.2336 16.7414C19.0024 17.2928 18.6636 17.7925 18.2371 18.2115C17.8106 18.6304 17.3048 18.9602 16.7495 19.1815C16.1941 19.4028 15.6001 19.5112 15.0024 19.5003C13.8089 19.5003 12.6643 19.0262 11.8204 18.1823C10.9765 17.3384 10.5024 16.1938 10.5024 15.0003C10.5024 13.8069 10.9765 12.6623 11.8204 11.8184C12.6643 10.9745 13.8089 10.5003 15.0024 10.5003L15.0009 10.5018ZM22.8759 5.25185C22.392 5.27121 21.9343 5.47707 21.5988 5.8263C21.2632 6.17553 21.0758 6.64105 21.0758 7.12535C21.0758 7.60964 21.2632 8.07516 21.5988 8.42439C21.9343 8.77362 22.392 8.97948 22.8759 8.99885C23.3731 8.99885 23.8501 8.8013 24.2017 8.44967C24.5533 8.09804 24.7509 7.62113 24.7509 7.12385C24.7509 6.62656 24.5533 6.14965 24.2017 5.79802C23.8501 5.44639 23.3731 5.24885 22.8759 5.24885V5.25185Z" fill="black"/>
</svg>
