<svg width="36" height="47" viewBox="0 0 36 47" fill="none" xmlns="http://www.w3.org/2000/svg">
<path d="M12.4972 6.25911C12.4972 5.17835 12.8179 4.12185 13.4189 3.22323C14.0199 2.32461 14.8741 1.62422 15.8735 1.21063C16.8729 0.797045 17.9727 0.688831 19.0336 0.899678C20.0946 1.11052 21.0692 1.63096 21.8341 2.39517C22.599 3.15939 23.1199 4.13306 23.3309 5.19305C23.542 6.25305 23.4337 7.35176 23.0197 8.35025C22.6057 9.34875 21.9047 10.2022 21.0053 10.8026C20.1058 11.4031 19.0483 11.7235 17.9666 11.7235C16.516 11.7235 15.1248 11.1478 14.0991 10.123C13.0734 9.09826 12.4972 7.70836 12.4972 6.25911ZM35.043 26.7078L26.204 16.6962C25.6907 16.1147 25.0595 15.649 24.3522 15.33C23.645 15.011 22.8779 14.8461 22.1019 14.8461H13.8313C13.0553 14.8461 12.2882 15.011 11.581 15.33C10.8737 15.649 10.2425 16.1147 9.72923 16.6962L0.89023 26.7078C0.316281 27.2945 -0.00349611 28.0833 2.88353e-05 28.9037C0.00355378 29.7241 0.330098 30.5101 0.909066 31.0919C1.48804 31.6737 2.27291 32.0044 3.09402 32.0127C3.91513 32.0209 4.70649 31.706 5.29703 31.1359L10.3484 27.0825L6.50031 41.6959C6.16552 42.4468 6.1406 43.2993 6.43097 44.0685C6.72133 44.8376 7.30356 45.4613 8.05131 45.8043C8.79906 46.1472 9.65201 46.1818 10.4251 45.9004C11.1982 45.619 11.829 45.0444 12.1807 44.3013L17.9666 34.3619L23.7447 44.3149C24.0964 45.0581 24.7272 45.6327 25.5003 45.9141C26.2734 46.1954 27.1263 46.1609 27.8741 45.8179C28.6218 45.475 29.204 44.8513 29.4944 44.0821C29.7848 43.313 29.7599 42.4605 29.4251 41.7096L25.5847 27.0825L30.644 31.1359C31.2345 31.706 32.0259 32.0209 32.847 32.0127C33.6681 32.0044 34.453 31.6737 35.0319 31.0919C35.6109 30.5101 35.9375 29.7241 35.941 28.9037C35.9445 28.0833 35.6247 27.2945 35.0508 26.7078H35.043Z" fill="#ED1B24"/>
</svg>
