<svg width="40" height="45" viewBox="0 0 40 45" fill="none" xmlns="http://www.w3.org/2000/svg">
<path d="M20 45C26.9036 45 32.5001 39.4036 32.5001 32.5C32.5001 25.5964 26.9036 20 20 20C13.0964 20 7.49992 25.5964 7.49992 32.5C7.49992 39.4036 13.0964 45 20 45Z" fill="#E1E8ED"/>
<path d="M12.5 13.75C12.5 11.7609 13.2901 9.85322 14.6967 8.4467C16.1032 7.04018 18.0109 6.25 20 6.25C21.9891 6.25 23.8968 7.04018 25.3033 8.4467C26.7099 9.85322 27.5001 11.7609 27.5001 13.75C27.5001 15.7391 26.7099 17.6468 25.3033 19.0533C23.8968 20.4598 21.9891 21.25 20 21.25C18.0109 21.25 16.1032 20.4598 14.6967 19.0533C13.2901 17.6468 12.5 15.7391 12.5 13.75Z" fill="#E1E8ED"/>
<path d="M26.2501 7.5C26.2501 8.16304 25.9867 8.79893 25.5178 9.26777C25.049 9.73661 24.4131 10 23.75 10H16.25C15.5869 10 14.951 9.73661 14.4822 9.26777C14.0134 8.79893 13.75 8.16304 13.75 7.5V2.5C13.75 1.83696 14.0134 1.20107 14.4822 0.732233C14.951 0.263392 15.5869 0 16.25 0H23.75C24.4131 0 25.049 0.263392 25.5178 0.732233C25.9867 1.20107 26.2501 1.83696 26.2501 2.5V7.5Z" fill="#414042"/>
<path d="M28.7501 8.75C28.7501 9.08152 28.6184 9.39946 28.384 9.63388C28.1495 9.8683 27.8316 10 27.5001 10H12.5C12.1684 10 11.8505 9.8683 11.6161 9.63388C11.3816 9.39946 11.2499 9.08152 11.2499 8.75C11.2499 8.41848 11.3816 8.10054 11.6161 7.86612C11.8505 7.6317 12.1684 7.5 12.5 7.5H27.5001C27.8316 7.5 28.1495 7.6317 28.384 7.86612C28.6184 8.10054 28.7501 8.41848 28.7501 8.75Z" fill="#231F20"/>
<path d="M25.625 18.75H14.375C13.9317 18.7465 13.5017 18.9007 13.1616 19.185C12.8215 19.4693 12.5936 19.8652 12.5185 20.302C12.4434 20.7389 12.526 21.1882 12.7516 21.5697C12.9771 21.9513 13.331 22.2403 13.75 22.385V31.25C13.75 31.5815 13.8817 31.8995 14.1161 32.1339C14.3505 32.3683 14.6685 32.5 15 32.5H16.25C16.5815 32.5 16.8995 32.3683 17.1339 32.1339C17.3683 31.8995 17.5 31.5815 17.5 31.25V22.5H25.625C26.1223 22.5 26.5992 22.3025 26.9509 21.9508C27.3025 21.5992 27.5001 21.1223 27.5001 20.625C27.5001 20.1277 27.3025 19.6508 26.9509 19.2992C26.5992 18.9475 26.1223 18.75 25.625 18.75Z" fill="#DD2E44"/>
<path d="M21.25 30C21.2577 30.1687 21.2312 30.3372 21.172 30.4953C21.1128 30.6535 21.0222 30.798 20.9056 30.9201C20.789 31.0423 20.6489 31.1395 20.4937 31.2061C20.3385 31.2726 20.1714 31.307 20.0026 31.3071C19.8337 31.3073 19.6666 31.2732 19.5112 31.207C19.3559 31.1408 19.2156 31.0439 19.0988 30.9219C18.9819 30.8 18.891 30.6557 18.8315 30.4977C18.772 30.3396 18.7451 30.1712 18.7525 30.0025C18.7666 29.681 18.9041 29.3772 19.1365 29.1546C19.3689 28.9319 19.6782 28.8074 20.0001 28.8071C20.3219 28.8068 20.6315 28.9306 20.8643 29.1528C21.0972 29.375 21.2353 29.6785 21.25 30ZM21.25 36.25C21.2577 36.4187 21.2312 36.5872 21.172 36.7453C21.1128 36.9035 21.0222 37.048 20.9056 37.1701C20.789 37.2923 20.6489 37.3895 20.4937 37.4561C20.3385 37.5226 20.1714 37.557 20.0026 37.5571C19.8337 37.5573 19.6666 37.5232 19.5112 37.457C19.3559 37.3908 19.2156 37.2939 19.0988 37.1719C18.9819 37.05 18.891 36.9057 18.8315 36.7477C18.772 36.5896 18.7451 36.4212 18.7525 36.2525C18.7666 35.931 18.9041 35.6272 19.1365 35.4046C19.3689 35.1819 19.6782 35.0574 20.0001 35.0571C20.3219 35.0568 20.6315 35.1806 20.8643 35.4028C21.0972 35.625 21.2353 35.9285 21.25 36.25Z" fill="#414042"/>
<path d="M21.25 15C21.2577 15.1687 21.2312 15.3372 21.172 15.4953C21.1128 15.6535 21.0222 15.798 20.9056 15.9201C20.789 16.0423 20.6489 16.1395 20.4937 16.2061C20.3385 16.2726 20.1714 16.307 20.0026 16.3071C19.8337 16.3073 19.6666 16.2732 19.5112 16.207C19.3559 16.1408 19.2156 16.0439 19.0988 15.9219C18.9819 15.8 18.891 15.6557 18.8315 15.4977C18.772 15.3396 18.7451 15.1712 18.7525 15.0025C18.7666 14.681 18.9041 14.3772 19.1365 14.1546C19.3689 13.9319 19.6782 13.8074 20.0001 13.8071C20.3219 13.8068 20.6315 13.9306 20.8643 14.1528C21.0972 14.375 21.2353 14.6785 21.25 15Z" fill="#F4900C"/>
<path d="M17.5 12.5C17.5 12.8315 17.3683 13.1495 17.1339 13.3839C16.8995 13.6183 16.5815 13.75 16.25 13.75C15.9185 13.75 15.6005 13.6183 15.3661 13.3839C15.1317 13.1495 15 12.8315 15 12.5C15 12.1685 15.1317 11.8505 15.3661 11.6161C15.6005 11.3817 15.9185 11.25 16.25 11.25C16.5815 11.25 16.8995 11.3817 17.1339 11.6161C17.3683 11.8505 17.5 12.1685 17.5 12.5ZM25 12.5C25 12.8315 24.8683 13.1495 24.6339 13.3839C24.3995 13.6183 24.0816 13.75 23.75 13.75C23.4185 13.75 23.1006 13.6183 22.8661 13.3839C22.6317 13.1495 22.5 12.8315 22.5 12.5C22.5 12.1685 22.6317 11.8505 22.8661 11.6161C23.1006 11.3817 23.4185 11.25 23.75 11.25C24.0816 11.25 24.3995 11.3817 24.6339 11.6161C24.8683 11.8505 25 12.1685 25 12.5Z" fill="#414042"/>
<path d="M10.4924 25.1013L6.17741 23.2525L5.49366 19.67C5.4315 19.3443 5.24249 19.0566 4.96822 18.8702C4.69395 18.6839 4.35687 18.6141 4.03115 18.6762C3.70543 18.7384 3.41774 18.9274 3.23138 19.2017C3.04501 19.476 2.97523 19.813 3.03739 20.1388L3.4049 22.0637L1.74239 21.3512C1.43772 21.2206 1.09364 21.2164 0.78584 21.3395C0.478043 21.4625 0.231744 21.7028 0.101124 22.0075C-0.0294961 22.3122 -0.0337369 22.6562 0.0893347 22.964C0.212406 23.2718 0.452709 23.5181 0.757378 23.6487L1.68613 24.0462L0.366126 25.3662C0.250069 25.4823 0.158008 25.6201 0.0951989 25.7717C0.0323896 25.9234 6.17959e-05 26.0859 6.17946e-05 26.25C6.17934e-05 26.4141 0.0323896 26.5766 0.0951989 26.7283C0.158008 26.8799 0.250069 27.0177 0.366126 27.1338C0.482182 27.2498 0.619961 27.3419 0.771596 27.4047C0.923232 27.4675 1.08575 27.4998 1.24988 27.4998C1.41401 27.4998 1.57653 27.4675 1.72817 27.4047C1.8798 27.3419 2.01758 27.2498 2.13364 27.1338L4.1599 25.1075L9.50744 27.3988C9.65829 27.4634 9.82041 27.4978 9.98454 27.4998C10.1487 27.5018 10.3116 27.4715 10.464 27.4105C10.6164 27.3496 10.7553 27.2592 10.8728 27.1446C10.9903 27.03 11.084 26.8934 11.1487 26.7425C11.2134 26.5916 11.2477 26.4295 11.2497 26.2654C11.2518 26.1013 11.2214 25.9384 11.1605 25.786C11.0996 25.6336 11.0092 25.4946 10.8946 25.3772C10.7799 25.2597 10.6433 25.1659 10.4924 25.1013ZM39.1451 21.3137L37.3139 20.7038L38.3826 19.635C38.4987 19.5189 38.5908 19.3812 38.6536 19.2295C38.7164 19.0779 38.7487 18.9154 38.7487 18.7512C38.7487 18.5871 38.7164 18.4246 38.6536 18.273C38.5908 18.1213 38.4987 17.9836 38.3826 17.8675C38.2666 17.7514 38.1288 17.6594 37.9772 17.5966C37.8255 17.5338 37.663 17.5014 37.4989 17.5014C37.3348 17.5014 37.1722 17.5338 37.0206 17.5966C36.869 17.6594 36.7312 17.7514 36.6151 17.8675L35.6764 18.8062L34.9614 15.9475C34.9215 15.7884 34.8506 15.6386 34.7529 15.5069C34.6551 15.3751 34.5324 15.2639 34.3916 15.1795C34.2509 15.0952 34.0949 15.0394 33.9326 15.0154C33.7703 14.9913 33.6049 14.9995 33.4457 15.0394C33.2866 15.0793 33.1368 15.1501 33.0051 15.2479C32.8733 15.3456 32.7621 15.4684 32.6778 15.6091C32.5934 15.7498 32.5377 15.9058 32.5136 16.0681C32.4896 16.2304 32.4977 16.3959 32.5376 16.555L33.6151 20.8675L29.1151 25.3675C28.8808 25.6021 28.7494 25.92 28.7496 26.2515C28.7499 26.583 28.8818 26.9008 29.1163 27.135C29.3509 27.3692 29.6689 27.5007 30.0003 27.5004C30.3318 27.5002 30.6496 27.3683 30.8838 27.1338L35.3376 22.68L38.3539 23.6862C38.5097 23.7382 38.6742 23.759 38.838 23.7474C39.0018 23.7357 39.1617 23.692 39.3086 23.6186C39.4555 23.5451 39.5865 23.4435 39.6941 23.3195C39.8017 23.1954 39.8838 23.0514 39.9358 22.8956C39.9877 22.7398 40.0085 22.5754 39.9969 22.4116C39.9853 22.2477 39.9415 22.0878 39.8681 21.9409C39.7947 21.7941 39.693 21.6631 39.569 21.5554C39.4449 21.4478 39.3009 21.3657 39.1451 21.3137Z" fill="#FFAC33"/>
</svg>
