<svg width="36" height="46" viewBox="0 0 36 46" fill="none" xmlns="http://www.w3.org/2000/svg">
<path d="M12.4972 6.15632C12.4972 5.07556 12.8179 4.01907 13.4189 3.12045C14.0199 2.22183 14.8741 1.52144 15.8735 1.10785C16.8729 0.694262 17.9727 0.586048 19.0336 0.796894C20.0946 1.00774 21.0692 1.52818 21.8341 2.29239C22.599 3.0566 23.1199 4.03027 23.3309 5.09027C23.542 6.15026 23.4337 7.24898 23.0197 8.24747C22.6057 9.24596 21.9047 10.0994 21.0053 10.6998C20.1058 11.3003 19.0483 11.6208 17.9666 11.6208C16.516 11.6208 15.1248 11.045 14.0991 10.0203C13.0734 8.99548 12.4972 7.60558 12.4972 6.15632ZM35.043 26.605L26.204 16.5934C25.6907 16.0119 25.0595 15.5462 24.3522 15.2272C23.645 14.9083 22.8779 14.7433 22.1019 14.7433H13.8313C13.0553 14.7433 12.2882 14.9083 11.581 15.2272C10.8737 15.5462 10.2425 16.0119 9.72923 16.5934L0.89023 26.605C0.316281 27.1917 -0.00349611 27.9805 2.88353e-05 28.8009C0.00355378 29.6213 0.330098 30.4074 0.909066 30.9891C1.48804 31.5709 2.27291 31.9016 3.09402 31.9099C3.91513 31.9181 4.70649 31.6032 5.29703 31.0331L10.3484 26.9797L6.50031 41.5931C6.16552 42.344 6.1406 43.1965 6.43097 43.9657C6.72133 44.7348 7.30356 45.3585 8.05131 45.7015C8.79906 46.0445 9.65201 46.079 10.4251 45.7976C11.1982 45.5162 11.829 44.9416 12.1807 44.1985L17.9666 34.2591L23.7447 44.2122C24.0964 44.9553 24.7272 45.5299 25.5003 45.8113C26.2734 46.0927 27.1263 46.0581 27.8741 45.7151C28.6218 45.3722 29.204 44.7485 29.4944 43.9793C29.7848 43.2102 29.7599 42.3577 29.4251 41.6068L25.5847 26.9797L30.644 31.0331C31.2345 31.6032 32.0259 31.9181 32.847 31.9099C33.6681 31.9016 34.453 31.5709 35.0319 30.9891C35.6109 30.4074 35.9375 29.6213 35.941 28.8009C35.9445 27.9805 35.6247 27.1917 35.0508 26.605H35.043Z" fill="#F2E205"/>
</svg>
