<svg width="36" height="47" viewBox="0 0 36 47" fill="none" xmlns="http://www.w3.org/2000/svg">
<path d="M12.4972 6.20784C12.4972 5.12708 12.8179 4.07059 13.4189 3.17196C14.0199 2.27334 14.8741 1.57296 15.8735 1.15937C16.8729 0.745776 17.9727 0.637562 19.0336 0.848408C20.0946 1.05925 21.0692 1.57969 21.8341 2.3439C22.599 3.10812 23.1199 4.08179 23.3309 5.14178C23.542 6.20178 23.4337 7.30049 23.0197 8.29898C22.6057 9.29748 21.9047 10.1509 21.0053 10.7513C20.1058 11.3518 19.0483 11.6723 17.9666 11.6723C16.516 11.6723 15.1248 11.0966 14.0991 10.0718C13.0734 9.04699 12.4972 7.65709 12.4972 6.20784ZM35.043 26.6565L26.204 16.6449C25.6907 16.0634 25.0595 15.5977 24.3522 15.2788C23.645 14.9598 22.8779 14.7948 22.1019 14.7948H13.8313C13.0553 14.7948 12.2882 14.9598 11.581 15.2788C10.8737 15.5977 10.2425 16.0634 9.72923 16.6449L0.89023 26.6565C0.316281 27.2432 -0.00349611 28.032 2.88353e-05 28.8524C0.00355378 29.6728 0.330098 30.4589 0.909066 31.0406C1.48804 31.6224 2.27291 31.9532 3.09402 31.9614C3.91513 31.9696 4.70649 31.6547 5.29703 31.0846L10.3484 27.0312L6.50031 41.6447C6.16552 42.3955 6.1406 43.2481 6.43097 44.0172C6.72133 44.7863 7.30356 45.41 8.05131 45.753C8.79906 46.096 9.65201 46.1305 10.4251 45.8491C11.1982 45.5677 11.829 44.9931 12.1807 44.25L17.9666 34.3106L23.7447 44.2637C24.0964 45.0068 24.7272 45.5814 25.5003 45.8628C26.2734 46.1442 27.1263 46.1096 27.8741 45.7667C28.6218 45.4237 29.204 44.8 29.4944 44.0309C29.7848 43.2617 29.7599 42.4092 29.4251 41.6583L25.5847 27.0312L30.644 31.0846C31.2345 31.6547 32.0259 31.9696 32.847 31.9614C33.6681 31.9532 34.453 31.6224 35.0319 31.0406C35.6109 30.4589 35.9375 29.6728 35.941 28.8524C35.9445 28.032 35.6247 27.2432 35.0508 26.6565H35.043Z" fill="#F6821F"/>
</svg>
