<svg width="31" height="30" viewBox="0 0 31 30" fill="none" xmlns="http://www.w3.org/2000/svg">
<path d="M15.0015 0C23.286 0 30.0015 6.7155 30.0015 15C30.0015 23.2845 23.286 30 15.0015 30C12.3507 30.0043 9.74653 29.3028 7.45655 27.9675L0.00754698 30L2.03555 22.548C0.699187 20.2573 -0.00288169 17.652 0.0015467 15C0.0015467 6.7155 6.71705 0 15.0015 0ZM9.88955 7.95L9.58955 7.962C9.39533 7.97383 9.20552 8.02485 9.03155 8.112C8.86883 8.20414 8.72029 8.31934 8.59055 8.454C8.41055 8.6235 8.30855 8.7705 8.19905 8.913C7.64423 9.63435 7.34551 10.52 7.35005 11.43C7.35305 12.165 7.54505 12.8805 7.84505 13.5495C8.45855 14.9025 9.46805 16.335 10.8 17.6625C11.121 17.982 11.436 18.303 11.775 18.6015C13.4301 20.0587 15.4024 21.1096 17.535 21.6705L18.387 21.801C18.6645 21.816 18.942 21.795 19.221 21.7815C19.6579 21.7589 20.0845 21.6407 20.4705 21.435C20.667 21.3338 20.8587 21.2237 21.045 21.105C21.045 21.105 21.1095 21.063 21.2325 20.97C21.435 20.82 21.5595 20.7135 21.7275 20.538C21.852 20.409 21.96 20.2575 22.0425 20.085C22.1595 19.8405 22.2765 19.374 22.3245 18.9855C22.3605 18.6885 22.35 18.5265 22.3455 18.426C22.3395 18.2655 22.206 18.099 22.0605 18.0285L21.1875 17.637C21.1875 17.637 19.8825 17.0685 19.0845 16.7055C19.001 16.669 18.9116 16.6482 18.8205 16.644C18.7179 16.6335 18.6142 16.645 18.5164 16.6779C18.4186 16.7107 18.329 16.7641 18.2535 16.8345C18.246 16.8315 18.1455 16.917 17.061 18.231C16.9988 18.3146 16.9131 18.3779 16.8148 18.4126C16.7164 18.4473 16.61 18.452 16.509 18.426C16.4113 18.3998 16.3156 18.3667 16.2225 18.327C16.0365 18.249 15.972 18.219 15.8445 18.165C14.9836 17.7893 14.1866 17.2817 13.482 16.6605C13.293 16.4955 13.1175 16.3155 12.9375 16.1415C12.3474 15.5763 11.8331 14.937 11.4075 14.2395L11.319 14.097C11.2555 14.0012 11.2041 13.898 11.166 13.7895C11.109 13.569 11.2575 13.392 11.2575 13.392C11.2575 13.392 11.622 12.993 11.7915 12.777C11.9565 12.567 12.096 12.363 12.186 12.2175C12.363 11.9325 12.4185 11.64 12.3255 11.4135C11.9055 10.3875 11.4705 9.366 11.0235 8.352C10.935 8.151 10.6725 8.007 10.434 7.9785C10.353 7.9695 10.272 7.9605 10.191 7.9545C9.98961 7.94449 9.78775 7.9465 9.58655 7.9605L9.88805 7.9485L9.88955 7.95Z" fill="black"/>
</svg>
