<svg width="201" height="200" viewBox="0 0 201 200" fill="none" xmlns="http://www.w3.org/2000/svg">
<path d="M0.944528 0.964607C0.737774 1.44703 0.668856 7.4429 0.737774 14.1969L0.944528 26.6021H27.1334V0.413263L14.1768 0.206509C4.04584 0.0686733 1.15128 0.206509 0.944528 0.964607ZM23.3429 22.8116H4.73502V4.20375H23.3429V22.8116Z" fill="black"/>
<path d="M8.45624 8.54559C8.24949 9.09694 8.18057 11.6469 8.31841 14.2658L8.52516 19.0211L19.8966 19.4346V7.64966H14.3832C10.3859 7.64966 8.73191 7.92533 8.45624 8.54559Z" fill="black"/>
<path d="M30.9235 11.7847H32.991C34.714 11.7847 35.0586 12.0604 35.0586 13.5077C35.0586 14.955 34.714 15.2306 32.991 15.2306C31.1302 15.2306 30.9235 15.4374 30.9235 17.3671C30.9235 19.2279 31.1302 19.4346 32.8532 19.2279C34.3005 19.09 34.7829 18.6076 34.9207 17.0914C35.1275 15.2306 35.1964 15.2306 40.6409 15.2306H46.0854V27.0156L44.2246 26.8089C42.7084 26.671 42.226 26.1886 42.0882 24.6724C41.8814 23.2251 41.4679 22.8116 40.1585 22.8116C38.7801 22.8116 38.5044 23.1562 38.5044 24.8792C38.5044 26.6021 38.2288 26.9467 36.8504 26.9467C35.541 26.9467 35.1275 26.5332 34.9207 25.017C34.7829 23.5697 34.3005 23.0873 32.8532 22.9494C31.1302 22.7427 30.9235 22.9494 30.9235 24.8102C30.9235 26.7399 31.1302 26.9467 32.991 26.9467C34.714 26.9467 35.0586 27.2224 35.0586 28.6696V30.3926H12.3156V32.4601C12.3156 34.5277 12.2467 34.5277 8.52513 34.5277C4.80356 34.5277 4.73464 34.5277 4.73464 32.4601C4.73464 30.5993 4.52788 30.3926 2.59818 30.3926C0.737394 30.3926 0.53064 30.5993 0.737394 32.2534C0.87523 33.7696 1.35766 34.252 2.87385 34.3898C4.32113 34.5966 4.73464 35.0101 4.73464 36.3195C4.73464 37.6979 4.39005 37.9736 2.6671 37.9736C0.944147 37.9736 0.599558 38.2492 0.599558 39.6965C0.599558 41.1438 0.944147 41.4195 2.6671 41.4195C4.73464 41.4195 4.73464 41.4884 4.73464 45.141C4.73464 48.7248 4.66572 48.9315 2.87385 49.1383C1.35766 49.2761 0.87523 49.7585 0.737394 51.2058C0.53064 52.9288 0.737394 53.1355 2.59818 53.1355H4.73464V64.1624H2.59818C0.737394 64.1624 0.53064 64.3692 0.737394 66.0232C0.87523 67.5394 1.35766 68.0218 2.87385 68.1596C4.52788 68.3664 4.73464 68.1596 4.73464 66.2989C4.73464 64.507 5.01031 64.1624 6.45759 64.1624C7.83595 64.1624 8.18054 63.8178 8.18054 62.4394C8.18054 60.7854 8.38729 60.7165 11.971 60.7165C15.5548 60.7165 15.7615 60.7854 15.7615 62.4394C15.7615 63.8178 15.4169 64.1624 14.0386 64.1624C12.5913 64.1624 12.3156 64.507 12.3156 66.2299C12.3156 68.0907 12.1089 68.2975 10.1792 68.2975H8.11162L8.31837 71.8812L8.52513 75.5339L12.1778 75.7406C15.4858 75.9474 15.7615 76.0852 15.7615 77.6703C15.7615 79.2554 15.5548 79.3244 11.971 79.3244C8.38729 79.3244 8.18054 79.4622 8.18054 80.9784C8.18054 82.2878 8.59404 82.7013 10.1102 82.9081C11.8332 83.1149 11.971 83.3905 12.1778 86.6986L12.3845 90.3512H10.317C8.52513 90.3512 8.18054 90.0756 8.18054 88.6283C8.18054 87.2499 7.83595 86.9053 6.45759 86.9053C5.07923 86.9053 4.73464 87.2499 4.73464 88.5594C4.73464 89.8688 4.32113 90.2823 2.87385 90.4891L0.944148 90.6958V109.304L4.5968 109.51L8.18054 109.717V107.65C8.18054 105.513 8.18054 105.513 11.971 105.513C15.6926 105.513 15.7615 105.513 15.7615 107.581V109.648H35.0586V111.371C35.0586 112.819 34.714 113.094 32.991 113.094C30.9235 113.094 30.9235 113.163 30.9235 116.885V120.675H27.133C23.5492 120.675 23.3425 120.537 23.3425 119.021C23.3425 117.712 23.756 117.298 25.2722 117.091C26.7195 116.954 27.2019 116.471 27.3397 114.955L27.5465 113.094H8.18054V115.162C8.18054 116.885 7.90486 117.229 6.45759 117.229C5.01031 117.229 4.73464 116.885 4.73464 115.162C4.73464 113.301 4.52788 113.094 2.6671 113.094C0.599558 113.094 0.599558 113.163 0.599558 116.885C0.599558 120.606 0.599558 120.675 2.6671 120.675C4.73464 120.675 4.73464 120.744 4.73464 124.466C4.73464 128.187 4.73464 128.256 2.6671 128.256C0.944147 128.256 0.599558 128.532 0.599558 129.979C0.599558 131.426 0.944147 131.702 2.6671 131.702C4.52788 131.702 4.73464 131.909 4.73464 133.77C4.73464 135.63 4.52788 135.837 2.59818 135.837H0.53064L0.737394 139.421C0.944148 142.798 1.08198 143.074 2.87385 143.28C4.32113 143.487 4.73464 143.901 4.73464 145.21C4.73464 146.726 4.94139 146.864 8.52513 146.864C12.1089 146.864 12.3156 146.795 12.3156 145.141C12.3156 143.763 12.6602 143.418 14.0386 143.418C15.7615 143.418 15.7615 143.487 15.7615 148.932V154.445H17.8291C19.552 154.445 19.8966 154.169 19.8966 152.722C19.8966 151.344 20.2412 150.999 21.6195 150.999C22.9979 150.999 23.3425 151.344 23.3425 152.722C23.3425 154.169 23.6871 154.445 25.41 154.445C27.133 154.445 27.4776 154.169 27.4776 152.722C27.4776 151.275 27.133 150.999 25.41 150.999C23.5492 150.999 23.3425 150.792 23.3425 148.932C23.3425 146.864 23.4114 146.864 27.133 146.864H30.9235V162.026H46.0854V169.607H42.2949C38.5045 169.607 38.5044 169.607 38.5044 167.539V165.403L23.6871 165.816L23.4803 167.677C23.2736 169.607 23.3425 169.607 27.0641 169.607H30.9235V188.215H34.714C38.4355 188.215 38.5044 188.215 38.5044 190.282C38.5044 192.005 38.2288 192.35 36.7815 192.35C35.4031 192.35 35.0586 192.694 35.0586 194.073C35.0586 195.52 34.714 195.796 32.991 195.796C31.1302 195.796 30.9235 196.003 30.9235 197.932C30.9235 199.793 31.1302 200 32.8532 199.793C34.3005 199.655 34.7829 199.173 34.9207 197.657C35.1275 196.209 35.541 195.796 36.8504 195.796C38.2288 195.796 38.5044 196.14 38.5044 197.863V200L53.3218 199.586L53.5286 197.725C53.7353 196.209 54.1488 195.796 55.4583 195.796C56.9745 195.796 57.1123 195.589 57.1123 192.005C57.1123 188.284 57.1123 188.215 59.1798 188.215C61.0406 188.215 61.2474 188.422 61.2474 190.282C61.2474 192.005 61.5231 192.35 62.9703 192.35C64.3487 192.35 64.6933 192.694 64.6933 194.073C64.6933 195.451 64.3487 195.796 62.9703 195.796C61.5231 195.796 61.2474 196.14 61.2474 197.863C61.2474 199.586 61.5231 199.931 62.9703 199.931C64.4176 199.931 64.6933 199.586 64.6933 197.863C64.6933 196.003 64.9 195.796 66.7608 195.796C68.6216 195.796 68.8284 196.003 68.8284 197.863C68.8284 199.586 69.104 199.931 70.5513 199.931C71.9986 199.931 72.2743 199.586 72.2743 197.863C72.2743 195.796 72.3432 195.796 76.0648 195.796C79.8552 195.796 79.8552 195.796 79.8552 197.932C79.8552 199.724 80.062 200 81.4404 199.793C82.8876 199.586 82.9566 199.242 83.1633 192.143L83.3701 184.769H85.3687C87.4362 184.769 87.4362 184.7 87.4362 180.978C87.4362 177.395 87.5051 177.188 89.1592 177.188C90.8132 177.188 90.8821 177.395 90.8821 180.978C90.8821 184.7 90.8821 184.769 92.9497 184.769C95.0172 184.769 95.0172 184.838 95.0172 188.559C95.0172 192.143 95.0861 192.35 96.7402 192.35C98.3942 192.35 98.4631 192.143 98.4631 188.559C98.4631 184.838 98.4631 184.769 100.531 184.769C102.598 184.769 102.598 184.838 102.598 188.559C102.598 192.143 102.667 192.35 104.321 192.35C105.699 192.35 106.044 192.694 106.044 194.073C106.044 195.451 105.699 195.796 104.321 195.796C102.874 195.796 102.598 196.14 102.598 197.794C102.598 199.379 102.874 199.724 104.183 199.655C105.286 199.586 105.768 199.104 105.906 197.725C106.113 196.071 106.458 195.796 108.181 195.796H110.179V190.282C110.179 184.838 110.179 184.769 111.902 184.769H113.625V199.931H121.206V194.073C121.206 188.284 121.206 188.215 119.483 188.215C118.105 188.215 117.76 187.87 117.76 186.492C117.76 185.113 118.105 184.769 119.483 184.769C120.93 184.769 121.206 184.424 121.206 182.701C121.206 180.978 121.482 180.634 122.86 180.634C124.17 180.634 124.583 181.047 124.79 182.495C124.928 184.011 125.41 184.493 126.926 184.631L128.787 184.838V169.607H130.51C131.888 169.607 132.233 169.952 132.233 171.33C132.233 172.777 132.577 173.053 134.3 173.053C136.161 173.053 136.368 173.26 136.368 175.12C136.368 176.981 136.161 177.188 134.3 177.188C132.577 177.188 132.233 177.464 132.233 178.911C132.233 180.358 132.577 180.634 134.3 180.634C136.161 180.634 136.368 180.841 136.368 182.701C136.368 184.424 136.644 184.769 138.091 184.769C139.814 184.769 139.814 184.838 139.814 190.282C139.814 195.727 139.814 195.796 138.091 195.796C136.437 195.796 136.368 195.589 136.368 192.005V188.215H124.583L124.79 190.076C124.997 191.867 125.272 192.005 128.58 192.212L132.164 192.419L132.577 199.586H143.604L143.811 195.934C144.018 192.694 144.156 192.35 145.672 192.35C147.188 192.35 147.326 192.694 147.533 195.934C147.739 199.311 147.877 199.586 149.462 199.586C151.116 199.586 151.185 199.448 151.392 193.866L151.599 188.215H147.739C144.156 188.215 143.949 188.146 143.949 186.492C143.949 184.769 144.018 184.769 149.462 184.769H154.976V182.701C154.976 180.634 155.045 180.634 158.766 180.634C162.488 180.634 162.557 180.634 162.557 182.701C162.557 184.424 162.281 184.769 160.834 184.769C159.456 184.769 159.111 185.113 159.111 186.492C159.111 187.939 158.766 188.215 157.043 188.215C155.183 188.215 154.976 188.422 154.976 190.282C154.976 192.143 155.183 192.35 157.043 192.35C158.904 192.35 159.111 192.143 159.111 190.282C159.111 188.559 159.387 188.215 160.834 188.215C162.281 188.215 162.557 188.559 162.557 190.282C162.557 192.005 162.281 192.35 160.903 192.35C159.869 192.35 159.111 192.832 158.904 193.659C158.491 195.382 158.904 195.796 160.972 195.796C162.281 195.796 162.557 196.14 162.557 197.863V199.931H173.584V197.863C173.584 196.003 173.79 195.796 175.651 195.796C177.719 195.796 177.719 195.727 177.719 192.005C177.719 188.284 177.719 188.215 175.651 188.215C173.928 188.215 173.584 187.939 173.584 186.492C173.584 184.769 173.653 184.769 179.442 184.769C185.231 184.769 185.3 184.769 185.3 186.492C185.3 188.146 185.507 188.215 189.159 188.215C192.881 188.215 192.95 188.215 192.743 190.076C192.536 192.005 192.467 192.005 186.816 192.212L181.096 192.419L181.303 196.003C181.509 199.311 181.647 199.586 183.232 199.586C184.611 199.586 185.024 199.173 185.162 197.657C185.369 195.865 185.575 195.796 189.09 195.796C192.605 195.796 192.812 195.865 193.019 197.657C193.156 199.035 193.639 199.655 194.81 199.793C196.12 200 196.327 199.724 196.327 197.932C196.327 196.003 196.533 195.796 198.394 195.796C200.462 195.796 200.462 195.727 200.462 192.005V188.215H196.671C193.087 188.215 192.881 188.146 192.881 186.492C192.881 185.113 193.225 184.769 194.604 184.769C196.327 184.769 196.327 184.7 196.327 178.911V173.053H200.462V154.445H198.394C196.671 154.445 196.327 154.169 196.327 152.791C196.327 151.481 196.74 151.068 198.256 150.861C199.704 150.723 200.186 150.241 200.324 148.725C200.531 147.071 200.324 146.864 198.463 146.864C196.671 146.864 196.327 146.588 196.327 145.21C196.327 143.901 196.74 143.487 198.256 143.28C199.979 143.074 200.117 142.798 200.324 139.421L200.531 135.837H198.463C196.327 135.837 196.327 135.837 196.327 139.628C196.327 143.211 196.258 143.418 194.604 143.418C193.156 143.418 192.881 143.073 192.881 141.351C192.881 139.283 192.812 139.283 189.09 139.283C185.507 139.283 185.3 139.214 185.3 137.56C185.3 136.182 185.644 135.837 187.023 135.837C188.47 135.837 188.746 135.493 188.746 133.77C188.746 132.047 188.47 131.702 187.023 131.702C185.644 131.702 185.3 131.357 185.3 129.979C185.3 128.256 185.369 128.256 190.813 128.256C196.258 128.256 196.327 128.256 196.327 129.979C196.327 131.426 196.671 131.702 198.394 131.702H200.462V117.229H198.394C196.533 117.229 196.327 117.022 196.327 115.162C196.327 113.301 196.533 113.094 198.394 113.094H200.462V102.067H198.394C196.533 102.067 196.327 101.861 196.327 99.9998C196.327 98.139 196.533 97.9322 198.394 97.9322H200.531L200.117 83.1149L198.256 82.9081L196.327 82.7013V97.9322H194.673C193.087 97.9322 192.95 97.6565 192.743 94.2796C192.536 90.9715 192.398 90.6958 190.675 90.4891C188.952 90.2823 188.746 90.4891 188.746 92.3499C188.746 94.1417 188.47 94.4863 187.023 94.4863C185.575 94.4863 185.3 94.1417 185.3 92.4188C185.3 90.558 185.093 90.3512 183.232 90.3512C181.509 90.3512 181.165 90.0756 181.165 88.6283C181.165 86.9053 181.234 86.9053 187.092 86.9053H192.95L192.743 84.9756C192.536 83.1148 192.467 83.1149 186.885 82.9081L181.165 82.7013V79.3244C181.165 75.9474 181.234 75.8785 183.232 75.8785C184.955 75.8785 185.3 76.1541 185.3 77.6014C185.3 78.9798 185.644 79.3244 187.023 79.3244C188.401 79.3244 188.746 78.9798 188.746 77.6014C188.746 76.1541 189.09 75.8785 190.813 75.8785C192.536 75.8785 192.881 76.1541 192.881 77.6014C192.881 79.2554 193.087 79.3244 196.671 79.3244C200.255 79.3244 200.462 79.2554 200.462 77.6014C200.462 75.9474 200.255 75.8785 196.671 75.8785H192.881V72.088C192.881 68.5042 192.95 68.2975 194.604 68.2975C195.982 68.2975 196.327 68.6421 196.327 70.0204C196.327 71.4677 196.671 71.7434 198.394 71.7434C200.462 71.7434 200.462 71.6745 200.462 67.9529C200.462 64.2313 200.462 64.1624 198.394 64.1624C196.671 64.1624 196.327 63.8867 196.327 62.5084C196.327 61.1989 196.74 60.7854 198.256 60.5787C199.704 60.4408 200.117 60.0273 200.117 58.649C200.117 57.2706 199.704 56.8571 198.256 56.7193C196.74 56.5125 196.327 56.099 196.327 54.7896C196.327 53.4112 196.671 53.1355 198.394 53.1355H200.531L200.324 47.4153C200.117 41.833 200.117 41.7641 198.256 41.5573C196.74 41.3505 196.327 40.937 196.327 39.6276C196.327 38.2492 196.671 37.9736 198.394 37.9736C200.462 37.9736 200.462 37.9047 200.462 34.1831V30.3926H188.677L188.883 32.2534C189.09 34.0452 189.366 34.1831 192.743 34.3898C196.051 34.5966 196.327 34.7344 196.327 36.3195C196.327 37.9046 196.189 37.9736 190.813 37.9736H185.3V34.1831C185.3 30.4615 185.3 30.3926 183.232 30.3926C181.165 30.3926 181.165 30.4615 181.165 34.1831C181.165 37.7668 181.096 37.9736 179.442 37.9736C178.063 37.9736 177.719 37.629 177.719 36.3195C177.719 35.0101 177.305 34.5966 175.858 34.3898C174.342 34.252 173.859 33.7696 173.722 32.2534C173.515 30.8061 173.101 30.3926 171.792 30.3926C170.276 30.3926 170.138 30.1858 170.138 26.6021C170.138 22.8805 170.138 22.8116 168.07 22.8116C166.003 22.8116 166.003 22.8805 166.003 26.6021C166.003 30.1858 165.934 30.3926 164.28 30.3926H162.557V11.7847H164.28C165.658 11.7847 166.003 12.1293 166.003 13.5077C166.003 14.955 166.347 15.2306 168.07 15.2306C169.793 15.2306 170.138 14.955 170.138 13.5077C170.138 12.0604 169.793 11.7847 168.07 11.7847C166.003 11.7847 166.003 11.7158 166.003 7.99424C166.003 4.41051 165.865 4.20375 164.349 4.20375C163.039 4.20375 162.626 3.79025 162.419 2.27405C162.281 0.964608 161.799 0.344346 160.696 0.20651C159.18 -0.000244141 159.111 0.20651 159.111 3.79025C159.111 7.64965 159.111 7.64965 157.043 7.64965C154.976 7.64965 154.976 7.71857 154.976 11.3712C154.976 14.955 155.045 15.1617 156.906 15.3685L158.766 15.5752L158.835 22.8116L158.973 30.048L160.765 30.2548C162.212 30.4615 162.557 30.875 162.557 32.529C162.557 34.1831 162.833 34.5277 164.28 34.5277C165.658 34.5277 166.003 34.8723 166.003 36.2506C166.003 37.8357 165.796 37.9736 162.557 37.9736C159.318 37.9736 159.111 38.1114 159.111 39.6965C159.111 41.0749 159.456 41.4195 160.834 41.4195C162.488 41.4195 162.557 41.6262 162.557 45.21C162.557 48.7937 162.488 49.0004 160.834 49.0004C159.18 49.0004 159.111 49.2072 159.111 52.7909C159.111 56.5125 159.111 56.5814 157.043 56.5814C155.183 56.5814 154.976 56.7882 154.976 58.649C154.976 60.3719 154.7 60.7165 153.253 60.7165C151.53 60.7165 151.53 60.6476 151.53 54.8585C151.53 49.0694 151.53 49.0004 153.253 49.0004C154.631 49.0004 154.976 48.6559 154.976 47.2775C154.976 45.8302 155.32 45.5545 157.112 45.5545C158.973 45.5545 159.18 45.3478 158.973 43.6248C158.835 42.1776 158.353 41.6951 156.906 41.5573C155.114 41.3505 154.976 41.1438 154.976 37.9736C154.976 34.8033 155.114 34.5966 156.906 34.3898C158.353 34.252 158.835 33.7696 158.973 32.2534C159.18 30.3926 159.111 30.3926 155.389 30.3926C151.737 30.3926 151.53 30.3237 151.53 28.6696C151.53 27.2913 151.875 26.9467 153.253 26.9467C154.7 26.9467 154.976 26.6021 154.976 24.8792C154.976 23.1562 154.7 22.8116 153.253 22.8116C151.806 22.8116 151.53 23.1562 151.53 24.8792C151.53 26.7399 151.323 26.9467 149.462 26.9467C147.395 26.9467 147.395 26.8778 147.395 23.1562C147.395 19.3657 147.395 19.3657 149.531 19.3657C151.392 19.3657 151.599 19.159 151.392 17.436C151.254 15.9887 150.772 15.5063 149.325 15.3685C147.808 15.1617 147.395 14.7482 147.395 13.4388C147.395 12.1293 147.05 11.7847 145.672 11.7847C144.225 11.7847 143.949 11.4401 143.949 9.71719C143.949 7.99424 144.225 7.64965 145.672 7.64965C147.05 7.64965 147.395 7.30506 147.395 5.9267C147.395 4.27267 147.602 4.20375 151.185 4.20375C154.976 4.20375 154.976 4.20375 154.976 2.13621V-0.000244141L140.158 0.413264L139.952 2.27405C139.745 3.79025 139.331 4.20375 138.022 4.20375C136.713 4.20375 136.368 4.54834 136.368 5.9267C136.368 7.64965 136.299 7.64965 130.51 7.64965C124.721 7.64965 124.652 7.64965 124.652 5.9267C124.652 4.47942 124.997 4.20375 126.719 4.20375C128.58 4.20375 128.787 3.997 128.787 2.13621C128.787 0.0686739 128.787 0.0686738 124.997 0.137592C121.275 0.275428 121.206 0.275428 121.206 2.20513C121.206 3.85916 120.93 4.20375 119.483 4.20375C118.105 4.20375 117.76 4.54834 117.76 5.9267C117.76 7.37398 117.416 7.64965 115.693 7.64965C113.625 7.64965 113.625 7.71857 113.625 11.4401V15.2306H102.598V11.4401C102.598 7.71857 102.598 7.64965 100.531 7.64965C98.8077 7.64965 98.4631 7.37398 98.4631 5.9267C98.4631 4.54834 98.1185 4.20375 96.7402 4.20375C95.3618 4.20375 95.0172 4.54834 95.0172 5.9267C95.0172 7.30506 95.3618 7.64965 96.7402 7.64965C98.3942 7.64965 98.4631 7.85641 98.4631 11.4401V15.2306H90.8821V11.4401C90.8821 7.85641 90.8132 7.64965 89.1592 7.64965C87.5051 7.64965 87.4362 7.4429 87.4362 3.85916V0.0686738H83.6457C79.9242 0.0686738 79.8552 0.0686739 79.8552 2.13621C79.8552 4.20375 79.7863 4.20375 76.0648 4.20375C72.481 4.20375 72.2743 4.27267 72.2743 5.9267C72.2743 7.30506 71.9297 7.64965 70.5513 7.64965C69.173 7.64965 68.8284 7.30506 68.8284 5.9267C68.8284 4.47942 68.4838 4.20375 66.7608 4.20375C64.9 4.20375 64.6933 3.997 64.6933 2.13621V-0.000244141L59.3866 0.20651C54.0799 0.413264 54.011 0.413264 53.8042 2.27405C53.5975 4.20375 53.6664 4.20375 57.388 4.20375C61.0406 4.20375 61.2474 4.27267 61.2474 5.9267C61.2474 7.58073 61.0406 7.64965 57.4569 7.64965C53.7353 7.64965 53.6664 7.64965 53.6664 9.71719C53.6664 11.578 53.4597 11.7847 51.5989 11.7847H49.6002L49.3935 6.06454C49.1867 0.826772 49.0489 0.413264 47.6705 0.20651C46.2922 -0.000244141 46.0854 0.275428 46.0854 2.0673C46.0854 3.997 45.8787 4.20375 44.0179 4.20375C42.1571 4.20375 41.9503 3.997 41.9503 2.13621V0.0686738H30.9235V11.7847ZM83.3011 7.99424C83.3011 11.7158 83.3011 11.7847 85.3687 11.7847C87.0916 11.7847 87.4362 12.0604 87.4362 13.5077C87.4362 14.886 87.7808 15.2306 89.1592 15.2306H90.8821V34.5277H89.1592C87.7808 34.5277 87.4362 34.8723 87.4362 36.2506C87.4362 37.9046 87.643 37.9736 91.2267 37.9736C94.8104 37.9736 95.0172 37.9046 95.0172 36.2506C95.0172 34.5966 95.0861 34.5966 102.46 34.3898L109.835 34.1831L110.041 32.2534C110.248 30.4615 110.455 30.3926 114.039 30.3926C117.76 30.3926 117.829 30.3926 117.622 32.2534C117.416 34.0452 117.14 34.1831 113.832 34.3898L110.179 34.5966V38.0425C110.179 41.3505 110.11 41.4195 108.112 41.4195C106.389 41.4195 106.044 41.1438 106.044 39.6965C106.044 37.9736 105.975 37.9736 100.531 37.9736C95.155 37.9736 95.0172 38.0425 95.0172 39.6276C95.0172 40.937 94.6037 41.3505 93.1564 41.5573C91.6402 41.6951 91.1578 42.1776 91.02 43.6248C90.8132 45.5545 90.7443 45.5545 85.2998 45.5545C79.9242 45.5545 79.8552 45.5545 79.8552 47.2775C79.8552 48.6559 80.1998 49.0004 81.5782 49.0004C83.0255 49.0004 83.3011 49.345 83.3011 51.068C83.3011 52.7909 83.0255 53.1355 81.5782 53.1355C79.9242 53.1355 79.8552 53.3423 79.8552 56.926C79.8552 60.5098 79.9931 60.7165 81.5093 60.7165C82.8187 60.7165 83.2322 60.303 83.439 58.7868C83.5768 57.3395 84.0592 56.8571 85.5754 56.7193C87.0227 56.5125 87.4362 56.099 87.4362 54.7896C87.4362 53.2734 87.643 53.1355 91.2267 53.1355C94.8104 53.1355 95.0172 53.2044 95.0172 54.8585C95.0172 56.2368 95.3618 56.5814 96.7402 56.5814C98.1185 56.5814 98.4631 56.2368 98.4631 54.8585C98.4631 53.4112 98.8077 53.1355 100.531 53.1355C102.391 53.1355 102.598 52.9288 102.598 51.068C102.598 49.345 102.874 49.0004 104.321 49.0004C105.768 49.0004 106.044 49.345 106.044 51.068C106.044 52.9288 106.251 53.1355 108.112 53.1355C110.179 53.1355 110.179 53.0666 110.179 49.345C110.179 45.7613 110.248 45.5545 111.902 45.5545C113.28 45.5545 113.625 45.8991 113.625 47.2775C113.625 49.0004 113.694 49.0004 119.138 49.0004H124.652V51.068C124.652 53.1355 124.721 53.1355 128.442 53.1355C132.026 53.1355 132.233 53.2044 132.233 54.8585C132.233 56.5814 132.164 56.5814 126.719 56.5814H121.206V58.649C121.206 60.3719 121.482 60.7165 122.929 60.7165C124.307 60.7165 124.652 61.0611 124.652 62.4394C124.652 63.8867 124.997 64.1624 126.719 64.1624C128.442 64.1624 128.787 63.8867 128.787 62.4394C128.787 61.0611 129.132 60.7165 130.51 60.7165C131.888 60.7165 132.233 61.0611 132.233 62.4394C132.233 64.0935 132.44 64.1624 136.023 64.1624C139.745 64.1624 139.814 64.1624 139.814 66.2299C139.814 68.0907 140.021 68.2975 141.881 68.2975C143.742 68.2975 143.949 68.0907 143.949 66.2299C143.949 64.507 144.225 64.1624 145.672 64.1624C147.119 64.1624 147.395 64.507 147.395 66.2299C147.395 67.9529 147.119 68.2975 145.672 68.2975C144.294 68.2975 143.949 68.6421 143.949 70.0204C143.949 71.4677 143.604 71.7434 141.881 71.7434C140.021 71.7434 139.814 71.9501 139.814 73.8109C139.814 75.5339 139.538 75.8785 138.091 75.8785C136.644 75.8785 136.368 75.5339 136.368 73.8109C136.368 72.088 136.644 71.7434 138.091 71.7434C139.469 71.7434 139.814 71.3988 139.814 70.0204C139.814 68.3664 139.607 68.2975 136.023 68.2975H132.233V79.3244H128.442C124.859 79.3244 124.652 79.3933 124.652 81.0473C124.652 82.4257 124.307 82.7703 122.929 82.7703C121.482 82.7703 121.206 83.1149 121.206 84.8378C121.206 86.9053 121.275 86.9053 124.928 86.9053C128.511 86.9053 128.718 86.8364 128.925 84.9756C129.063 83.6662 129.545 83.0459 130.717 82.9081C132.026 82.7013 132.233 82.977 132.233 84.7689C132.233 86.6986 132.44 86.9053 134.3 86.9053C136.023 86.9053 136.368 87.181 136.368 88.6283C136.368 90.0066 136.713 90.3512 138.091 90.3512C139.814 90.3512 139.814 90.2823 139.814 84.8378V79.3244H141.881C143.604 79.3244 143.949 79.0487 143.949 77.6014C143.949 76.2231 144.294 75.8785 145.672 75.8785C147.119 75.8785 147.395 75.5339 147.395 73.8109C147.395 71.9501 147.602 71.7434 149.462 71.7434C151.53 71.7434 151.53 71.7434 151.53 67.884V64.0935L155.183 64.3002C158.491 64.507 158.766 64.6448 158.766 66.2299C158.766 67.6083 158.353 68.0218 156.906 68.1596C155.389 68.3664 154.976 68.7799 154.976 70.0893C154.976 71.6055 155.183 71.7434 158.766 71.7434C162.35 71.7434 162.557 71.6745 162.557 70.0204C162.557 68.6421 162.901 68.2975 164.28 68.2975C165.658 68.2975 166.003 68.6421 166.003 70.0204C166.003 71.4677 166.347 71.7434 168.07 71.7434C169.931 71.7434 170.138 71.9501 170.138 73.8109C170.138 75.5339 170.413 75.8785 171.861 75.8785C173.584 75.8785 173.584 75.8095 173.584 70.0204V64.1624H175.651C177.374 64.1624 177.719 63.8867 177.719 62.4394C177.719 61.0611 178.063 60.7165 179.442 60.7165C181.096 60.7165 181.165 60.5098 181.165 56.926C181.165 53.3423 181.096 53.1355 179.442 53.1355C177.788 53.1355 177.719 52.9288 177.719 49.345C177.719 45.7613 177.788 45.5545 179.442 45.5545C181.096 45.5545 181.165 45.3478 181.165 41.7641C181.165 38.0425 181.165 37.9736 183.232 37.9736C184.955 37.9736 185.3 38.2492 185.3 39.6965C185.3 41.0749 185.644 41.4195 187.023 41.4195C188.47 41.4195 188.746 41.7641 188.746 43.487C188.746 45.5545 188.677 45.5545 184.955 45.5545H181.165V49.345C181.165 53.0666 181.165 53.1355 183.232 53.1355C185.093 53.1355 185.3 52.9288 185.3 51.068V49.0004H196.327V53.1355H185.3V56.926C185.3 60.6476 185.3 60.7165 183.232 60.7165C181.509 60.7165 181.165 60.9922 181.165 62.4394C181.165 63.8178 180.82 64.1624 179.442 64.1624C177.994 64.1624 177.719 64.507 177.719 66.2299C177.719 68.2975 177.788 68.2975 181.509 68.2975C185.231 68.2975 185.3 68.2975 185.3 66.2299C185.3 64.507 185.575 64.1624 187.023 64.1624C188.677 64.1624 188.746 63.9556 188.746 60.3719C188.746 56.6503 188.746 56.5814 190.813 56.5814H192.881V68.2975H189.09C185.507 68.2975 185.3 68.3664 185.3 70.0204C185.3 71.6745 185.093 71.7434 181.578 71.7434C177.994 71.7434 177.788 71.8123 177.581 73.6042C177.443 75.1204 176.961 75.6028 175.513 75.7406C173.722 75.9474 173.584 76.1541 173.584 79.3933C173.584 82.5635 173.446 82.7703 171.861 82.7703C170.413 82.7703 170.138 83.1149 170.138 84.8378C170.138 86.5607 170.413 86.9053 171.861 86.9053C173.239 86.9053 173.584 87.2499 173.584 88.6283C173.584 90.3512 173.515 90.3512 168.07 90.3512C162.626 90.3512 162.557 90.3512 162.557 88.5594C162.557 87.0432 162.281 86.8364 160.696 87.0432C158.904 87.2499 158.835 87.3878 159.042 90.8337L159.18 94.4863H157.112C155.183 94.4863 154.976 94.2796 154.976 92.4188C154.976 90.6958 154.7 90.3512 153.253 90.3512C151.806 90.3512 151.53 90.6958 151.53 92.4188V94.4863H136.368V92.4188C136.368 90.558 136.161 90.3512 134.3 90.3512C132.577 90.3512 132.233 90.0756 132.233 88.6283C132.233 87.2499 131.888 86.9053 130.51 86.9053C128.787 86.9053 128.787 86.9743 128.787 92.4188C128.787 97.8633 128.787 97.9322 130.51 97.9322C131.957 97.9322 132.233 98.2768 132.233 99.9998C132.233 102.067 132.302 102.067 136.023 102.067C139.745 102.067 139.814 102.067 139.814 99.9998C139.814 97.9322 139.883 97.9322 143.604 97.9322C147.326 97.9322 147.395 97.9322 147.395 99.9998V102.067H159.111V113.094H162.626C166.003 113.094 166.072 113.163 165.865 114.955C165.727 116.333 165.245 116.954 164.142 117.091C162.97 117.298 162.557 117.781 162.557 119.021C162.557 120.606 162.695 120.675 168.07 120.675C173.446 120.675 173.584 120.606 173.584 119.021C173.584 117.712 173.997 117.298 175.513 117.091C176.961 116.954 177.443 116.471 177.581 114.955C177.788 113.508 178.201 113.094 179.511 113.094C180.82 113.094 181.165 112.75 181.165 111.371C181.165 109.924 181.509 109.648 183.232 109.648H185.3V103.79C185.3 98.0011 185.3 97.9322 187.023 97.9322C188.677 97.9322 188.746 98.139 188.746 101.723C188.746 105.444 188.746 105.513 190.813 105.513C192.674 105.513 192.881 105.72 192.881 107.581C192.881 109.304 193.156 109.648 194.604 109.648C195.982 109.648 196.327 109.993 196.327 111.371C196.327 112.75 195.982 113.094 194.604 113.094C193.225 113.094 192.881 112.75 192.881 111.371C192.881 109.924 192.536 109.648 190.813 109.648C188.746 109.648 188.746 109.717 188.746 113.439C188.746 117.16 188.746 117.229 190.813 117.229C192.536 117.229 192.881 117.505 192.881 118.952C192.881 120.399 192.536 120.675 190.813 120.675C189.09 120.675 188.746 120.399 188.746 118.952C188.746 117.574 188.401 117.229 187.023 117.229C185.644 117.229 185.3 117.574 185.3 118.952C185.3 120.399 184.955 120.675 183.232 120.675C181.509 120.675 181.165 120.951 181.165 122.329C181.165 123.639 181.578 124.052 183.094 124.259C184.542 124.397 185.024 124.879 185.162 126.326C185.369 128.049 185.162 128.256 183.301 128.256C181.509 128.256 181.165 128.532 181.165 129.979C181.165 131.426 181.509 131.702 183.232 131.702C185.093 131.702 185.3 131.909 185.3 133.77C185.3 135.63 185.093 135.837 183.232 135.837C181.371 135.837 181.165 135.63 181.165 133.77C181.165 132.047 180.889 131.702 179.442 131.702C177.788 131.702 177.719 131.909 177.719 135.493C177.719 139.076 177.788 139.283 179.442 139.283C181.165 139.283 181.165 139.352 181.165 145.141C181.165 150.93 181.165 150.999 179.442 150.999C177.994 150.999 177.719 150.654 177.719 148.932C177.719 147.071 177.512 146.864 175.651 146.864H173.584V141.351C173.584 135.906 173.584 135.837 171.861 135.837C170.413 135.837 170.138 135.493 170.138 133.77C170.138 132.047 170.413 131.702 171.861 131.702C173.515 131.702 173.584 131.495 173.584 127.843V124.052L170 124.259C166.623 124.466 166.347 124.603 166.141 126.326C165.934 128.118 165.727 128.256 162.488 128.256C159.18 128.256 159.111 128.187 159.111 126.189C159.111 124.466 159.387 124.121 160.834 124.121C162.212 124.121 162.557 123.776 162.557 122.398V120.675H147.395V118.952C147.395 117.298 147.188 117.229 143.604 117.229C140.021 117.229 139.814 117.298 139.814 118.952C139.814 120.331 139.469 120.675 138.091 120.675C136.437 120.675 136.368 120.882 136.368 124.466C136.368 128.049 136.437 128.256 138.091 128.256C139.469 128.256 139.814 128.601 139.814 129.979C139.814 131.357 139.469 131.702 138.091 131.702C136.644 131.702 136.368 132.047 136.368 133.77V135.837H151.53V129.979C151.53 124.19 151.53 124.121 153.253 124.121C154.907 124.121 154.976 124.328 154.976 127.843C154.976 131.426 155.045 131.633 156.906 131.84C158.353 131.978 158.835 132.46 158.973 133.976C159.18 135.699 159.387 135.837 162.626 135.837H166.003V150.999H169.793C173.377 150.999 173.584 151.068 173.584 152.722C173.584 154.376 173.79 154.445 177.374 154.445C181.165 154.445 181.165 154.445 181.165 156.581C181.165 158.442 181.371 158.649 183.094 158.442C184.817 158.235 184.955 157.96 185.162 154.583C185.369 151.275 185.507 150.999 187.092 150.999C188.677 150.999 188.746 151.137 188.746 156.512V162.026H184.955C181.371 162.026 181.165 162.095 181.165 163.749C181.165 165.403 180.958 165.472 177.374 165.472H173.584V162.026C173.584 158.787 173.446 158.58 171.861 158.58C170.482 158.58 170.138 158.925 170.138 160.303C170.138 161.75 169.793 162.026 168.07 162.026C166.003 162.026 166.003 162.095 166.003 165.816C166.003 169.4 165.934 169.607 164.28 169.607C162.833 169.607 162.557 169.262 162.557 167.539C162.557 165.816 162.281 165.472 160.834 165.472C159.18 165.472 159.111 165.679 159.111 169.262V173.053H166.003V176.843C166.003 180.427 165.934 180.634 164.28 180.634C162.901 180.634 162.557 180.289 162.557 178.911C162.557 177.532 162.212 177.188 160.834 177.188C159.387 177.188 159.111 176.843 159.111 175.12C159.111 173.26 158.904 173.053 157.043 173.053C154.976 173.053 154.976 173.122 154.976 176.843V180.634H143.949V182.701C143.949 184.562 143.742 184.769 141.881 184.769C139.814 184.769 139.814 184.7 139.814 180.978V177.188H143.604C147.326 177.188 147.395 177.188 147.395 175.12C147.395 173.053 147.464 173.053 151.185 173.053H154.976V165.472H151.185C147.602 165.472 147.395 165.403 147.395 163.749C147.395 162.095 147.602 162.026 151.185 162.026H154.976V158.235C154.976 154.514 154.976 154.445 157.043 154.445C158.904 154.445 159.111 154.652 159.111 156.512C159.111 157.822 159.456 158.58 160.007 158.511C161.937 158.235 162.557 158.649 162.557 160.303C162.557 161.681 162.901 162.026 164.28 162.026C165.658 162.026 166.003 161.681 166.003 160.303C166.003 158.925 165.658 158.58 164.28 158.58C162.833 158.58 162.557 158.235 162.557 156.512C162.557 154.79 162.833 154.445 164.28 154.445C165.658 154.445 166.003 154.1 166.003 152.722C166.003 150.999 165.934 150.999 160.489 150.999H154.976V148.932C154.976 147.209 154.7 146.864 153.253 146.864C151.875 146.864 151.53 146.519 151.53 145.141C151.53 143.763 151.875 143.418 153.253 143.418C154.7 143.418 154.976 143.073 154.976 141.351C154.976 139.49 155.183 139.283 157.043 139.283C158.766 139.283 159.111 139.007 159.111 137.56C159.111 135.906 158.904 135.837 155.32 135.837C151.737 135.837 151.53 135.906 151.53 137.56C151.53 139.214 151.323 139.283 147.739 139.283C144.018 139.283 143.949 139.283 143.949 141.351C143.949 143.073 144.225 143.418 145.672 143.418C147.05 143.418 147.395 143.763 147.395 145.141C147.395 146.519 147.05 146.864 145.672 146.864C144.018 146.864 143.949 147.071 143.949 150.654C143.949 154.238 144.018 154.445 145.672 154.445C147.05 154.445 147.395 154.1 147.395 152.722C147.395 151.275 147.739 150.999 149.531 150.999H151.599L151.392 154.583L151.185 158.235L139.814 158.649V162.026C139.814 165.196 139.952 165.403 141.744 165.61C143.467 165.816 143.604 166.092 143.811 169.4L144.018 173.053H140.227C136.575 173.053 136.368 172.984 136.368 171.33C136.368 169.883 136.023 169.607 134.232 169.607C132.371 169.607 132.164 169.4 132.371 167.746C132.509 166.23 132.991 165.748 134.507 165.61C136.23 165.403 136.368 165.196 136.368 161.957V158.58H132.577C128.856 158.58 128.787 158.58 128.787 156.512C128.787 154.652 128.58 154.445 126.719 154.445C125.41 154.445 124.652 154.1 124.721 153.549C124.997 151.619 124.583 150.999 122.929 150.999C121.551 150.999 121.206 151.344 121.206 152.722C121.206 154.1 120.861 154.445 119.552 154.445C118.243 154.445 117.829 154.858 117.622 156.306C117.484 157.822 117.002 158.304 115.555 158.442C113.832 158.649 113.625 158.442 113.625 156.581C113.625 154.652 113.832 154.445 115.693 154.445C117.416 154.445 117.76 154.169 117.76 152.722C117.76 151.344 118.105 150.999 119.483 150.999C120.93 150.999 121.206 150.654 121.206 148.932C121.206 147.209 120.93 146.864 119.552 146.864C118.243 146.864 117.829 147.277 117.622 148.725C117.416 150.517 117.14 150.654 113.832 150.861C110.455 151.068 110.179 151.206 110.179 152.791C110.179 154.169 109.835 154.445 108.112 154.445C106.044 154.445 106.044 154.514 106.044 158.235V162.026H109.835C113.418 162.026 113.625 162.164 113.625 163.68C113.625 164.989 114.039 165.403 115.555 165.61C117.278 165.816 117.416 166.092 117.622 169.4C117.829 172.777 117.967 173.053 119.552 173.053C120.93 173.053 121.206 173.397 121.206 175.12V177.188H110.248L109.835 165.816L102.46 165.61C95.0861 165.403 95.0172 165.403 95.0172 163.749C95.0172 162.302 94.6726 162.026 92.9497 162.026H90.8821V167.539C90.8821 172.984 90.8821 173.053 89.1592 173.053C87.7119 173.053 87.4362 173.397 87.4362 175.12C87.4362 176.981 87.2295 177.188 85.3687 177.188H83.2322L83.439 171.468C83.6457 165.885 83.6457 165.816 85.5754 165.61C87.0227 165.403 87.4362 164.989 87.4362 163.68C87.4362 162.302 87.0916 162.026 85.3687 162.026C83.6457 162.026 83.3011 162.302 83.3011 163.749C83.3011 165.334 83.0944 165.472 79.8552 165.472H76.4093V173.053H72.6189C68.8973 173.053 68.8284 173.053 68.8284 175.12C68.8284 176.843 69.104 177.188 70.5513 177.188C71.9297 177.188 72.2743 177.532 72.2743 178.911C72.2743 180.565 72.481 180.634 76.0648 180.634H79.8552V188.215H76.0648C72.3432 188.215 72.2743 188.215 72.2743 190.282C72.2743 192.35 72.2053 192.35 68.4838 192.35C64.7622 192.35 64.6933 192.35 64.6933 190.282C64.6933 188.559 64.4176 188.215 62.9703 188.215C61.592 188.215 61.2474 187.87 61.2474 186.492C61.2474 185.113 61.592 184.769 62.9703 184.769C64.4176 184.769 64.6933 184.424 64.6933 182.701C64.6933 180.978 64.4176 180.634 62.9703 180.634C61.3163 180.634 61.2474 180.427 61.2474 176.843V173.053H57.4569C53.7353 173.053 53.6664 173.053 53.6664 175.12C53.6664 176.843 53.9421 177.188 55.3894 177.188C56.7677 177.188 57.1123 177.532 57.1123 178.911C57.1123 180.289 56.7677 180.634 55.3894 180.634C54.011 180.634 53.6664 180.289 53.6664 178.911C53.6664 177.464 53.3218 177.188 51.5989 177.188C49.5313 177.188 49.5313 177.257 49.5313 180.978C49.5313 184.7 49.5313 184.769 51.5989 184.769C53.3218 184.769 53.6664 185.045 53.6664 186.492C53.6664 188.146 53.4597 188.215 49.8759 188.215C46.1543 188.215 46.0854 188.215 46.0854 190.282C46.0854 192.005 46.3611 192.35 47.8084 192.35C49.1867 192.35 49.5313 192.694 49.5313 194.073C49.5313 195.451 49.1867 195.796 47.8084 195.796C46.43 195.796 46.0854 195.451 46.0854 194.142C46.0854 192.832 45.6719 192.419 44.2246 192.212C42.4328 192.005 42.2949 191.73 42.0882 188.422L41.8814 184.769H46.0854V177.188C46.0854 169.607 46.0854 169.607 47.7395 169.607C49.0489 169.607 49.4624 169.193 49.6692 167.677C49.807 166.23 50.2894 165.748 51.8056 165.61C53.5286 165.403 53.6664 165.196 53.6664 162.026V158.649L48.0151 158.442C42.3639 158.235 42.2949 158.235 42.0882 156.306C41.8814 154.858 41.4679 154.445 40.1585 154.445C38.7801 154.445 38.5044 154.79 38.5044 156.512C38.5044 158.235 38.2288 158.58 36.7815 158.58C35.3342 158.58 35.0586 158.235 35.0586 156.512C35.0586 154.79 35.3342 154.445 36.7815 154.445C38.4355 154.445 38.5044 154.238 38.5044 150.654C38.5044 147.071 38.5734 146.864 40.2274 146.864C41.6058 146.864 41.9503 146.519 41.9503 145.141C41.9503 143.487 42.1571 143.418 45.7408 143.418C49.4624 143.418 49.5313 143.418 49.5313 141.351C49.5313 139.628 49.2557 139.283 47.8084 139.283C46.43 139.283 46.0854 138.938 46.0854 137.56C46.0854 136.182 46.43 135.837 47.8084 135.837C49.1867 135.837 49.5313 136.182 49.5313 137.56C49.5313 139.214 49.7381 139.283 53.3218 139.283C57.0434 139.283 57.1123 139.283 57.1123 141.351C57.1123 143.418 57.1812 143.418 60.9028 143.418C64.6244 143.418 64.6933 143.418 64.6933 141.351C64.6933 139.628 64.4176 139.283 62.9703 139.283C61.2474 139.283 61.2474 139.214 61.2474 133.77V128.256H57.4569C53.8732 128.256 53.6664 128.325 53.6664 129.979C53.6664 131.426 53.3218 131.702 51.5989 131.702C49.8759 131.702 49.5313 131.426 49.5313 129.979C49.5313 128.601 49.1867 128.256 47.8084 128.256C46.3611 128.256 46.0854 127.912 46.0854 126.12C46.0854 124.259 45.8787 124.052 44.2246 124.259C42.4328 124.466 42.2949 124.741 42.0882 128.049C41.8814 131.426 41.7436 131.702 40.1585 131.702C38.7801 131.702 38.5044 132.047 38.5044 133.77C38.5044 135.493 38.7801 135.837 40.2274 135.837C41.6058 135.837 41.9503 136.182 41.9503 137.56C41.9503 138.938 41.6058 139.283 40.2274 139.283C38.7801 139.283 38.5044 139.628 38.5044 141.351V143.418H23.3425V145.141C23.3425 146.519 22.9979 146.864 21.6195 146.864C20.2412 146.864 19.8966 146.519 19.8966 145.141C19.8966 143.694 19.552 143.418 17.8291 143.418C15.7615 143.418 15.7615 143.349 15.7615 139.628C15.7615 135.906 15.7615 135.837 17.8291 135.837C19.8966 135.837 19.8966 135.768 19.8966 132.047C19.8966 128.463 19.9655 128.256 21.6195 128.256C23.0668 128.256 23.3425 127.912 23.3425 126.189C23.3425 124.466 23.0668 124.121 21.6195 124.121C20.2412 124.121 19.8966 123.776 19.8966 122.398C19.8966 120.951 19.552 120.675 17.8291 120.675C16.1061 120.675 15.7615 120.951 15.7615 122.398C15.7615 123.776 15.4169 124.121 14.0386 124.121C12.5913 124.121 12.3156 124.466 12.3156 126.189C12.3156 128.049 12.1089 128.256 10.2481 128.256C8.52513 128.256 8.18054 128.532 8.18054 129.979C8.18054 131.357 7.83595 131.702 6.45759 131.702C5.07923 131.702 4.73464 131.357 4.73464 129.979C4.73464 128.601 5.07923 128.256 6.38867 128.256C7.69811 128.256 8.11162 127.843 8.31837 126.326C8.45621 124.879 8.93863 124.397 10.4548 124.259C12.1778 124.052 12.3156 123.845 12.3156 120.606V117.229H16.1061C19.6898 117.229 19.8966 117.298 19.8966 118.952C19.8966 120.331 20.2412 120.675 21.6195 120.675C22.9979 120.675 23.3425 121.02 23.3425 122.398C23.3425 124.052 23.5492 124.121 27.133 124.121C30.7167 124.121 30.9235 124.052 30.9235 122.398C30.9235 120.951 31.2681 120.675 32.991 120.675C34.714 120.675 35.0586 120.951 35.0586 122.398C35.0586 123.845 34.714 124.121 32.991 124.121H30.9235V135.837H27.133C23.5492 135.837 23.3425 135.906 23.3425 137.56V139.283H38.5044V137.56C38.5044 136.182 38.1599 135.837 36.7815 135.837C35.3342 135.837 35.0586 135.493 35.0586 133.77C35.0586 132.047 35.3342 131.702 36.7815 131.702C38.5044 131.702 38.5044 131.633 38.5044 126.189V120.675H42.2949C45.8787 120.675 46.0854 120.744 46.0854 122.398C46.0854 123.776 46.43 124.121 47.8084 124.121C49.2557 124.121 49.5313 124.466 49.5313 126.189C49.5313 128.049 49.7381 128.256 51.5989 128.256C53.6664 128.256 53.6664 128.187 53.6664 124.466C53.6664 120.744 53.6664 120.675 51.5989 120.675C49.8759 120.675 49.5313 120.399 49.5313 118.952C49.5313 117.574 49.1867 117.229 47.8084 117.229C46.3611 117.229 46.0854 116.885 46.0854 115.162C46.0854 113.094 46.0165 113.094 42.2949 113.094C38.7112 113.094 38.5044 113.025 38.5044 111.371C38.5044 109.993 38.1599 109.648 36.7815 109.648C35.3342 109.648 35.0586 109.304 35.0586 107.581C35.0586 105.858 35.3342 105.513 36.7815 105.513C38.1599 105.513 38.5044 105.169 38.5044 103.79C38.5044 102.412 38.1599 102.067 36.7815 102.067C35.3342 102.067 35.0586 101.723 35.0586 99.9998C35.0586 98.0011 35.1275 97.9322 38.5044 97.9322C41.7436 97.9322 41.9503 97.7944 41.9503 96.2093C41.9503 94.6242 41.7436 94.4863 38.5044 94.4863C35.1275 94.4863 35.0586 94.4174 35.0586 92.4188V90.3512H29.2005C23.4114 90.3512 23.3425 90.3512 23.3425 88.6283C23.3425 87.2499 22.9979 86.9053 21.6195 86.9053C20.2412 86.9053 19.8966 87.2499 19.8966 88.6283C19.8966 90.0756 19.552 90.3512 17.8291 90.3512C15.9683 90.3512 15.7615 90.558 15.7615 92.4188C15.7615 94.1417 15.4858 94.4863 14.0386 94.4863C12.5913 94.4863 12.3156 94.1417 12.3156 92.4188C12.3156 90.6958 12.5913 90.3512 14.0386 90.3512C15.7615 90.3512 15.7615 90.2823 15.7615 84.8378V79.3244H17.8291C19.552 79.3244 19.8966 79.6 19.8966 81.0473C19.8966 82.4257 20.2412 82.7703 21.6195 82.7703C22.9979 82.7703 23.3425 82.4257 23.3425 81.0473C23.3425 79.6 23.6871 79.3244 25.41 79.3244C27.133 79.3244 27.4776 79.6 27.4776 81.0473C27.4776 82.4946 27.133 82.7703 25.41 82.7703C23.5492 82.7703 23.3425 82.977 23.3425 84.8378C23.3425 86.9053 23.4114 86.9053 27.133 86.9053C30.8546 86.9053 30.9235 86.9053 30.9235 84.8378C30.9235 82.7703 30.9924 82.7703 34.714 82.7703C38.2977 82.7703 38.5044 82.7013 38.5044 81.0473C38.5044 79.3933 38.2977 79.3244 34.714 79.3244C31.1302 79.3244 30.9235 79.2554 30.9235 77.6703C30.9235 76.0852 30.6478 75.9474 27.3397 75.7406C23.9628 75.5339 23.6871 75.396 23.4803 73.6042C23.2736 72.1569 22.8601 71.7434 21.6195 71.7434C20.379 71.7434 19.9655 72.1569 19.7588 73.6042C19.6209 75.1204 19.1385 75.6028 17.6912 75.7406C15.9683 75.9474 15.7615 75.7406 15.7615 73.8798C15.7615 71.9501 15.9683 71.7434 17.8291 71.7434C19.552 71.7434 19.8966 71.4677 19.8966 70.0204C19.8966 68.5732 19.552 68.2975 17.8291 68.2975C15.9683 68.2975 15.7615 68.0907 15.7615 66.2299C15.7615 64.3692 15.9683 64.1624 17.8291 64.1624C19.552 64.1624 19.8966 63.8867 19.8966 62.4394C19.8966 60.9922 19.552 60.7165 17.8291 60.7165C15.7615 60.7165 15.7615 60.6476 15.7615 56.926C15.7615 53.3423 15.6926 53.1355 14.0386 53.1355C12.5913 53.1355 12.3156 52.7909 12.3156 51.068C12.3156 49.2072 12.1089 49.0004 10.2481 49.0004C8.52513 49.0004 8.18054 48.7248 8.18054 47.2775C8.18054 45.6235 8.38729 45.5545 11.971 45.5545H15.7615V41.7641C15.7615 38.1803 15.6926 37.9736 14.0386 37.9736C12.6602 37.9736 12.3156 37.629 12.3156 36.2506C12.3156 34.8723 12.6602 34.5277 14.0386 34.5277C15.4169 34.5277 15.7615 34.8723 15.7615 36.2506C15.7615 37.6979 16.1061 37.9736 17.8291 37.9736C19.552 37.9736 19.8966 37.6979 19.8966 36.2506C19.8966 34.5966 20.1033 34.5277 23.6871 34.5277C27.2708 34.5277 27.4776 34.5966 27.4776 36.2506C27.4776 37.6979 27.133 37.9736 25.41 37.9736C23.6871 37.9736 23.3425 38.2492 23.3425 39.6276C23.3425 40.937 23.756 41.3505 25.2722 41.5573C26.7195 41.6951 27.2019 42.1776 27.3397 43.6248C27.5465 45.3478 27.3397 45.5545 25.479 45.5545C23.6871 45.5545 23.3425 45.8302 23.3425 47.2086C23.3425 48.518 23.756 48.9315 25.2722 49.1383C26.7195 49.2761 27.2019 49.7585 27.3397 51.2058C27.5465 52.9288 27.3397 53.1355 25.479 53.1355C23.6871 53.1355 23.3425 53.4112 23.3425 54.8585C23.3425 56.3058 23.6871 56.5814 25.41 56.5814C27.2708 56.5814 27.4776 56.7882 27.4776 58.649C27.4776 60.3719 27.7532 60.7165 29.2005 60.7165C30.8546 60.7165 30.9235 60.5098 30.9235 56.926V53.1355H38.5044V47.2775C38.5044 41.4884 38.5044 41.4195 36.7815 41.4195C35.3342 41.4195 35.0586 41.7641 35.0586 43.487C35.0586 45.3478 34.8518 45.5545 32.991 45.5545H30.9235V34.5277H34.714C38.4355 34.5277 38.5044 34.5277 38.5044 32.4601C38.5044 30.3926 38.5734 30.3926 42.2949 30.3926C45.8787 30.3926 46.0854 30.3237 46.0854 28.6696C46.0854 27.2913 46.43 26.9467 47.8084 26.9467C49.4624 26.9467 49.5313 26.7399 49.5313 23.1562C49.5313 19.4346 49.5313 19.3657 51.5989 19.3657C53.6664 19.3657 53.6664 19.2968 53.6664 15.5752C53.6664 11.9915 53.7353 11.7847 55.3894 11.7847C56.7677 11.7847 57.1123 12.1293 57.1123 13.5077C57.1123 14.955 57.4569 15.2306 59.1798 15.2306C61.2474 15.2306 61.2474 15.1617 61.2474 11.4401C61.2474 7.85641 61.3163 7.64965 62.9703 7.64965C64.6244 7.64965 64.6933 7.85641 64.6933 11.4401C64.6933 15.1617 64.6933 15.2306 66.7608 15.2306C68.4838 15.2306 68.8284 14.955 68.8284 13.5077C68.8284 12.1293 69.173 11.7847 70.5513 11.7847C71.9297 11.7847 72.2743 12.1293 72.2743 13.4388C72.2743 14.7482 72.6878 15.1617 74.204 15.3685C76.0648 15.5752 76.0648 15.5752 76.0648 21.0887C76.0648 26.6021 76.0648 26.6021 74.204 26.8089C72.6878 27.0156 72.2743 27.4291 72.2743 28.7386C72.2743 30.2548 72.481 30.3926 76.0648 30.3926H79.8552V24.8792C79.8552 19.4346 79.8552 19.3657 81.5782 19.3657C83.2322 19.3657 83.3011 19.159 83.3011 15.5752V11.7847H79.8552C76.4783 11.7847 76.4093 11.7158 76.4093 9.71719C76.4093 7.99424 76.685 7.64965 78.1323 7.64965C79.5107 7.64965 79.8552 7.30506 79.8552 5.9267C79.8552 4.54834 80.1998 4.20375 81.5782 4.20375C83.2322 4.20375 83.3011 4.41051 83.3011 7.99424ZM38.5044 9.71719C38.5044 11.4401 38.2288 11.7847 36.7815 11.7847C35.3342 11.7847 35.0586 11.4401 35.0586 9.71719C35.0586 7.99424 35.3342 7.64965 36.7815 7.64965C38.2288 7.64965 38.5044 7.99424 38.5044 9.71719ZM124.652 15.2306H117.76V7.64965H124.652V15.2306ZM139.814 9.71719C139.814 11.4401 139.538 11.7847 138.091 11.7847C136.713 11.7847 136.368 12.1293 136.368 13.5077C136.368 14.886 136.713 15.2306 138.091 15.2306C139.538 15.2306 139.814 15.5752 139.814 17.2982C139.814 19.0211 139.538 19.3657 138.091 19.3657C136.644 19.3657 136.368 19.0211 136.368 17.2982C136.368 15.4374 136.161 15.2306 134.3 15.2306C132.577 15.2306 132.233 14.955 132.233 13.5077C132.233 12.0604 132.577 11.7847 134.3 11.7847C136.161 11.7847 136.368 11.578 136.368 9.71719C136.368 7.99424 136.644 7.64965 138.091 7.64965C139.538 7.64965 139.814 7.99424 139.814 9.71719ZM162.557 9.71719C162.557 11.4401 162.281 11.7847 160.834 11.7847C159.387 11.7847 159.111 11.4401 159.111 9.71719C159.111 7.99424 159.387 7.64965 160.834 7.64965C162.281 7.64965 162.557 7.99424 162.557 9.71719ZM106.044 30.3926H95.0172V19.3657H106.044V30.3926ZM121.206 23.1562C121.206 26.7399 121.137 26.9467 119.483 26.9467C118.036 26.9467 117.76 26.6021 117.76 24.8792C117.76 23.0184 117.553 22.8116 115.693 22.8116C113.832 22.8116 113.625 23.0184 113.625 24.8792C113.625 26.6021 113.349 26.9467 111.902 26.9467C110.455 26.9467 110.179 26.6021 110.179 24.8792C110.179 23.1562 110.455 22.8116 111.902 22.8116C113.28 22.8116 113.625 22.467 113.625 21.0887C113.625 19.4346 113.832 19.3657 117.416 19.3657H121.206V23.1562ZM132.233 21.0887C132.233 22.5359 132.577 22.8116 134.3 22.8116C136.368 22.8116 136.368 22.8805 136.368 26.6021V30.3926H130.51C124.79 30.3926 124.652 30.4615 124.652 32.0466C124.652 33.9763 125.755 34.5277 129.545 34.5277C131.957 34.5277 132.233 34.7344 132.233 36.2506C132.233 37.9736 132.164 37.9736 126.719 37.9736C121.275 37.9736 121.206 37.9736 121.206 39.6965C121.206 41.3505 120.999 41.4195 117.416 41.4195C113.832 41.4195 113.625 41.3505 113.625 39.6965C113.625 38.2492 113.97 37.9736 115.693 37.9736C117.416 37.9736 117.76 37.6979 117.76 36.2506C117.76 34.8723 118.105 34.5277 119.483 34.5277C120.93 34.5277 121.206 34.1831 121.206 32.4601C121.206 30.7372 121.482 30.3926 122.929 30.3926C124.652 30.3926 124.652 30.3237 124.652 24.8792V19.3657H128.442C132.026 19.3657 132.233 19.4346 132.233 21.0887ZM143.949 24.8792C143.949 26.6021 144.225 26.9467 145.672 26.9467C147.05 26.9467 147.395 27.2913 147.395 28.6696C147.395 30.1169 147.739 30.3926 149.462 30.3926H151.53V35.906C151.53 41.3505 151.53 41.4195 153.253 41.4195C154.7 41.4195 154.976 41.7641 154.976 43.487C154.976 45.21 154.7 45.5545 153.253 45.5545C151.875 45.5545 151.53 45.8991 151.53 47.2775C151.53 48.7248 151.185 49.0004 149.462 49.0004H147.395V60.7165H143.604C139.883 60.7165 139.814 60.7165 139.814 58.649C139.814 56.926 139.538 56.5814 138.091 56.5814C136.713 56.5814 136.368 56.2368 136.368 54.8585C136.368 53.4801 136.713 53.1355 138.091 53.1355C139.469 53.1355 139.814 53.4801 139.814 54.8585C139.814 56.3058 140.158 56.5814 141.881 56.5814H143.949V45.5545H141.881C139.814 45.5545 139.814 45.4856 139.814 41.7641C139.814 38.1803 139.745 37.9736 138.091 37.9736C136.713 37.9736 136.368 37.629 136.368 36.3885C136.368 34.3209 136.781 33.9074 138.504 34.3209C139.331 34.5277 139.814 35.2858 139.814 36.3195C139.814 37.6979 140.158 37.9736 141.881 37.9736C143.604 37.9736 143.949 37.6979 143.949 36.2506C143.949 34.8033 143.604 34.5277 141.881 34.5277C140.021 34.5277 139.814 34.3209 139.814 32.4601C139.814 30.5993 140.021 30.3926 141.881 30.3926C143.604 30.3926 143.949 30.1169 143.949 28.6696C143.949 27.2224 143.604 26.9467 141.881 26.9467C140.021 26.9467 139.814 26.7399 139.814 24.8792C139.814 23.0184 140.021 22.8116 141.881 22.8116C143.742 22.8116 143.949 23.0184 143.949 24.8792ZM170.138 32.4601C170.138 34.1831 170.413 34.5277 171.861 34.5277C173.239 34.5277 173.584 34.8723 173.584 36.2506C173.584 37.6979 173.928 37.9736 175.651 37.9736C177.374 37.9736 177.719 38.2492 177.719 39.6965C177.719 41.1438 177.374 41.4195 175.651 41.4195H173.584V47.2775C173.584 53.0666 173.584 53.1355 171.861 53.1355C170.482 53.1355 170.138 53.4801 170.138 54.8585C170.138 56.2368 170.482 56.5814 171.861 56.5814C173.308 56.5814 173.584 56.926 173.584 58.649C173.584 60.3719 173.308 60.7165 171.861 60.7165C170.207 60.7165 170.138 60.9233 170.138 64.5759C170.138 68.2975 170.138 68.3664 168.277 68.1596C166.761 68.0218 166.278 67.5394 166.141 66.0232C165.934 64.5759 165.52 64.1624 164.211 64.1624C162.695 64.1624 162.557 63.9556 162.557 60.3719C162.557 56.7882 162.626 56.5814 164.28 56.5814C165.658 56.5814 166.003 56.2368 166.003 54.8585C166.003 53.4112 166.347 53.1355 168.07 53.1355C170.138 53.1355 170.138 53.0666 170.138 49.345C170.138 45.6235 170.138 45.5545 168.07 45.5545C166.003 45.5545 166.003 45.4856 166.003 41.7641C166.003 38.0425 166.003 37.9736 168.07 37.9736C169.793 37.9736 170.138 37.6979 170.138 36.3195C170.138 35.0101 169.724 34.5966 168.277 34.3898C166.761 34.252 166.278 33.7696 166.141 32.2534C165.934 30.5993 166.141 30.3926 168.001 30.3926C169.931 30.3926 170.138 30.5993 170.138 32.4601ZM8.18054 39.6965C8.18054 41.0749 7.83595 41.4195 6.45759 41.4195C5.07923 41.4195 4.73464 41.0749 4.73464 39.6965C4.73464 38.3182 5.07923 37.9736 6.45759 37.9736C7.83595 37.9736 8.18054 38.3182 8.18054 39.6965ZM132.233 43.487C132.233 45.3478 132.44 45.5545 134.3 45.5545C136.023 45.5545 136.368 45.8302 136.368 47.2775C136.368 48.9315 136.161 49.0004 132.577 49.0004C128.994 49.0004 128.787 48.9315 128.787 47.2775C128.787 45.8302 128.442 45.5545 126.719 45.5545C124.997 45.5545 124.652 45.2789 124.652 43.9694C124.652 41.6951 125.134 41.4195 128.925 41.4195C132.164 41.4195 132.233 41.4884 132.233 43.487ZM196.327 43.487C196.327 45.21 196.051 45.5545 194.604 45.5545C193.156 45.5545 192.881 45.21 192.881 43.487C192.881 41.7641 193.156 41.4195 194.604 41.4195C196.051 41.4195 196.327 41.7641 196.327 43.487ZM181.165 84.8378C181.165 86.5607 180.889 86.9053 179.442 86.9053C177.994 86.9053 177.719 86.5607 177.719 84.8378C177.719 83.1149 177.994 82.7703 179.442 82.7703C180.889 82.7703 181.165 83.1149 181.165 84.8378ZM8.18054 94.1417V97.9322H11.971C15.6926 97.9322 15.7615 97.9322 15.7615 99.9998V102.067H4.73464V96.2093C4.73464 90.4202 4.73464 90.3512 6.45759 90.3512C8.11162 90.3512 8.18054 90.558 8.18054 94.1417ZM30.9235 105.513H19.8966V94.4863H30.9235V105.513ZM162.557 96.2093C162.557 97.5876 162.901 97.9322 164.28 97.9322C165.727 97.9322 166.003 98.2768 166.003 99.9998C166.003 101.723 165.727 102.067 164.28 102.067C162.833 102.067 162.557 101.723 162.557 99.9998C162.557 98.2768 162.281 97.9322 160.903 97.9322C159.869 97.9322 159.111 97.4498 158.904 96.6228C158.491 94.8998 158.904 94.4863 160.972 94.4863C162.212 94.4863 162.557 94.8309 162.557 96.2093ZM181.165 105.513H170.138V94.4863H181.165V105.513ZM173.584 111.371C173.584 112.75 173.239 113.094 171.861 113.094C170.482 113.094 170.138 112.75 170.138 111.371C170.138 109.993 170.482 109.648 171.861 109.648C173.239 109.648 173.584 109.993 173.584 111.371ZM147.395 127.912C147.395 131.495 147.326 131.702 145.672 131.702C144.018 131.702 143.949 131.495 143.949 127.912C143.949 124.328 144.018 124.121 145.672 124.121C147.326 124.121 147.395 124.328 147.395 127.912ZM12.3156 137.56C12.3156 139.007 11.971 139.283 10.2481 139.283C8.38729 139.283 8.18054 139.49 8.18054 141.351C8.18054 143.073 7.90486 143.418 6.45759 143.418C5.01031 143.418 4.73464 143.073 4.73464 141.351C4.73464 139.628 5.01031 139.283 6.45759 139.283C7.83595 139.283 8.18054 138.938 8.18054 137.56C8.18054 136.113 8.52513 135.837 10.2481 135.837C11.971 135.837 12.3156 136.113 12.3156 137.56ZM192.881 145.141C192.881 146.588 192.536 146.864 190.813 146.864C189.09 146.864 188.746 146.588 188.746 145.141C188.746 143.694 189.09 143.418 190.813 143.418C192.536 143.418 192.881 143.694 192.881 145.141ZM196.327 158.235C196.327 161.819 196.258 162.026 194.604 162.026C192.95 162.026 192.881 161.819 192.881 158.235C192.881 154.652 192.95 154.445 194.604 154.445C196.258 154.445 196.327 154.652 196.327 158.235ZM128.787 165.816C128.787 169.538 128.787 169.607 126.719 169.607C124.652 169.607 124.652 169.538 124.652 165.816C124.652 162.095 124.652 162.026 126.719 162.026C128.787 162.026 128.787 162.095 128.787 165.816ZM196.327 169.607H185.3V165.472H196.327V169.607ZM106.044 180.634H95.0172V169.607H106.044V180.634ZM181.165 180.634H170.138V169.607H181.165V180.634ZM38.5044 175.12C38.5044 176.843 38.2288 177.188 36.7815 177.188C35.3342 177.188 35.0586 176.843 35.0586 175.12C35.0586 173.397 35.3342 173.053 36.7815 173.053C38.2288 173.053 38.5044 173.397 38.5044 175.12ZM192.881 178.911C192.881 180.565 192.674 180.634 189.09 180.634C185.507 180.634 185.3 180.565 185.3 178.911C185.3 177.257 185.507 177.188 189.09 177.188C192.674 177.188 192.881 177.257 192.881 178.911ZM117.416 182.701C117.416 184.08 117.002 184.493 115.555 184.631C113.832 184.838 113.625 184.631 113.625 182.701C113.625 180.772 113.832 180.565 115.555 180.772C117.002 180.909 117.416 181.323 117.416 182.701ZM170.138 188.559C170.138 192.143 170.207 192.35 171.861 192.35C173.239 192.35 173.584 192.694 173.584 194.073C173.584 195.451 173.239 195.796 171.861 195.796C170.482 195.796 170.138 195.451 170.138 194.073C170.138 192.626 169.793 192.35 168.07 192.35C166.347 192.35 166.003 192.626 166.003 194.073C166.003 195.451 165.658 195.796 164.28 195.796C162.901 195.796 162.557 195.451 162.557 194.073C162.557 192.694 162.901 192.35 164.28 192.35C165.934 192.35 166.003 192.143 166.003 188.559C166.003 184.838 166.003 184.769 168.07 184.769C170.138 184.769 170.138 184.838 170.138 188.559ZM41.9503 194.073C41.9503 195.451 41.6058 195.796 40.2274 195.796C38.849 195.796 38.5044 195.451 38.5044 194.073C38.5044 192.694 38.849 192.35 40.2274 192.35C41.6058 192.35 41.9503 192.694 41.9503 194.073Z" fill="black"/>
<path d="M68.8286 17.2982C68.8286 19.0211 69.1043 19.3657 70.5516 19.3657C71.9988 19.3657 72.2745 19.0211 72.2745 17.2982C72.2745 15.5752 71.9988 15.2306 70.5516 15.2306C69.1043 15.2306 68.8286 15.5752 68.8286 17.2982Z" fill="black"/>
<path d="M57.1125 21.0886C57.1125 22.467 56.7679 22.8116 55.3895 22.8116C53.9422 22.8116 53.6666 23.1562 53.6666 24.8791C53.6666 26.7399 53.4598 26.9467 51.5301 26.9467H49.4626L49.6693 30.5304L49.8761 34.1831L53.5287 34.3898L57.1125 34.5966V32.529C57.1125 30.5993 57.3192 30.3926 59.18 30.3926C61.2476 30.3926 61.2476 30.4615 61.2476 34.1831V37.9736H68.8285V41.764C68.8285 45.4856 68.8285 45.5545 66.761 45.5545C64.9002 45.5545 64.6935 45.3478 64.6935 43.487V41.4195H59.18C53.7355 41.4195 53.6666 41.4195 53.6666 39.6965C53.6666 38.0425 53.4598 37.9736 49.8761 37.9736C46.2923 37.9736 46.0856 37.9046 46.0856 36.2506C46.0856 34.5966 45.8788 34.5277 42.2951 34.5277H38.5046V37.9736C38.5046 41.2127 38.6425 41.4195 40.2276 41.4195C41.6059 41.4195 41.9505 41.0749 41.9505 39.6965C41.9505 38.2492 42.2951 37.9736 44.0181 37.9736C45.741 37.9736 46.0856 38.2492 46.0856 39.6276C46.0856 40.937 45.6721 41.3505 44.2248 41.5573C42.7086 41.6951 42.2262 42.1776 42.0884 43.6248C41.8816 45.3478 42.0884 45.5545 43.9491 45.5545C45.8788 45.5545 46.0856 45.3478 46.0856 43.487C46.0856 41.764 46.3613 41.4195 47.8085 41.4195C49.4626 41.4195 49.5315 41.6262 49.5315 45.2099C49.5315 48.9315 49.5315 49.0004 51.599 49.0004C53.6666 49.0004 53.6666 49.0694 53.6666 52.7909C53.6666 56.5125 53.6666 56.5814 51.599 56.5814C49.8761 56.5814 49.5315 56.3057 49.5315 54.8585C49.5315 53.4801 49.1869 53.1355 47.8085 53.1355C46.3613 53.1355 46.0856 52.7909 46.0856 50.9991C46.0856 49.1383 45.8788 48.9315 44.2248 49.1383C42.7086 49.2761 42.2262 49.7585 42.0884 51.2058C41.8816 52.722 41.4681 53.1355 40.1586 53.1355C38.8492 53.1355 38.5046 53.4801 38.5046 54.8585C38.5046 56.2368 38.8492 56.5814 40.2276 56.5814C41.6748 56.5814 41.9505 56.926 41.9505 58.649C41.9505 60.3719 41.6748 60.7165 40.2276 60.7165C38.8492 60.7165 38.5046 61.0611 38.5046 62.4394C38.5046 63.8178 38.8492 64.1624 40.2276 64.1624C41.6059 64.1624 41.9505 63.8178 41.9505 62.4394C41.9505 60.9922 42.2951 60.7165 44.0181 60.7165H46.0856V75.8784H47.8085C49.4626 75.8784 49.5315 75.6717 49.5315 72.088V68.2975H61.2476V66.2299C61.2476 64.3691 61.0408 64.1624 59.18 64.1624H57.1125V53.1355H59.18C61.2476 53.1355 61.2476 53.2044 61.2476 56.926C61.2476 60.5097 61.3165 60.7165 62.9705 60.7165C64.3489 60.7165 64.6935 61.0611 64.6935 62.4394C64.6935 64.0935 64.8313 64.0935 70.4136 64.3002C75.996 64.507 76.0649 64.507 76.2717 66.3678C76.4784 68.0907 76.2717 68.2975 74.4109 68.2975C72.619 68.2975 72.2744 68.5731 72.2744 70.0204C72.2744 71.4677 72.619 71.7434 74.342 71.7434C76.2028 71.7434 76.4095 71.9501 76.4095 73.8109C76.4095 75.5339 76.6852 75.8784 78.1325 75.8784C79.8554 75.8784 79.8554 75.9474 79.8554 81.3919V86.9053H76.0649C72.4812 86.9053 72.2744 86.9743 72.2744 88.6283C72.2744 90.3512 72.3434 90.3512 77.7879 90.3512H83.3013V94.1417C83.3013 97.7254 83.2324 97.9322 81.5784 97.9322C80.1311 97.9322 79.8554 98.2768 79.8554 99.9997C79.8554 101.723 79.5797 102.067 78.1325 102.067C76.4784 102.067 76.4095 101.861 76.4095 98.2768C76.4095 94.5552 76.4095 94.4863 74.342 94.4863H72.2744V105.513H68.4839C64.9002 105.513 64.6935 105.444 64.6935 103.79C64.6935 102.412 64.3489 102.067 62.9705 102.067C61.5232 102.067 61.2476 101.723 61.2476 99.9997C61.2476 97.9322 61.2476 97.9322 65.107 97.9322H68.8974L68.6907 94.2795C68.4839 90.9715 68.3461 90.6958 66.6232 90.4891C65.107 90.2823 64.6935 89.8688 64.6935 88.5594C64.6935 87.181 65.038 86.9053 66.8299 86.9053C68.6907 86.9053 68.8974 86.6986 68.6907 84.9756C68.4839 83.2527 68.2083 83.1148 64.9002 82.9081C61.5232 82.7013 61.2476 82.5635 61.2476 80.9784C61.2476 79.3933 61.4543 79.3243 65.038 79.3243C68.6218 79.3243 68.8285 79.1865 68.8285 77.6703C68.8285 76.3609 68.415 75.9474 66.9677 75.7406C65.4515 75.6028 64.9691 75.1204 64.8313 73.6042C64.6245 72.1569 64.211 71.7434 62.9016 71.7434C61.3854 71.7434 61.2476 71.9501 61.2476 75.5339C61.2476 79.2554 61.2476 79.3243 59.18 79.3243C57.1125 79.3243 57.1125 79.2554 57.1125 75.5339C57.1125 71.9501 57.0436 71.7434 55.3895 71.7434C53.6666 71.7434 53.6666 71.8123 53.6666 77.2568V82.7702H51.599C49.8761 82.7702 49.5315 82.4946 49.5315 81.0473C49.5315 79.6689 49.1869 79.3243 47.8085 79.3243C46.4302 79.3243 46.0856 79.6689 46.0856 80.9784C46.0856 82.2878 45.6721 82.7013 44.2248 82.9081C42.7086 83.0459 42.2262 83.5283 42.0884 84.9756C41.8816 86.7675 41.6748 86.9053 38.4357 86.9053C35.2655 86.9053 35.0587 87.0432 35.0587 88.6283C35.0587 90.2134 35.2655 90.3512 38.5046 90.3512C41.8816 90.3512 41.9505 90.4201 41.9505 92.4188V94.4863H47.8085C53.5977 94.4863 53.6666 94.4863 53.6666 96.2093C53.6666 97.6565 53.322 97.9322 51.599 97.9322C49.7382 97.9322 49.5315 98.139 49.5315 99.9997C49.5315 101.723 49.2558 102.067 47.8085 102.067C46.4302 102.067 46.0856 102.412 46.0856 103.79C46.0856 105.444 45.8788 105.513 42.2951 105.513C38.5735 105.513 38.5046 105.513 38.5046 107.581V109.648H53.6666V111.371C53.6666 112.818 53.322 113.094 51.599 113.094C49.7382 113.094 49.5315 113.301 49.5315 115.162C49.5315 117.022 49.7382 117.229 51.599 117.229C53.322 117.229 53.6666 117.505 53.6666 118.952C53.6666 120.331 54.0112 120.675 55.3895 120.675C56.7679 120.675 57.1125 120.331 57.1125 118.952C57.1125 117.505 57.4571 117.229 59.18 117.229C60.903 117.229 61.2476 117.505 61.2476 118.952C61.2476 120.606 61.4543 120.675 65.038 120.675C68.6218 120.675 68.8285 120.744 68.8285 122.398C68.8285 124.052 68.6218 124.121 65.038 124.121C61.3165 124.121 61.2476 124.121 61.2476 126.189C61.2476 127.912 61.5232 128.256 62.9705 128.256C64.3489 128.256 64.6935 128.601 64.6935 129.91C64.6935 131.22 65.107 131.633 66.6232 131.84C68.0704 131.978 68.5529 132.46 68.6907 133.907C68.8974 135.63 68.6907 135.837 66.8299 135.837C65.038 135.837 64.6935 136.113 64.6935 137.56C64.6935 139.007 65.038 139.283 66.761 139.283C68.8285 139.283 68.8285 139.352 68.8285 143.073V146.864H61.2476V150.654C61.2476 154.376 61.2476 154.445 59.18 154.445C57.4571 154.445 57.1125 154.169 57.1125 152.722C57.1125 151.344 56.7679 150.999 55.3895 150.999C53.7355 150.999 53.6666 150.792 53.6666 147.209C53.6666 143.487 53.6666 143.418 51.599 143.418C49.8761 143.418 49.5315 143.694 49.5315 145.141C49.5315 146.519 49.1869 146.864 47.8085 146.864C46.3613 146.864 46.0856 147.209 46.0856 148.932C46.0856 150.999 46.1545 150.999 49.8761 150.999C53.4598 150.999 53.6666 151.068 53.6666 152.722C53.6666 154.1 54.0112 154.445 55.3206 154.445C56.6301 154.445 57.0436 154.858 57.2503 156.306C57.3881 157.822 57.8706 158.304 59.3868 158.442C60.834 158.649 61.2476 159.062 61.2476 160.372C61.2476 161.75 60.903 162.026 59.18 162.026C57.1125 162.026 57.1125 162.095 57.1125 165.816C57.1125 169.538 57.1125 169.607 59.18 169.607C60.903 169.607 61.2476 169.883 61.2476 171.33C61.2476 172.708 61.5921 173.053 62.9705 173.053C64.3489 173.053 64.6935 172.708 64.6935 171.33C64.6935 169.676 64.9002 169.607 68.4839 169.607C72.2055 169.607 72.2744 169.607 72.2744 167.539C72.2744 165.679 72.4812 165.472 74.342 165.472C76.3406 165.472 76.4095 165.403 76.4095 162.026C76.4095 158.787 76.5473 158.58 78.1325 158.58C79.5108 158.58 79.8554 158.925 79.8554 160.303C79.8554 161.681 80.2 162.026 81.5784 162.026C82.9567 162.026 83.3013 161.681 83.3013 160.303C83.3013 158.649 83.4391 158.649 89.0215 158.442C94.6039 158.235 94.6728 158.235 94.8795 156.306C95.0863 154.514 95.293 154.445 98.8768 154.445H102.598V150.654C102.598 147.071 102.667 146.864 104.321 146.864C105.769 146.864 106.044 147.209 106.044 148.932C106.044 150.792 106.251 150.999 108.112 150.999C109.973 150.999 110.179 150.792 110.179 148.932C110.179 147.209 110.455 146.864 111.902 146.864C113.281 146.864 113.625 146.519 113.625 145.21C113.625 143.901 114.039 143.487 115.555 143.28C117.002 143.142 117.485 142.66 117.622 141.213C117.829 139.421 118.036 139.283 121.275 139.283C124.583 139.283 124.652 139.352 124.652 141.351C124.652 143.073 124.376 143.418 122.929 143.418C121.551 143.418 121.206 143.763 121.206 145.141C121.206 146.519 121.551 146.864 122.929 146.864C124.308 146.864 124.652 146.519 124.652 145.141C124.652 143.694 124.997 143.418 126.72 143.418C128.443 143.418 128.787 143.694 128.787 145.141C128.787 146.519 129.132 146.864 130.51 146.864C131.957 146.864 132.233 147.209 132.233 148.932C132.233 150.654 131.957 150.999 130.51 150.999C129.132 150.999 128.787 151.344 128.787 152.722C128.787 154.445 128.856 154.445 134.301 154.445H139.814V146.864H136.024C132.44 146.864 132.233 146.795 132.233 145.141C132.233 143.487 132.44 143.418 136.024 143.418C139.745 143.418 139.814 143.418 139.814 141.351C139.814 139.628 139.538 139.283 138.091 139.283C136.713 139.283 136.368 138.938 136.368 137.56C136.368 136.113 136.024 135.837 134.301 135.837C132.44 135.837 132.233 135.63 132.233 133.77C132.233 131.909 132.44 131.702 134.301 131.702C136.024 131.702 136.368 131.426 136.368 129.979C136.368 128.532 136.024 128.256 134.301 128.256C132.578 128.256 132.233 128.532 132.233 129.979C132.233 131.357 131.888 131.702 130.51 131.702C128.856 131.702 128.787 131.495 128.787 127.912C128.787 124.328 128.856 124.121 130.51 124.121C132.233 124.121 132.233 124.052 132.233 118.608V113.094H136.024C139.607 113.094 139.814 113.025 139.814 111.371C139.814 109.924 140.159 109.648 141.882 109.648C143.605 109.648 143.949 109.924 143.949 111.371C143.949 112.75 144.294 113.094 145.672 113.094C147.119 113.094 147.395 113.439 147.395 115.162C147.395 117.229 147.464 117.229 151.186 117.229C154.907 117.229 154.976 117.229 154.976 115.162C154.976 113.439 154.7 113.094 153.253 113.094C151.875 113.094 151.53 112.75 151.53 111.371C151.53 109.993 151.875 109.648 153.253 109.648C154.7 109.648 154.976 109.304 154.976 107.581C154.976 105.858 154.7 105.513 153.253 105.513C151.806 105.513 151.53 105.858 151.53 107.581C151.53 109.442 151.323 109.648 149.463 109.648C147.602 109.648 147.395 109.442 147.395 107.581C147.395 105.513 147.326 105.513 143.605 105.513C139.883 105.513 139.814 105.513 139.814 107.581V109.648H128.787V107.581C128.787 105.858 129.063 105.513 130.51 105.513C131.888 105.513 132.233 105.169 132.233 103.79C132.233 102.067 132.164 102.067 126.72 102.067H121.206V99.9997C121.206 98.2768 121.482 97.9322 122.929 97.9322C124.308 97.9322 124.652 97.5876 124.652 96.2093C124.652 94.8309 124.308 94.4863 122.929 94.4863C121.482 94.4863 121.206 94.1417 121.206 92.4188C121.206 90.6958 120.931 90.3512 119.483 90.3512C117.829 90.3512 117.76 90.1445 117.76 86.5607C117.76 82.977 117.829 82.7702 119.483 82.7702C121.068 82.7702 121.206 82.5635 121.206 79.3243C121.206 76.0852 121.344 75.8784 122.929 75.8784C124.376 75.8784 124.652 75.5339 124.652 73.8109C124.652 71.9501 124.859 71.7434 126.72 71.7434C128.443 71.7434 128.787 71.4677 128.787 70.0204C128.787 68.5731 128.443 68.2975 126.72 68.2975C124.859 68.2975 124.652 68.0907 124.652 66.2299C124.652 64.507 124.376 64.1624 122.929 64.1624C121.482 64.1624 121.206 64.507 121.206 66.2299C121.206 67.9529 121.482 68.2975 122.929 68.2975C124.308 68.2975 124.652 68.6421 124.652 70.0204C124.652 71.3988 124.308 71.7434 122.929 71.7434C121.482 71.7434 121.206 72.088 121.206 73.8109C121.206 75.5339 120.931 75.8784 119.483 75.8784C118.105 75.8784 117.76 76.223 117.76 77.6014C117.76 79.0487 117.416 79.3243 115.693 79.3243C113.97 79.3243 113.625 79.0487 113.625 77.6703C113.625 76.3609 114.039 75.9474 115.555 75.7406C117.002 75.6028 117.485 75.1204 117.622 73.6042C117.829 71.9501 117.622 71.7434 115.762 71.7434C113.832 71.7434 113.625 71.9501 113.625 73.8109C113.625 75.5339 113.35 75.8784 111.902 75.8784C110.524 75.8784 110.179 76.223 110.179 77.6014C110.179 79.0487 109.835 79.3243 108.112 79.3243H106.044V68.2975H109.835C113.556 68.2975 113.625 68.2975 113.625 66.2299C113.625 64.3691 113.832 64.1624 115.693 64.1624C117.416 64.1624 117.76 63.8867 117.76 62.4394C117.76 60.9922 117.416 60.7165 115.693 60.7165C113.97 60.7165 113.625 60.9922 113.625 62.4394C113.625 63.8178 113.281 64.1624 111.902 64.1624C110.248 64.1624 110.179 63.9556 110.179 60.3719C110.179 56.6503 110.179 56.5814 108.112 56.5814C106.389 56.5814 106.044 56.3057 106.044 54.8585C106.044 53.4801 105.7 53.1355 104.321 53.1355C102.943 53.1355 102.598 53.4801 102.598 54.8585C102.598 56.3057 102.254 56.5814 100.531 56.5814H98.4633V62.4394C98.4633 68.2286 98.4633 68.2975 96.7403 68.2975C95.293 68.2975 95.0174 67.9529 95.0174 66.2299C95.0174 64.3691 94.8106 64.1624 92.9498 64.1624C91.2269 64.1624 90.8823 63.8867 90.8823 62.4394C90.8823 60.9922 91.2269 60.7165 92.9498 60.7165C94.8106 60.7165 95.0174 60.5097 95.0174 58.649C95.0174 56.7882 94.8106 56.5814 92.9498 56.5814C91.089 56.5814 90.8823 56.7882 90.8823 58.649C90.8823 60.3719 90.6066 60.7165 89.1593 60.7165C87.781 60.7165 87.4364 61.0611 87.4364 62.4394C87.4364 63.8867 87.0918 64.1624 85.3688 64.1624C83.5081 64.1624 83.3013 64.3691 83.3013 66.2299C83.3013 67.9529 83.0256 68.2975 81.5784 68.2975C80.1311 68.2975 79.8554 67.9529 79.8554 66.2299C79.8554 64.507 79.5797 64.1624 78.1325 64.1624C76.7541 64.1624 76.4095 63.8178 76.4095 62.4394C76.4095 60.9922 76.0649 60.7165 74.342 60.7165C72.4812 60.7165 72.2744 60.5097 72.2744 58.649C72.2744 56.926 71.9988 56.5814 70.5515 56.5814C69.1731 56.5814 68.8285 56.2368 68.8285 54.8585C68.8285 53.4801 69.1731 53.1355 70.5515 53.1355C71.9988 53.1355 72.2744 52.7909 72.2744 51.068C72.2744 49.345 71.9988 49.0004 70.5515 49.0004C69.1731 49.0004 68.8285 48.6558 68.8285 47.2775C68.8285 45.5545 68.8975 45.5545 74.342 45.5545H79.8554V43.487C79.8554 41.4195 79.7865 41.4195 76.0649 41.4195C72.4812 41.4195 72.2744 41.3505 72.2744 39.6965C72.2744 38.2492 72.619 37.9736 74.342 37.9736C76.0649 37.9736 76.4095 37.6979 76.4095 36.2506C76.4095 34.5277 76.3406 34.5277 70.5515 34.5277H64.6935V32.4601C64.6935 30.5993 64.9002 30.3926 66.761 30.3926C68.4839 30.3926 68.8285 30.1169 68.8285 28.6696C68.8285 27.2913 69.1731 26.9467 70.5515 26.9467C71.9988 26.9467 72.2744 26.6021 72.2744 24.8791C72.2744 23.1562 71.9988 22.8116 70.5515 22.8116C69.1042 22.8116 68.8285 23.1562 68.8285 24.8791C68.8285 26.7399 68.6218 26.9467 66.761 26.9467C64.6935 26.9467 64.6935 26.8778 64.6935 23.1562V19.3657H60.903C57.3192 19.3657 57.1125 19.4346 57.1125 21.0886ZM61.2476 24.8791C61.2476 26.6021 61.5232 26.9467 62.9705 26.9467C64.3489 26.9467 64.6935 27.2913 64.6935 28.6696C64.6935 30.048 64.3489 30.3926 62.9705 30.3926C61.5921 30.3926 61.2476 30.048 61.2476 28.7385C61.2476 27.4291 60.834 27.0156 59.3868 26.8088C57.8706 26.671 57.3881 26.1886 57.2503 24.6724C57.0436 23.0184 57.2503 22.8116 59.1111 22.8116C61.0408 22.8116 61.2476 23.0184 61.2476 24.8791ZM64.6935 47.2775C64.6935 49.0004 64.6245 49.0004 59.18 49.0004C53.7355 49.0004 53.6666 49.0004 53.6666 47.2775C53.6666 45.5545 53.7355 45.5545 59.18 45.5545C64.6245 45.5545 64.6935 45.5545 64.6935 47.2775ZM46.0856 54.8585C46.0856 56.3057 45.741 56.5814 44.0181 56.5814C42.2951 56.5814 41.9505 56.3057 41.9505 54.8585C41.9505 53.4112 42.2951 53.1355 44.0181 53.1355C45.741 53.1355 46.0856 53.4112 46.0856 54.8585ZM106.044 58.649C106.044 60.3719 105.769 60.7165 104.321 60.7165C102.874 60.7165 102.598 60.3719 102.598 58.649C102.598 56.926 102.874 56.5814 104.321 56.5814C105.769 56.5814 106.044 56.926 106.044 58.649ZM53.6666 62.4394C53.6666 63.8867 53.322 64.1624 51.599 64.1624C49.8761 64.1624 49.5315 63.8867 49.5315 62.4394C49.5315 60.9922 49.8761 60.7165 51.599 60.7165C53.322 60.7165 53.6666 60.9922 53.6666 62.4394ZM90.8823 70.0204V75.8784H92.9498C94.6728 75.8784 95.0174 76.1541 95.0174 77.6014C95.0174 78.9798 95.362 79.3243 96.7403 79.3243C98.3943 79.3243 98.4633 79.5311 98.4633 83.1148V86.9053H102.254C105.975 86.9053 106.044 86.9053 106.044 84.8378C106.044 83.1148 105.769 82.7702 104.321 82.7702C102.943 82.7702 102.598 82.4257 102.598 81.0473C102.598 79.6689 102.943 79.3243 104.321 79.3243C105.7 79.3243 106.044 79.6689 106.044 80.9784C106.044 82.2878 106.458 82.7013 107.974 82.9081C109.421 83.0459 109.904 83.5283 110.041 84.9756C110.248 86.4918 110.662 86.9053 111.971 86.9053C113.487 86.9053 113.625 87.1121 113.625 90.6958V94.4863H117.416C120.999 94.4863 121.206 94.5552 121.206 96.2093C121.206 97.8633 120.999 97.9322 117.416 97.9322C113.694 97.9322 113.625 97.9322 113.625 99.9997C113.625 102.067 113.694 102.067 117.416 102.067C120.999 102.067 121.206 102.136 121.206 103.79C121.206 105.169 121.551 105.513 122.929 105.513C124.376 105.513 124.652 105.858 124.652 107.581C124.652 109.304 124.376 109.648 122.929 109.648C121.551 109.648 121.206 109.993 121.206 111.371C121.206 112.75 120.862 113.094 119.483 113.094C117.829 113.094 117.76 113.301 117.76 116.885C117.76 120.468 117.829 120.675 119.483 120.675C120.862 120.675 121.206 120.331 121.206 118.952C121.206 117.574 121.551 117.229 122.929 117.229C124.376 117.229 124.652 116.885 124.652 115.162C124.652 113.301 124.859 113.094 126.72 113.094H128.787V124.121H124.997C121.275 124.121 121.206 124.121 121.206 126.189C121.206 127.912 120.931 128.256 119.483 128.256C118.105 128.256 117.76 128.601 117.76 129.979C117.76 131.702 117.829 131.702 123.274 131.702H128.787V133.77C128.787 135.493 129.063 135.837 130.51 135.837C132.164 135.837 132.233 136.044 132.233 139.628C132.233 143.211 132.164 143.418 130.51 143.418C129.063 143.418 128.787 143.073 128.787 141.351C128.787 139.49 128.58 139.283 126.72 139.283C124.997 139.283 124.652 139.007 124.652 137.56C124.652 135.975 124.445 135.837 121.206 135.837C117.967 135.837 117.76 135.975 117.76 137.56C117.76 139.007 117.416 139.283 115.693 139.283C113.832 139.283 113.625 139.49 113.625 141.351V143.418H108.112C102.667 143.418 102.598 143.418 102.598 145.141C102.598 146.588 102.254 146.864 100.531 146.864C98.67 146.864 98.4633 147.071 98.4633 148.932C98.4633 150.654 98.1876 150.999 96.7403 150.999C95.293 150.999 95.0174 150.654 95.0174 148.932C95.0174 147.209 95.293 146.864 96.7403 146.864C98.1187 146.864 98.4633 146.519 98.4633 145.141C98.4633 143.763 98.1187 143.418 96.7403 143.418C95.293 143.418 95.0174 143.073 95.0174 141.351C95.0174 139.628 95.293 139.283 96.7403 139.283C98.3943 139.283 98.4633 139.076 98.4633 135.493C98.4633 131.909 98.3943 131.702 96.7403 131.702C95.362 131.702 95.0174 131.357 95.0174 129.979C95.0174 128.325 95.2241 128.256 98.8079 128.256C102.529 128.256 102.598 128.256 102.598 126.189C102.598 124.328 102.392 124.121 100.531 124.121C98.8079 124.121 98.4633 123.845 98.4633 122.398C98.4633 121.02 98.1187 120.675 96.7403 120.675C95.362 120.675 95.0174 121.02 95.0174 122.398C95.0174 123.845 94.6728 124.121 92.9498 124.121C91.2269 124.121 90.8823 123.845 90.8823 122.398C90.8823 121.02 90.5377 120.675 89.1593 120.675H87.4364V135.837H89.1593C90.8134 135.837 90.8823 136.044 90.8823 139.628C90.8823 143.211 90.8134 143.418 89.1593 143.418C87.781 143.418 87.4364 143.763 87.4364 145.141C87.4364 146.519 87.781 146.864 89.1593 146.864C90.6066 146.864 90.8823 147.209 90.8823 148.932C90.8823 150.999 90.8134 150.999 87.0918 150.999H83.3013V154.79C83.3013 158.373 83.2324 158.58 81.5784 158.58C79.9243 158.58 79.8554 158.373 79.8554 154.79C79.8554 151.206 79.7865 150.999 78.1325 150.999C76.6852 150.999 76.4095 150.654 76.4095 148.932C76.4095 147.071 76.2028 146.864 74.342 146.864C72.619 146.864 72.2744 146.588 72.2744 145.141C72.2744 143.694 72.619 143.418 74.342 143.418C76.0649 143.418 76.4095 143.694 76.4095 145.141C76.4095 146.519 76.7541 146.864 78.1325 146.864C79.5108 146.864 79.8554 146.519 79.8554 145.141C79.8554 143.487 80.0622 143.418 83.6459 143.418C87.3675 143.418 87.4364 143.418 87.4364 141.351C87.4364 139.283 87.3675 139.283 83.6459 139.283H79.8554V133.77C79.8554 128.325 79.8554 128.256 78.1325 128.256C76.7541 128.256 76.4095 128.601 76.4095 129.979C76.4095 131.633 76.2028 131.702 72.619 131.702H68.8285V127.912C68.8285 124.328 68.8974 124.121 70.5515 124.121C71.9988 124.121 72.2744 124.466 72.2744 126.189C72.2744 128.049 72.4812 128.256 74.342 128.256H76.4095V117.229H74.342C72.4812 117.229 72.2744 117.022 72.2744 115.162V113.094H77.7879C83.2324 113.094 83.3013 113.094 83.3013 111.371C83.3013 109.924 83.6459 109.648 85.3688 109.648C87.2296 109.648 87.4364 109.442 87.4364 107.581C87.4364 105.72 87.2296 105.513 85.3688 105.513C83.3013 105.513 83.3013 105.444 83.3013 101.723C83.3013 98.0011 83.3013 97.9322 85.3688 97.9322C87.4364 97.9322 87.4364 97.8633 87.4364 94.1417C87.4364 90.558 87.5053 90.3512 89.1593 90.3512H90.8823V109.648H92.9498C94.6728 109.648 95.0174 109.924 95.0174 111.371C95.0174 112.818 94.6728 113.094 92.9498 113.094C90.8823 113.094 90.8823 113.163 90.8823 116.885C90.8823 120.606 90.8823 120.675 92.9498 120.675C94.6728 120.675 95.0174 120.399 95.0174 118.952C95.0174 117.574 95.362 117.229 96.7403 117.229C98.1187 117.229 98.4633 117.574 98.4633 118.952C98.4633 120.399 98.8079 120.675 100.531 120.675C102.254 120.675 102.598 120.399 102.598 119.021C102.598 117.436 102.874 117.298 106.251 117.091L109.835 116.885L110.041 113.232C110.248 109.924 110.386 109.648 111.971 109.648C113.556 109.648 113.625 109.442 113.625 105.858C113.625 102.274 113.556 102.067 111.902 102.067H110.179V86.9053H108.112C106.389 86.9053 106.044 87.181 106.044 88.6283C106.044 90.3512 105.975 90.3512 100.531 90.3512H95.0174V86.4918C95.0174 82.7702 95.0174 82.7013 93.1566 82.9081C91.6404 83.0459 91.158 83.5283 91.0201 84.9756C90.8134 86.4918 90.3999 86.9053 89.0904 86.9053C87.5742 86.9053 87.4364 86.6986 87.4364 83.1148C87.4364 79.5311 87.5053 79.3243 89.1593 79.3243C90.5377 79.3243 90.8823 78.9798 90.8823 77.6703C90.8823 76.0852 90.6066 75.9474 87.2985 75.7406C83.9216 75.5339 83.6459 75.396 83.4391 73.6042C83.2324 71.9501 83.4391 71.7434 85.2999 71.7434C87.4364 71.7434 87.4364 71.7434 87.4364 67.9529C87.4364 64.3691 87.5053 64.1624 89.1593 64.1624C90.8823 64.1624 90.8823 64.2313 90.8823 70.0204ZM106.044 66.2299C106.044 67.9529 105.769 68.2975 104.321 68.2975C102.874 68.2975 102.598 67.9529 102.598 66.2299C102.598 64.507 102.874 64.1624 104.321 64.1624C105.769 64.1624 106.044 64.507 106.044 66.2299ZM79.8554 70.0204C79.8554 71.3988 79.5108 71.7434 78.2014 71.7434C77.3054 71.7434 76.4095 71.3299 76.2028 70.8474C75.7203 69.3312 76.4784 68.2975 78.2014 68.2975C79.5108 68.2975 79.8554 68.6421 79.8554 70.0204ZM113.625 81.0473C113.625 82.4257 113.281 82.7702 111.902 82.7702C110.524 82.7702 110.179 82.4257 110.179 81.0473C110.179 79.6689 110.524 79.3243 111.902 79.3243C113.281 79.3243 113.625 79.6689 113.625 81.0473ZM49.5315 84.8378C49.5315 86.6986 49.7382 86.9053 51.599 86.9053C53.4598 86.9053 53.6666 86.6986 53.6666 84.8378C53.6666 83.1148 53.9422 82.7702 55.3895 82.7702C56.8368 82.7702 57.1125 83.1148 57.1125 84.8378C57.1125 86.6986 57.3192 86.9053 59.18 86.9053C60.903 86.9053 61.2476 87.181 61.2476 88.5594C61.2476 89.8688 60.834 90.2823 59.3868 90.4891C57.8706 90.6269 57.3881 91.1093 57.2503 92.5566C57.0436 94.0728 56.6301 94.4863 55.3206 94.4863C53.9422 94.4863 53.6666 94.1417 53.6666 92.4188V90.3512H47.8085C42.0194 90.3512 41.9505 90.3512 41.9505 88.6283C41.9505 87.181 42.2951 86.9053 44.0181 86.9053C45.8788 86.9053 46.0856 86.6986 46.0856 84.8378C46.0856 83.1148 46.3613 82.7702 47.8085 82.7702C49.2558 82.7702 49.5315 83.1148 49.5315 84.8378ZM106.044 105.513H95.0174V94.4863H106.044V105.513ZM57.1125 103.79C57.1125 105.444 57.3192 105.513 60.903 105.513H64.6935V109.304C64.6935 113.094 64.6935 113.094 66.8299 113.094C68.6907 113.094 68.8974 113.301 68.6907 114.955C68.5529 116.471 68.1394 116.885 66.761 116.885C65.3826 116.885 64.9691 116.471 64.8313 114.955C64.6245 113.163 64.4178 113.094 60.834 113.094C57.1814 113.094 57.1125 113.094 57.1125 115.162C57.1125 116.885 56.8368 117.229 55.3895 117.229C53.9422 117.229 53.6666 116.885 53.6666 115.162C53.6666 113.439 53.9422 113.094 55.3895 113.094C57.0436 113.094 57.1125 112.887 57.1125 109.304C57.1125 105.72 57.0436 105.513 55.3895 105.513C54.0112 105.513 53.6666 105.169 53.6666 103.79C53.6666 102.412 54.0112 102.067 55.3895 102.067C56.7679 102.067 57.1125 102.412 57.1125 103.79ZM76.2717 107.374C76.1338 108.89 75.6514 109.373 74.2041 109.51C72.4812 109.717 72.2744 109.51 72.2744 107.65C72.2744 105.72 72.4812 105.513 74.4109 105.513C76.2717 105.513 76.4784 105.72 76.2717 107.374ZM106.044 111.371C106.044 112.75 105.7 113.094 104.321 113.094C102.943 113.094 102.598 112.75 102.598 111.371C102.598 109.993 102.943 109.648 104.321 109.648C105.7 109.648 106.044 109.993 106.044 111.371ZM72.2744 137.56C72.2744 138.938 71.9298 139.283 70.5515 139.283C69.1731 139.283 68.8285 138.938 68.8285 137.56C68.8285 136.182 69.1731 135.837 70.5515 135.837C71.9298 135.837 72.2744 136.182 72.2744 137.56ZM72.2744 152.722C72.2744 154.169 72.619 154.445 74.342 154.445C76.2028 154.445 76.4095 154.652 76.4095 156.512C76.4095 158.373 76.2028 158.58 74.342 158.58C72.4812 158.58 72.2744 158.373 72.2744 156.512C72.2744 154.79 71.9988 154.445 70.5515 154.445C68.8974 154.445 68.8285 154.652 68.8285 158.235C68.8285 161.819 68.8974 162.026 70.5515 162.026C71.9298 162.026 72.2744 162.371 72.2744 163.749C72.2744 165.127 71.9298 165.472 70.5515 165.472C69.1731 165.472 68.8285 165.127 68.8285 163.749C68.8285 162.302 68.4839 162.026 66.761 162.026C64.6935 162.026 64.6935 162.095 64.6935 165.816C64.6935 169.4 64.6245 169.607 62.9705 169.607C61.3165 169.607 61.2476 169.4 61.2476 165.816C61.2476 162.233 61.3165 162.026 62.9705 162.026C64.3489 162.026 64.6935 161.681 64.6935 160.303C64.6935 158.925 64.3489 158.58 62.9705 158.58C61.5232 158.58 61.2476 158.235 61.2476 156.512C61.2476 154.79 61.5232 154.445 62.9705 154.445C64.3489 154.445 64.6935 154.1 64.6935 152.722C64.6935 151.068 64.9002 150.999 68.4839 150.999C72.0677 150.999 72.2744 151.068 72.2744 152.722Z" fill="black"/>
<path d="M87.4364 111.371C87.4364 112.818 87.0918 113.094 85.4378 113.094C83.7148 113.094 83.3702 113.37 83.1635 114.955C83.0257 116.333 82.5432 116.954 81.4405 117.091C80.2689 117.298 79.8554 117.781 79.8554 119.021C79.8554 120.537 80.0622 120.675 83.6459 120.675L87.4364 120.675L87.4364 116.885C87.4364 113.301 87.5053 113.094 89.1594 113.094C90.5377 113.094 90.8823 112.75 90.8823 111.371C90.8823 109.993 90.5377 109.648 89.1594 109.648C87.781 109.648 87.4364 109.993 87.4364 111.371Z" fill="black"/>
<path d="M113.625 111.371C113.625 112.818 113.97 113.094 115.693 113.094C117.416 113.094 117.76 112.818 117.76 111.371C117.76 109.924 117.416 109.648 115.693 109.648C113.97 109.648 113.625 109.924 113.625 111.371Z" fill="black"/>
<path d="M102.598 122.398C102.598 123.776 102.943 124.121 104.321 124.121C105.769 124.121 106.044 124.466 106.044 126.189C106.044 127.912 105.769 128.256 104.321 128.256C102.943 128.256 102.598 128.601 102.598 129.979C102.598 131.633 102.805 131.702 106.389 131.702C110.111 131.702 110.179 131.702 110.179 133.77C110.179 135.63 109.973 135.837 108.112 135.837C106.389 135.837 106.044 136.113 106.044 137.56C106.044 139.007 106.389 139.283 108.112 139.283C109.835 139.283 110.179 139.007 110.179 137.56C110.179 135.906 110.386 135.837 114.039 135.837C117.76 135.837 117.829 135.837 117.623 133.907C117.416 132.184 117.14 132.047 113.832 131.84L110.179 131.633V120.675H106.389C102.805 120.675 102.598 120.744 102.598 122.398Z" fill="black"/>
<path d="M113.625 124.466C113.625 128.187 113.625 128.256 115.693 128.256C117.76 128.256 117.76 128.187 117.76 124.466C117.76 120.744 117.76 120.675 115.693 120.675C113.625 120.675 113.625 120.744 113.625 124.466Z" fill="black"/>
<path d="M98.4634 99.9997C98.4634 101.861 98.6702 102.067 100.531 102.067C102.392 102.067 102.599 101.861 102.599 99.9997C102.599 98.139 102.392 97.9322 100.531 97.9322C98.6702 97.9322 98.4634 98.139 98.4634 99.9997Z" fill="black"/>
<path d="M83.4392 24.6724C83.5771 26.1886 84.0595 26.671 85.5757 26.8089C87.2297 27.0156 87.4365 26.8089 87.4365 24.9481C87.4365 23.0184 87.2297 22.8116 85.3 22.8116C83.4392 22.8116 83.2325 23.0184 83.4392 24.6724Z" fill="black"/>
<path d="M79.8554 32.4601C79.8554 34.5276 79.9243 34.5276 83.6459 34.5276C87.3675 34.5276 87.4364 34.5276 87.4364 32.4601C87.4364 30.3926 87.3675 30.3926 83.6459 30.3926C79.9243 30.3926 79.8554 30.3926 79.8554 32.4601Z" fill="black"/>
<path d="M83.3015 39.6965C83.3015 41.1438 83.6461 41.4195 85.3691 41.4195C87.092 41.4195 87.4366 41.1438 87.4366 39.6965C87.4366 38.2492 87.092 37.9736 85.3691 37.9736C83.6461 37.9736 83.3015 38.2492 83.3015 39.6965Z" fill="black"/>
<path d="M19.8968 43.487C19.8968 45.3478 19.6901 45.5545 17.8293 45.5545C16.1064 45.5545 15.7618 45.8302 15.7618 47.2775C15.7618 48.7247 16.1064 49.0004 17.8293 49.0004C19.5523 49.0004 19.8968 48.7247 19.8968 47.2775C19.8968 45.8991 20.2414 45.5545 21.6198 45.5545C23.0671 45.5545 23.3427 45.2099 23.3427 43.487C23.3427 41.764 23.0671 41.4194 21.6198 41.4194C20.1725 41.4194 19.8968 41.764 19.8968 43.487Z" fill="black"/>
<path d="M76.4098 51.068C76.4098 52.7909 76.6854 53.1355 78.1327 53.1355C79.58 53.1355 79.8557 52.7909 79.8557 51.068C79.8557 49.345 79.58 49.0004 78.1327 49.0004C76.6854 49.0004 76.4098 49.345 76.4098 51.068Z" fill="black"/>
<path d="M23.3427 62.4394C23.3427 63.8178 22.9981 64.1624 21.6198 64.1624C20.1725 64.1624 19.8968 64.507 19.8968 66.2299C19.8968 67.9529 20.1725 68.2975 21.6198 68.2975C22.9981 68.2975 23.3427 68.6421 23.3427 70.0204C23.3427 71.4677 23.6873 71.7434 25.4103 71.7434C27.1332 71.7434 27.4778 71.4677 27.4778 70.0204C27.4778 68.6421 27.8224 68.2975 29.2008 68.2975C30.648 68.2975 30.9237 67.9529 30.9237 66.2299C30.9237 64.3691 31.1305 64.1624 32.9912 64.1624C34.7142 64.1624 35.0588 63.8867 35.0588 62.4394C35.0588 60.9922 34.7142 60.7165 32.9912 60.7165C31.2683 60.7165 30.9237 60.9922 30.9237 62.4394C30.9237 63.8178 30.5791 64.1624 29.2008 64.1624C27.8224 64.1624 27.4778 63.8178 27.4778 62.4394C27.4778 60.9922 27.1332 60.7165 25.4103 60.7165C23.6873 60.7165 23.3427 60.9922 23.3427 62.4394ZM27.4778 66.2299C27.4778 68.0907 27.2711 68.2975 25.4103 68.2975C23.5495 68.2975 23.3427 68.0907 23.3427 66.2299C23.3427 64.3691 23.5495 64.1624 25.4103 64.1624C27.2711 64.1624 27.4778 64.3691 27.4778 66.2299Z" fill="black"/>
<path d="M35.0587 72.088C35.0587 75.6717 35.1276 75.8784 36.7817 75.8784C38.16 75.8784 38.5046 76.223 38.5046 77.6014C38.5046 78.9798 38.8492 79.3243 40.2276 79.3243C41.6059 79.3243 41.9505 78.9798 41.9505 77.6014C41.9505 76.223 41.6059 75.8784 40.2276 75.8784C38.7803 75.8784 38.5046 75.5339 38.5046 73.8109C38.5046 72.088 38.7803 71.7434 40.2276 71.7434C41.6059 71.7434 41.9505 71.3988 41.9505 70.0204C41.9505 68.4353 41.7438 68.2975 38.5046 68.2975H35.0587V72.088Z" fill="black"/>
<path d="M162.557 73.8109C162.557 75.5339 162.833 75.8784 164.28 75.8784C165.727 75.8784 166.003 75.5339 166.003 73.8109C166.003 72.088 165.727 71.7434 164.28 71.7434C162.833 71.7434 162.557 72.088 162.557 73.8109Z" fill="black"/>
<path d="M160.007 75.6717C159.456 75.8784 159.111 77.2568 159.111 79.3933C159.111 82.7013 159.042 82.7702 157.044 82.7702C155.045 82.7702 154.976 82.7013 154.976 79.3243V75.8784H151.185C147.602 75.8784 147.395 75.9474 147.395 77.6014C147.395 78.9798 147.05 79.3243 145.672 79.3243C144.018 79.3243 143.949 79.5311 143.949 83.1148V86.9053H147.74C151.461 86.9053 151.53 86.9053 151.53 84.8378C151.53 83.1148 151.806 82.7702 153.253 82.7702C154.7 82.7702 154.976 83.1148 154.976 84.8378C154.976 86.6986 155.183 86.9053 157.044 86.9053C158.904 86.9053 159.111 86.6986 159.111 84.8378C159.111 83.1148 159.387 82.7702 160.834 82.7702C162.281 82.7702 162.557 83.1148 162.557 84.8378C162.557 86.5607 162.833 86.9053 164.28 86.9053C165.727 86.9053 166.003 86.5607 166.003 84.8378C166.003 82.977 166.21 82.7702 168.07 82.7702C169.793 82.7702 170.138 82.4946 170.138 81.0473C170.138 79.6 169.793 79.3243 168.07 79.3243C166.347 79.3243 166.003 79.6 166.003 81.0473C166.003 82.4257 165.658 82.7702 164.28 82.7702C162.695 82.7702 162.557 82.5635 162.557 79.3933C162.557 76.0852 161.868 75.0514 160.007 75.6717ZM151.53 81.0473C151.53 82.4946 151.185 82.7702 149.463 82.7702C147.74 82.7702 147.395 82.4946 147.395 81.0473C147.395 79.6 147.74 79.3243 149.463 79.3243C151.185 79.3243 151.53 79.6 151.53 81.0473Z" fill="black"/>
<path d="M181.303 114.955C181.441 116.471 181.923 116.954 183.439 117.091C185.093 117.298 185.3 117.091 185.3 115.231C185.3 113.301 185.093 113.094 183.164 113.094C181.303 113.094 181.096 113.301 181.303 114.955Z" fill="black"/>
<path d="M173.584 122.398C173.584 123.845 173.929 124.121 175.651 124.121C177.512 124.121 177.719 124.328 177.719 126.189C177.719 127.912 177.995 128.256 179.442 128.256C180.889 128.256 181.165 127.912 181.165 126.189C181.165 124.466 180.889 124.121 179.442 124.121C178.064 124.121 177.719 123.776 177.719 122.398C177.719 120.951 177.374 120.675 175.651 120.675C173.929 120.675 173.584 120.951 173.584 122.398Z" fill="black"/>
<path d="M23.3425 129.979C23.3425 131.426 23.6871 131.702 25.41 131.702C27.133 131.702 27.4776 131.426 27.4776 129.979C27.4776 128.532 27.133 128.256 25.41 128.256C23.6871 128.256 23.3425 128.532 23.3425 129.979Z" fill="black"/>
<path d="M98.4634 160.303C98.4634 161.75 98.808 162.026 100.531 162.026C102.254 162.026 102.599 161.75 102.599 160.303C102.599 158.856 102.254 158.58 100.531 158.58C98.808 158.58 98.4634 158.856 98.4634 160.303Z" fill="black"/>
<path d="M177.719 160.303C177.719 161.681 178.064 162.026 179.442 162.026C180.82 162.026 181.165 161.681 181.165 160.303C181.165 158.925 180.82 158.58 179.442 158.58C178.064 158.58 177.719 158.925 177.719 160.303Z" fill="black"/>
<path d="M136.368 167.539C136.368 169.262 136.644 169.607 138.091 169.607C139.539 169.607 139.814 169.262 139.814 167.539C139.814 165.816 139.539 165.472 138.091 165.472C136.644 165.472 136.368 165.816 136.368 167.539Z" fill="black"/>
<path d="M49.5317 171.33C49.5317 172.777 49.8762 173.053 51.5992 173.053C53.3221 173.053 53.6667 172.777 53.6667 171.33C53.6667 169.883 53.3221 169.607 51.5992 169.607C49.8762 169.607 49.5317 169.883 49.5317 171.33Z" fill="black"/>
<path d="M64.6935 178.911C64.6935 180.358 65.0381 180.634 66.7611 180.634C68.6219 180.634 68.8286 180.841 68.8286 182.701C68.8286 184.562 68.6219 184.769 66.7611 184.769C65.0381 184.769 64.6935 185.045 64.6935 186.492C64.6935 187.939 65.0381 188.215 66.7611 188.215C68.484 188.215 68.8286 187.939 68.8286 186.492C68.8286 185.113 69.1732 184.769 70.5516 184.769C71.9988 184.769 72.2745 184.424 72.2745 182.701C72.2745 180.978 71.9988 180.634 70.5516 180.634C69.1732 180.634 68.8286 180.289 68.8286 178.911C68.8286 177.464 68.484 177.188 66.7611 177.188C65.0381 177.188 64.6935 177.464 64.6935 178.911Z" fill="black"/>
<path d="M98.4634 24.8792C98.4634 26.7399 98.6702 26.9467 100.531 26.9467C102.392 26.9467 102.599 26.7399 102.599 24.8792C102.599 23.0184 102.392 22.8116 100.531 22.8116C98.6702 22.8116 98.4634 23.0184 98.4634 24.8792Z" fill="black"/>
<path d="M128.787 24.8792C128.787 26.6021 129.063 26.9467 130.51 26.9467C131.957 26.9467 132.233 26.6021 132.233 24.8792C132.233 23.1562 131.957 22.8116 130.51 22.8116C129.063 22.8116 128.787 23.1562 128.787 24.8792Z" fill="black"/>
<path d="M143.949 39.6965C143.949 41.0749 144.294 41.4195 145.672 41.4195C147.05 41.4195 147.395 41.0749 147.395 39.6965C147.395 38.3182 147.05 37.9736 145.672 37.9736C144.294 37.9736 143.949 38.3182 143.949 39.6965Z" fill="black"/>
<path d="M170.138 39.6965C170.138 41.0749 170.483 41.4195 171.861 41.4195C173.24 41.4195 173.584 41.0749 173.584 39.6965C173.584 38.3182 173.24 37.9736 171.861 37.9736C170.483 37.9736 170.138 38.3182 170.138 39.6965Z" fill="black"/>
<path d="M166.141 58.4422C166.279 59.9584 166.761 60.4408 168.277 60.5787C169.931 60.7854 170.138 60.5787 170.138 58.7179C170.138 56.7882 169.931 56.5814 168.002 56.5814C166.141 56.5814 165.934 56.7882 166.141 58.4422Z" fill="black"/>
<path d="M23.3425 99.9997C23.3425 101.861 23.5492 102.067 25.41 102.067C27.2708 102.067 27.4776 101.861 27.4776 99.9997C27.4776 98.139 27.2708 97.9322 25.41 97.9322C23.5492 97.9322 23.3425 98.139 23.3425 99.9997Z" fill="black"/>
<path d="M173.86 98.966C173.17 100.689 174.135 102.067 175.996 102.067C177.443 102.067 177.719 101.723 177.719 99.9997C177.719 98.2768 177.443 97.9322 175.996 97.9322C175.031 97.9322 174.066 98.4146 173.86 98.966Z" fill="black"/>
<path d="M98.4634 175.12C98.4634 176.981 98.6702 177.188 100.531 177.188C102.392 177.188 102.599 176.981 102.599 175.12C102.599 173.26 102.392 173.053 100.531 173.053C98.6702 173.053 98.4634 173.26 98.4634 175.12Z" fill="black"/>
<path d="M174.066 173.535C173.791 173.742 173.584 174.707 173.584 175.603C173.584 176.912 173.929 177.188 175.651 177.188C177.512 177.188 177.719 176.981 177.719 175.12C177.719 173.397 177.443 173.053 176.134 173.053C175.238 173.053 174.273 173.26 174.066 173.535Z" fill="black"/>
<path d="M102.598 4.20373H113.625V0.0686547H102.598V4.20373Z" fill="black"/>
<path d="M173.929 0.964607C173.722 1.44703 173.653 7.4429 173.722 14.1969L173.929 26.6021H200.117V0.413263L187.161 0.206509C177.03 0.0686733 174.135 0.206509 173.929 0.964607ZM196.327 22.8116H177.719V4.20375H196.327V22.8116Z" fill="black"/>
<path d="M181.165 19.3657H192.95L192.537 7.99423L181.165 7.58072V19.3657Z" fill="black"/>
<path d="M106.044 9.64825C106.044 11.578 106.251 11.7847 108.181 11.7847C110.041 11.7847 110.248 11.578 110.041 9.855C109.904 8.40773 109.421 7.9253 107.974 7.78746C106.251 7.58071 106.044 7.78746 106.044 9.64825Z" fill="black"/>
<path d="M8.18061 154.79C8.18061 158.373 8.1117 158.58 6.45766 158.58C5.01039 158.58 4.73471 158.235 4.73471 156.512C4.73471 154.652 4.52796 154.445 2.59826 154.445H0.530718L0.668554 158.235C0.806389 161.888 0.875307 162.026 2.80501 162.026C4.39012 162.026 4.73471 162.302 4.73471 163.749C4.73471 165.541 5.28606 165.748 10.1103 165.472C12.1779 165.403 12.3157 165.541 12.3157 167.47C12.3157 169.262 12.5914 169.607 14.0386 169.607C15.4859 169.607 15.7616 169.262 15.7616 167.539C15.7616 165.816 15.4859 165.472 14.0386 165.472C12.6603 165.472 12.3157 165.127 12.3157 163.749V162.026H27.4776V158.58H12.3157V154.79C12.3157 151.068 12.3157 150.999 10.2482 150.999C8.18061 150.999 8.18061 151.068 8.18061 154.79ZM12.3157 160.303C12.3157 161.75 11.9711 162.026 10.2482 162.026C8.5252 162.026 8.18061 161.75 8.18061 160.303C8.18061 158.856 8.5252 158.58 10.2482 158.58C11.9711 158.58 12.3157 158.856 12.3157 160.303Z" fill="black"/>
<path d="M0.944528 173.949C0.737774 174.431 0.668856 180.427 0.737774 187.181L0.944528 199.586H27.1334V173.397L14.1768 173.191C4.04584 173.053 1.15128 173.191 0.944528 173.949ZM23.3429 195.796H4.73502V177.188H23.3429V195.796Z" fill="black"/>
<path d="M8.45624 181.53C8.24949 182.081 8.18057 184.631 8.31841 187.25L8.52516 192.005L19.8966 192.419V180.634H14.3832C10.3859 180.634 8.73191 180.909 8.45624 181.53Z" fill="black"/>
<path d="M87.4366 194.073C87.4366 199.862 87.4366 199.931 89.1595 199.931C90.8825 199.931 90.8825 199.862 90.8825 194.073C90.8825 188.284 90.8825 188.215 89.1595 188.215C87.4366 188.215 87.4366 188.284 87.4366 194.073Z" fill="black"/>
<path d="M95.0173 197.932C95.0173 199.724 95.2241 200 96.6024 199.793C97.7051 199.655 98.1876 199.035 98.3254 197.657C98.5321 196.071 98.3254 195.796 96.8092 195.796C95.293 195.796 95.0173 196.071 95.0173 197.932Z" fill="black"/>
</svg>
