<svg width="69" height="69" viewBox="0 0 69 69" fill="none" xmlns="http://www.w3.org/2000/svg">
<path d="M2.24676 34.3558C2.24517 40.1138 3.74967 45.736 6.61045 50.6915L1.97317 67.6229L19.3004 63.0797C24.0929 65.6887 29.4625 67.0558 34.9192 67.0561H34.9335C52.9469 67.0561 67.6102 52.3981 67.6179 34.3816C67.6213 25.6513 64.2245 17.4419 58.053 11.2656C51.8825 5.08977 43.676 1.68685 34.9322 1.68287C16.9167 1.68287 2.2542 16.3401 2.24676 34.3558Z" fill="url(#paint0_linear_549_1859)"/>
<path d="M1.07987 34.3452C1.07801 40.3103 2.63644 46.1336 5.59922 51.2666L0.795654 68.805L18.7442 64.0989C23.6896 66.7952 29.2576 68.2169 34.9234 68.219H34.938C53.5977 68.219 68.7877 53.0338 68.7957 34.3723C68.7988 25.3283 65.2798 16.8238 58.8878 10.4262C52.495 4.0294 43.995 0.504024 34.938 0.500305C16.2752 0.500305 1.08731 15.6834 1.07987 34.3452ZM11.7686 50.3826L11.0985 49.3187C8.28123 44.8392 6.79426 39.6627 6.79639 34.3473C6.8025 18.8361 19.4261 6.21656 34.9487 6.21656C42.4658 6.21974 49.5304 9.15012 54.844 14.4669C60.1573 19.7841 63.081 26.8524 63.0791 34.3701C63.0722 49.8813 50.4484 62.5025 34.938 62.5025H34.9269C29.8765 62.4998 24.9234 61.1436 20.6038 58.5805L19.5759 57.9709L8.92484 60.7634L11.7686 50.3826Z" fill="url(#paint1_linear_549_1859)"/>
<path d="M26.4757 20.1959C25.842 18.7873 25.175 18.7588 24.5723 18.7341C24.0787 18.7129 23.5146 18.7145 22.9509 18.7145C22.3867 18.7145 21.47 18.9267 20.6952 19.7727C19.9196 20.6195 17.734 22.6659 17.734 26.828C17.734 30.9903 20.7656 35.0127 21.1882 35.5777C21.6114 36.1416 27.0407 44.9561 35.6395 48.3471C42.7859 51.1651 44.2402 50.6046 45.7912 50.4633C47.3425 50.3225 50.7966 48.4175 51.5013 46.442C52.2066 44.4668 52.2066 42.7737 51.9951 42.4199C51.7837 42.0674 51.2195 41.8557 50.3735 41.4328C49.5272 41.0097 45.3681 38.9631 44.5927 38.6807C43.8171 38.3986 43.2532 38.2578 42.689 39.1049C42.1248 39.9507 40.5047 41.8557 40.0109 42.4199C39.5177 42.9854 39.0239 43.0558 38.1781 42.6327C37.3316 42.2082 34.6071 41.316 31.3747 38.4342C28.8597 36.1918 27.1619 33.4227 26.6683 32.5756C26.1748 31.7298 26.6155 31.2714 27.0397 30.8498C27.4198 30.4708 27.886 29.862 28.3094 29.3682C28.7312 28.8741 28.872 28.5216 29.154 27.9574C29.4364 27.3927 29.2951 26.8986 29.0839 26.4755C28.872 26.0524 27.228 21.8685 26.4757 20.1959Z" fill="white"/>
<defs>
<linearGradient id="paint0_linear_549_1859" x1="3400.8" y1="6830.97" x2="3400.8" y2="0.500305" gradientUnits="userSpaceOnUse">
<stop stop-color="#1FAF38"/>
<stop offset="1" stop-color="#60D669"/>
</linearGradient>
<linearGradient id="paint1_linear_549_1859" x1="3400.8" y1="6830.97" x2="3400.8" y2="0.500305" gradientUnits="userSpaceOnUse">
<stop stop-color="#F9F9F9"/>
<stop offset="1" stop-color="white"/>
</linearGradient>
</defs>
</svg>
